<svg width="624" height="625" viewBox="0 0 624 625" fill="none" xmlns="http://www.w3.org/2000/svg">
<mask id="path-1-inside-1_7_31" fill="white">
<rect x="10" y="12" width="150" height="150" rx="4"/>
</mask>
<rect x="10" y="12" width="150" height="150" rx="4" fill="#1E1E1E" stroke="#353535" stroke-width="16" mask="url(#path-1-inside-1_7_31)"/>
<mask id="path-2-inside-2_7_31" fill="white">
<rect x="10" y="162" width="150" height="150" rx="4"/>
</mask>
<rect x="10" y="162" width="150" height="150" rx="4" fill="#1E1E1E" stroke="#353535" stroke-width="16" mask="url(#path-2-inside-2_7_31)"/>
<mask id="path-3-inside-3_7_31" fill="white">
<rect x="160" y="162" width="150" height="150" rx="4"/>
</mask>
<rect x="160" y="162" width="150" height="150" rx="4" fill="#1E1E1E" stroke="#353535" stroke-width="16" mask="url(#path-3-inside-3_7_31)"/>
<mask id="path-4-inside-4_7_31" fill="white">
<rect x="310" y="162" width="150" height="150" rx="4"/>
</mask>
<rect x="310" y="162" width="150" height="150" rx="4" fill="#1E1E1E" stroke="#353535" stroke-width="16" mask="url(#path-4-inside-4_7_31)"/>
<mask id="path-5-inside-5_7_31" fill="white">
<rect x="460" y="162" width="150" height="150" rx="4"/>
</mask>
<rect x="460" y="162" width="150" height="150" rx="4" fill="#1E1E1E" stroke="#353535" stroke-width="16" mask="url(#path-5-inside-5_7_31)"/>
<mask id="path-6-inside-6_7_31" fill="white">
<rect x="160" y="12" width="150" height="150" rx="4"/>
</mask>
<rect x="160" y="12" width="150" height="150" rx="4" fill="#1E1E1E" stroke="#353535" stroke-width="16" mask="url(#path-6-inside-6_7_31)"/>
<mask id="path-7-inside-7_7_31" fill="white">
<rect x="310" y="12" width="150" height="150" rx="4"/>
</mask>
<rect x="310" y="12" width="150" height="150" rx="4" fill="#1E1E1E" stroke="#353535" stroke-width="16" mask="url(#path-7-inside-7_7_31)"/>
<mask id="path-8-inside-8_7_31" fill="white">
<rect x="460" y="12" width="150" height="150" rx="4"/>
</mask>
<rect x="460" y="12" width="150" height="150" rx="4" fill="#1E1E1E" stroke="#353535" stroke-width="16" mask="url(#path-8-inside-8_7_31)"/>
<mask id="path-9-inside-9_7_31" fill="white">
<rect x="10" y="312" width="150" height="150" rx="4"/>
</mask>
<rect x="10" y="312" width="150" height="150" rx="4" fill="#1E1E1E" stroke="#353535" stroke-width="16" mask="url(#path-9-inside-9_7_31)"/>
<mask id="path-10-inside-10_7_31" fill="white">
<rect x="10" y="462" width="150" height="150" rx="4"/>
</mask>
<rect x="10" y="462" width="150" height="150" rx="4" fill="#1E1E1E" stroke="#353535" stroke-width="16" mask="url(#path-10-inside-10_7_31)"/>
<mask id="path-11-inside-11_7_31" fill="white">
<rect x="160" y="462" width="150" height="150" rx="4"/>
</mask>
<rect x="160" y="462" width="150" height="150" rx="4" fill="#1E1E1E" stroke="#353535" stroke-width="16" mask="url(#path-11-inside-11_7_31)"/>
<mask id="path-12-inside-12_7_31" fill="white">
<rect x="310" y="462" width="150" height="150" rx="4"/>
</mask>
<rect x="310" y="462" width="150" height="150" rx="4" fill="#1E1E1E" stroke="#353535" stroke-width="16" mask="url(#path-12-inside-12_7_31)"/>
<mask id="path-13-inside-13_7_31" fill="white">
<rect x="460" y="462" width="150" height="150" rx="4"/>
</mask>
<rect x="460" y="462" width="150" height="150" rx="4" fill="#1E1E1E" stroke="#353535" stroke-width="16" mask="url(#path-13-inside-13_7_31)"/>
<mask id="path-14-inside-14_7_31" fill="white">
<rect x="160" y="312" width="150" height="150" rx="4"/>
</mask>
<rect x="160" y="312" width="150" height="150" rx="4" fill="#1E1E1E" stroke="#353535" stroke-width="16" mask="url(#path-14-inside-14_7_31)"/>
<mask id="path-15-inside-15_7_31" fill="white">
<rect x="310" y="312" width="150" height="150" rx="4"/>
</mask>
<rect x="310" y="312" width="150" height="150" rx="4" fill="#1E1E1E" stroke="#353535" stroke-width="16" mask="url(#path-15-inside-15_7_31)"/>
<mask id="path-16-inside-16_7_31" fill="white">
<rect x="460" y="312" width="150" height="150" rx="4"/>
</mask>
<rect x="460" y="312" width="150" height="150" rx="4" fill="#1E1E1E" stroke="#353535" stroke-width="16" mask="url(#path-16-inside-16_7_31)"/>
<mask id="path-17-inside-17_7_31" fill="white">
<rect x="80" y="112" width="80" height="50" rx="4"/>
</mask>
<rect x="80" y="112" width="80" height="50" rx="4" fill="white" stroke="#353535" stroke-width="16" mask="url(#path-17-inside-17_7_31)"/>
<mask id="path-18-inside-18_7_31" fill="white">
<rect x="380" y="262" width="80" height="50" rx="4"/>
</mask>
<rect x="380" y="262" width="80" height="50" rx="4" fill="white" stroke="#353535" stroke-width="16" mask="url(#path-18-inside-18_7_31)"/>
<mask id="path-19-inside-19_7_31" fill="white">
<rect x="230" y="412" width="80" height="50" rx="4"/>
</mask>
<rect x="230" y="412" width="80" height="50" rx="4" fill="white" stroke="#353535" stroke-width="16" mask="url(#path-19-inside-19_7_31)"/>
<mask id="path-20-inside-20_7_31" fill="white">
<rect x="530" y="412" width="80" height="50" rx="4"/>
</mask>
<rect x="530" y="412" width="80" height="50" rx="4" fill="white" stroke="#353535" stroke-width="16" mask="url(#path-20-inside-20_7_31)"/>
<mask id="path-21-inside-21_7_31" fill="white">
<rect x="230" y="562" width="80" height="50" rx="4"/>
</mask>
<rect x="230" y="562" width="80" height="50" rx="4" fill="white" stroke="#353535" stroke-width="16" mask="url(#path-21-inside-21_7_31)"/>
<path d="M119.5 138C214.667 110 494.281 132.64 423 284.5C388.5 358 237.5 384.5 266 439C440.5 413.5 501.5 380.5 576.5 439C673.459 514.628 352.5 586.667 266 588" stroke="white" stroke-width="7"/>
<path d="M72.3136 73.8182V100H66.7781V79.0724H66.6246L60.6289 82.831V77.9219L67.1104 73.8182H72.3136ZM88.8018 100.575C86.603 100.567 84.7109 100.026 83.1257 98.9517C81.549 97.8778 80.3345 96.3224 79.4822 94.2855C78.6385 92.2486 78.2209 89.7983 78.2294 86.9347C78.2294 84.0795 78.6513 81.6463 79.495 79.6349C80.3473 77.6236 81.5618 76.0937 83.1385 75.0455C84.7237 73.9886 86.6115 73.4602 88.8018 73.4602C90.9922 73.4602 92.8757 73.9886 94.4524 75.0455C96.0376 76.1023 97.2564 77.6364 98.1087 79.6477C98.9609 81.6506 99.3828 84.0795 99.3743 86.9347C99.3743 89.8068 98.9482 92.2614 98.0959 94.2983C97.2521 96.3352 96.0419 97.8906 94.4652 98.9645C92.8885 100.038 91.0007 100.575 88.8018 100.575ZM88.8018 95.9858C90.3018 95.9858 91.4993 95.2315 92.3942 93.723C93.2891 92.2145 93.7322 89.9517 93.7237 86.9347C93.7237 84.9489 93.5192 83.2955 93.1101 81.9744C92.7095 80.6534 92.1385 79.6605 91.397 78.9957C90.6641 78.331 89.799 77.9986 88.8018 77.9986C87.3104 77.9986 86.1172 78.7443 85.2223 80.2358C84.3274 81.7273 83.8757 83.9602 83.8672 86.9347C83.8672 88.946 84.0675 90.625 84.468 91.9716C84.8771 93.3097 85.4524 94.3153 86.1939 94.9886C86.9354 95.6534 87.8047 95.9858 88.8018 95.9858Z" fill="white"/>
<path d="M213.919 550V546.011L223.239 537.382C224.031 536.615 224.696 535.925 225.233 535.311C225.778 534.697 226.192 534.097 226.473 533.509C226.754 532.912 226.895 532.268 226.895 531.578C226.895 530.811 226.72 530.151 226.371 529.597C226.021 529.034 225.544 528.604 224.939 528.305C224.334 527.999 223.648 527.845 222.881 527.845C222.08 527.845 221.381 528.007 220.784 528.331C220.188 528.655 219.727 529.119 219.403 529.724C219.08 530.33 218.918 531.05 218.918 531.885H213.663C213.663 530.172 214.051 528.685 214.827 527.423C215.602 526.162 216.689 525.186 218.087 524.496C219.484 523.805 221.095 523.46 222.919 523.46C224.794 523.46 226.426 523.793 227.815 524.457C229.213 525.114 230.3 526.026 231.075 527.193C231.851 528.361 232.239 529.699 232.239 531.207C232.239 532.196 232.043 533.172 231.651 534.135C231.267 535.098 230.581 536.168 229.592 537.344C228.604 538.511 227.21 539.913 225.412 541.55L221.589 545.295V545.474H232.584V550H213.919ZM246.272 550.358C244.363 550.358 242.663 550.03 241.172 549.374C239.689 548.709 238.517 547.797 237.656 546.638C236.804 545.47 236.365 544.124 236.339 542.598H241.913C241.947 543.237 242.156 543.8 242.539 544.286C242.931 544.763 243.451 545.134 244.099 545.398C244.747 545.662 245.475 545.794 246.285 545.794C247.129 545.794 247.875 545.645 248.522 545.347C249.17 545.048 249.677 544.635 250.044 544.107C250.41 543.578 250.593 542.969 250.593 542.278C250.593 541.58 250.397 540.962 250.005 540.425C249.622 539.879 249.068 539.453 248.343 539.146C247.627 538.839 246.775 538.686 245.787 538.686H243.345V534.621H245.787C246.622 534.621 247.359 534.476 247.998 534.186C248.646 533.896 249.149 533.496 249.507 532.984C249.865 532.464 250.044 531.859 250.044 531.169C250.044 530.513 249.886 529.938 249.571 529.443C249.264 528.94 248.829 528.548 248.267 528.267C247.713 527.986 247.065 527.845 246.324 527.845C245.574 527.845 244.887 527.982 244.265 528.254C243.643 528.518 243.145 528.898 242.77 529.392C242.395 529.886 242.194 530.466 242.169 531.131H236.863C236.889 529.622 237.319 528.293 238.154 527.142C238.99 525.991 240.115 525.092 241.529 524.445C242.953 523.788 244.559 523.46 246.349 523.46C248.156 523.46 249.737 523.788 251.092 524.445C252.447 525.101 253.5 525.987 254.25 527.104C255.008 528.212 255.383 529.456 255.375 530.837C255.383 532.303 254.927 533.526 254.007 534.506C253.095 535.486 251.906 536.108 250.44 536.372V536.577C252.366 536.824 253.832 537.493 254.838 538.584C255.852 539.666 256.355 541.021 256.346 542.649C256.355 544.141 255.924 545.466 255.055 546.625C254.194 547.784 253.005 548.696 251.488 549.361C249.971 550.026 248.233 550.358 246.272 550.358Z" fill="white"/>
<path d="M377.823 223.818V250H372.288V229.072H372.134L366.139 232.831V227.922L372.62 223.818H377.823ZM394.094 250.358C392.748 250.349 391.448 250.124 390.195 249.68C388.951 249.237 387.834 248.517 386.846 247.52C385.857 246.523 385.073 245.202 384.493 243.557C383.922 241.912 383.637 239.892 383.637 237.497C383.645 235.298 383.897 233.334 384.391 231.604C384.894 229.865 385.61 228.391 386.539 227.18C387.476 225.97 388.597 225.05 389.901 224.419C391.205 223.78 392.667 223.46 394.286 223.46C396.033 223.46 397.576 223.801 398.914 224.483C400.252 225.156 401.326 226.072 402.135 227.232C402.954 228.391 403.448 229.69 403.618 231.131H398.16C397.947 230.219 397.499 229.503 396.817 228.983C396.135 228.463 395.292 228.203 394.286 228.203C392.581 228.203 391.286 228.945 390.4 230.428C389.522 231.911 389.074 233.926 389.057 236.474H389.236C389.628 235.699 390.157 235.038 390.822 234.493C391.495 233.939 392.258 233.517 393.11 233.227C393.971 232.929 394.878 232.78 395.833 232.78C397.384 232.78 398.765 233.146 399.975 233.879C401.185 234.604 402.14 235.601 402.839 236.871C403.537 238.141 403.887 239.594 403.887 241.23C403.887 243.003 403.474 244.58 402.647 245.96C401.829 247.341 400.682 248.423 399.208 249.207C397.742 249.983 396.037 250.366 394.094 250.358ZM394.069 246.011C394.921 246.011 395.684 245.807 396.357 245.398C397.03 244.989 397.559 244.435 397.942 243.736C398.326 243.037 398.518 242.253 398.518 241.384C398.518 240.514 398.326 239.734 397.942 239.044C397.567 238.354 397.047 237.804 396.383 237.395C395.718 236.986 394.959 236.781 394.107 236.781C393.468 236.781 392.876 236.901 392.33 237.139C391.793 237.378 391.32 237.71 390.911 238.136C390.51 238.562 390.195 239.057 389.965 239.619C389.735 240.173 389.62 240.766 389.62 241.396C389.62 242.24 389.812 243.011 390.195 243.71C390.587 244.409 391.116 244.967 391.78 245.385C392.454 245.803 393.216 246.011 394.069 246.011Z" fill="white"/>
<path d="M227.823 373.818V400H222.288V379.072H222.134L216.139 382.831V377.922L222.62 373.818H227.823ZM243.519 373.46C244.866 373.46 246.161 373.686 247.405 374.138C248.658 374.589 249.775 375.31 250.755 376.298C251.743 377.287 252.523 378.599 253.094 380.236C253.674 381.864 253.968 383.862 253.976 386.232C253.976 388.456 253.725 390.442 253.222 392.189C252.728 393.928 252.016 395.406 251.087 396.625C250.158 397.844 249.037 398.773 247.725 399.412C246.412 400.043 244.947 400.358 243.327 400.358C241.58 400.358 240.037 400.021 238.699 399.348C237.361 398.666 236.283 397.741 235.465 396.574C234.655 395.398 234.165 394.077 233.995 392.611H239.454C239.667 393.565 240.114 394.307 240.796 394.835C241.478 395.355 242.322 395.615 243.327 395.615C245.032 395.615 246.327 394.874 247.214 393.391C248.1 391.899 248.547 389.858 248.556 387.267H248.377C247.985 388.034 247.456 388.695 246.792 389.249C246.127 389.794 245.364 390.216 244.503 390.514C243.651 390.812 242.743 390.962 241.78 390.962C240.238 390.962 238.861 390.599 237.651 389.875C236.441 389.151 235.486 388.153 234.787 386.884C234.089 385.614 233.739 384.165 233.739 382.537C233.731 380.781 234.135 379.217 234.954 377.845C235.772 376.473 236.914 375.399 238.38 374.624C239.854 373.839 241.567 373.452 243.519 373.46ZM243.557 377.807C242.697 377.807 241.93 378.011 241.256 378.42C240.591 378.83 240.063 379.379 239.671 380.07C239.287 380.76 239.1 381.531 239.108 382.384C239.108 383.244 239.296 384.02 239.671 384.71C240.055 385.392 240.574 385.937 241.231 386.347C241.895 386.747 242.654 386.947 243.506 386.947C244.145 386.947 244.738 386.828 245.283 386.589C245.829 386.351 246.302 386.023 246.702 385.605C247.111 385.179 247.431 384.689 247.661 384.135C247.891 383.581 248.006 382.993 248.006 382.371C247.998 381.544 247.802 380.786 247.418 380.095C247.035 379.405 246.506 378.851 245.833 378.433C245.16 378.016 244.401 377.807 243.557 377.807Z" fill="white"/>
<path d="M516.978 400V396.011L526.297 387.382C527.09 386.615 527.755 385.925 528.292 385.311C528.837 384.697 529.25 384.097 529.532 383.509C529.813 382.912 529.953 382.268 529.953 381.578C529.953 380.811 529.779 380.151 529.429 379.597C529.08 379.034 528.603 378.604 527.998 378.305C527.392 377.999 526.706 377.845 525.939 377.845C525.138 377.845 524.439 378.007 523.843 378.331C523.246 378.655 522.786 379.119 522.462 379.724C522.138 380.33 521.976 381.05 521.976 381.885H516.722C516.722 380.172 517.11 378.685 517.885 377.423C518.661 376.162 519.748 375.186 521.145 374.496C522.543 373.805 524.154 373.46 525.978 373.46C527.853 373.46 529.485 373.793 530.874 374.457C532.272 375.114 533.358 376.026 534.134 377.193C534.909 378.361 535.297 379.699 535.297 381.207C535.297 382.196 535.101 383.172 534.709 384.135C534.326 385.098 533.64 386.168 532.651 387.344C531.662 388.511 530.269 389.913 528.471 391.55L524.648 395.295V395.474H535.642V400H516.978ZM551.044 373.818V400H545.509V379.072H545.355L539.359 382.831V377.922L545.841 373.818H551.044Z" fill="white"/>
</svg>
