<svg width="519" height="476" viewBox="0 0 519 476" fill="none" xmlns="http://www.w3.org/2000/svg">
<mask id="path-1-inside-1_11_62" fill="white">
<rect x="7" y="11" width="250" height="75" rx="4"/>
</mask>
<rect x="7" y="11" width="250" height="75" rx="4" fill="#1E1E1E" stroke="#353535" stroke-width="16" mask="url(#path-1-inside-1_11_62)"/>
<mask id="path-2-inside-2_11_62" fill="white">
<rect x="257" y="11" width="250" height="75" rx="4"/>
</mask>
<rect x="257" y="11" width="250" height="75" rx="4" fill="#1E1E1E" stroke="#353535" stroke-width="16" mask="url(#path-2-inside-2_11_62)"/>
<mask id="path-3-inside-3_11_62" fill="white">
<rect x="7" y="86" width="250" height="75" rx="4"/>
</mask>
<rect x="7" y="86" width="250" height="75" rx="4" fill="#1E1E1E" stroke="#353535" stroke-width="16" mask="url(#path-3-inside-3_11_62)"/>
<mask id="path-4-inside-4_11_62" fill="white">
<rect x="257" y="86" width="250" height="75" rx="4"/>
</mask>
<rect x="257" y="86" width="250" height="75" rx="4" fill="#1E1E1E" stroke="#353535" stroke-width="16" mask="url(#path-4-inside-4_11_62)"/>
<mask id="path-5-inside-5_11_62" fill="white">
<rect x="7" y="161" width="250" height="75" rx="4"/>
</mask>
<rect x="7" y="161" width="250" height="75" rx="4" fill="#1E1E1E" stroke="#353535" stroke-width="16" mask="url(#path-5-inside-5_11_62)"/>
<mask id="path-6-inside-6_11_62" fill="white">
<rect x="257" y="161" width="250" height="75" rx="4"/>
</mask>
<rect x="257" y="161" width="250" height="75" rx="4" fill="#1E1E1E" stroke="#353535" stroke-width="16" mask="url(#path-6-inside-6_11_62)"/>
<mask id="path-7-inside-7_11_62" fill="white">
<rect x="7" y="236" width="250" height="75" rx="4"/>
</mask>
<rect x="7" y="236" width="250" height="75" rx="4" fill="#1E1E1E" stroke="#353535" stroke-width="16" mask="url(#path-7-inside-7_11_62)"/>
<mask id="path-8-inside-8_11_62" fill="white">
<rect x="257" y="236" width="250" height="75" rx="4"/>
</mask>
<rect x="257" y="236" width="250" height="75" rx="4" fill="#1E1E1E" stroke="#353535" stroke-width="16" mask="url(#path-8-inside-8_11_62)"/>
<mask id="path-9-inside-9_11_62" fill="white">
<rect x="7" y="311" width="250" height="75" rx="4"/>
</mask>
<rect x="7" y="311" width="250" height="75" rx="4" fill="#1E1E1E" stroke="#353535" stroke-width="16" mask="url(#path-9-inside-9_11_62)"/>
<mask id="path-10-inside-10_11_62" fill="white">
<rect x="257" y="311" width="250" height="75" rx="4"/>
</mask>
<rect x="257" y="311" width="250" height="75" rx="4" fill="#1E1E1E" stroke="#353535" stroke-width="16" mask="url(#path-10-inside-10_11_62)"/>
<mask id="path-11-inside-11_11_62" fill="white">
<rect x="7" y="386" width="250" height="75" rx="4"/>
</mask>
<rect x="7" y="386" width="250" height="75" rx="4" fill="#1E1E1E" stroke="#353535" stroke-width="16" mask="url(#path-11-inside-11_11_62)"/>
<mask id="path-12-inside-12_11_62" fill="white">
<rect x="257" y="386" width="250" height="75" rx="4"/>
</mask>
<rect x="257" y="386" width="250" height="75" rx="4" fill="#1E1E1E" stroke="#353535" stroke-width="16" mask="url(#path-12-inside-12_11_62)"/>
<path d="M39.5087 62.358C37.5996 62.358 35.8993 62.0298 34.4078 61.3736C32.9249 60.7088 31.753 59.7969 30.8922 58.6378C30.04 57.4702 29.601 56.1236 29.5755 54.598H35.1493C35.1834 55.2372 35.3922 55.7997 35.7757 56.2855C36.1678 56.7628 36.6877 57.1335 37.3354 57.3977C37.9831 57.6619 38.7118 57.794 39.5215 57.794C40.3652 57.794 41.111 57.6449 41.7587 57.3466C42.4064 57.0483 42.9135 56.6349 43.28 56.1065C43.6465 55.5781 43.8297 54.9687 43.8297 54.2784C43.8297 53.5795 43.6337 52.9616 43.2417 52.4247C42.8581 51.8793 42.3042 51.4531 41.5797 51.1463C40.8638 50.8395 40.0115 50.6861 39.0229 50.6861H36.5811V46.6207H39.0229C39.8581 46.6207 40.5953 46.4759 41.2346 46.1861C41.8823 45.8963 42.3851 45.4957 42.7431 44.9844C43.101 44.4645 43.28 43.8594 43.28 43.169C43.28 42.5128 43.1223 41.9375 42.807 41.4432C42.5002 40.9403 42.0655 40.5483 41.503 40.267C40.949 39.9858 40.3013 39.8452 39.5598 39.8452C38.8098 39.8452 38.1238 39.9815 37.5016 40.2543C36.8794 40.5185 36.3809 40.8977 36.0059 41.392C35.6309 41.8864 35.4306 42.4659 35.405 43.1307H30.0996C30.1252 41.6222 30.5556 40.2926 31.3908 39.142C32.226 37.9915 33.351 37.0923 34.7658 36.4446C36.1891 35.7884 37.7956 35.4602 39.5854 35.4602C41.3922 35.4602 42.9732 35.7884 44.3283 36.4446C45.6834 37.1009 46.736 37.9872 47.486 39.1037C48.2445 40.2116 48.6195 41.456 48.611 42.8366C48.6195 44.3026 48.1635 45.5256 47.2431 46.5057C46.3311 47.4858 45.1422 48.108 43.6763 48.3722V48.5767C45.6025 48.8239 47.0684 49.4929 48.074 50.5838C49.0882 51.6662 49.5911 53.0213 49.5826 54.6491C49.5911 56.1406 49.1607 57.4659 48.2914 58.625C47.4306 59.7841 46.2417 60.696 44.7246 61.3608C43.2076 62.0256 41.4689 62.358 39.5087 62.358ZM63.1241 62.358C61.3173 62.358 59.7065 62.0256 58.2917 61.3608C56.8855 60.696 55.769 59.7798 54.9423 58.6122C54.1156 57.4446 53.6852 56.1065 53.6511 54.598H59.0204C59.0801 55.6122 59.5062 56.4347 60.2988 57.0653C61.0914 57.696 62.0332 58.0114 63.1241 58.0114C63.9934 58.0114 64.7605 57.8196 65.4252 57.4361C66.0985 57.044 66.6227 56.5028 66.9977 55.8125C67.3812 55.1136 67.573 54.3125 67.573 53.4091C67.573 52.4886 67.377 51.679 66.9849 50.9801C66.6014 50.2812 66.0687 49.7358 65.3869 49.3438C64.7051 48.9517 63.9252 48.7514 63.0474 48.7429C62.2804 48.7429 61.5346 48.9006 60.8102 49.2159C60.0943 49.5312 59.536 49.9616 59.1355 50.5071L54.2136 49.625L55.4537 35.8182H71.4593V40.3438H60.0176L59.34 46.902H59.4934C59.9537 46.2543 60.6483 45.7173 61.5772 45.2912C62.5062 44.8651 63.546 44.652 64.6966 44.652C66.2733 44.652 67.6795 45.0227 68.9153 45.7642C70.1511 46.5057 71.127 47.5241 71.8429 48.8196C72.5588 50.1065 72.9125 51.5895 72.9039 53.2685C72.9125 55.0327 72.5034 56.6009 71.6767 57.973C70.8585 59.3366 69.7122 60.4105 68.2377 61.1946C66.7718 61.9702 65.0673 62.358 63.1241 62.358ZM76.7647 62V58.0114L86.0843 49.3821C86.877 48.6151 87.5417 47.9247 88.0787 47.3111C88.6241 46.6974 89.0375 46.0966 89.3187 45.5085C89.6 44.9119 89.7406 44.2685 89.7406 43.5781C89.7406 42.8111 89.5659 42.1506 89.2164 41.5966C88.867 41.0341 88.3897 40.6037 87.7846 40.3054C87.1795 39.9986 86.4934 39.8452 85.7264 39.8452C84.9252 39.8452 84.2264 40.0071 83.6298 40.331C83.0332 40.6548 82.573 41.1193 82.2491 41.7244C81.9252 42.3295 81.7633 43.0497 81.7633 43.8849H76.5091C76.5091 42.1719 76.8968 40.6847 77.6724 39.4233C78.448 38.1619 79.5346 37.1861 80.9324 36.4957C82.3301 35.8054 83.9409 35.4602 85.7647 35.4602C87.6397 35.4602 89.2718 35.7926 90.661 36.4574C92.0588 37.1136 93.1454 38.0256 93.921 39.1932C94.6966 40.3608 95.0843 41.6989 95.0843 43.2074C95.0843 44.196 94.8883 45.1719 94.4963 46.1349C94.1127 47.098 93.4267 48.1676 92.438 49.3438C91.4494 50.5114 90.0559 51.9134 88.2576 53.5497L84.4352 57.2955V57.4744H95.4295V62H76.7647ZM106.727 62.3196C105.236 62.3196 103.885 61.9361 102.675 61.169C101.473 60.3935 100.519 59.2557 99.8113 57.7557C99.1124 56.2472 98.763 54.3977 98.763 52.2074C98.763 49.9574 99.1252 48.0866 99.8496 46.5952C100.574 45.0952 101.537 43.9744 102.739 43.233C103.949 42.483 105.274 42.108 106.715 42.108C107.814 42.108 108.73 42.2955 109.463 42.6705C110.205 43.0369 110.801 43.4972 111.253 44.0511C111.713 44.5966 112.063 45.1335 112.301 45.6619H112.468V35.8182H117.901V62H112.531V58.8551H112.301C112.046 59.4006 111.683 59.9418 111.215 60.4787C110.754 61.0071 110.154 61.446 109.412 61.7955C108.679 62.1449 107.784 62.3196 106.727 62.3196ZM108.453 57.9858C109.331 57.9858 110.073 57.7472 110.678 57.2699C111.291 56.7841 111.76 56.1065 112.084 55.2372C112.416 54.3679 112.583 53.3494 112.583 52.1818C112.583 51.0142 112.421 50 112.097 49.1392C111.773 48.2784 111.304 47.6136 110.691 47.1449C110.077 46.6761 109.331 46.4418 108.453 46.4418C107.558 46.4418 106.804 46.6847 106.191 47.1705C105.577 47.6562 105.112 48.3295 104.797 49.1903C104.482 50.0511 104.324 51.0483 104.324 52.1818C104.324 53.3239 104.482 54.3338 104.797 55.2116C105.121 56.081 105.585 56.7628 106.191 57.2571C106.804 57.7429 107.558 57.9858 108.453 57.9858ZM127.978 62.3707C126.725 62.3707 125.608 62.1534 124.628 61.7188C123.648 61.2756 122.873 60.6236 122.302 59.7628C121.739 58.8935 121.458 57.8111 121.458 56.5156C121.458 55.4247 121.658 54.5085 122.059 53.767C122.459 53.0256 123.005 52.429 123.695 51.9773C124.385 51.5256 125.17 51.1847 126.047 50.9545C126.934 50.7244 127.863 50.5625 128.834 50.4688C129.976 50.3494 130.897 50.2386 131.596 50.1364C132.295 50.0256 132.802 49.8636 133.117 49.6506C133.432 49.4375 133.59 49.1222 133.59 48.7045V48.6278C133.59 47.8182 133.334 47.1918 132.823 46.7486C132.32 46.3054 131.604 46.0838 130.675 46.0838C129.695 46.0838 128.915 46.3011 128.336 46.7358C127.756 47.1619 127.373 47.6989 127.185 48.3466L122.148 47.9375C122.404 46.7443 122.907 45.7131 123.657 44.8438C124.407 43.9659 125.374 43.2926 126.559 42.8239C127.752 42.3466 129.133 42.108 130.701 42.108C131.792 42.108 132.836 42.2358 133.833 42.4915C134.839 42.7472 135.729 43.1435 136.505 43.6804C137.289 44.2173 137.907 44.9077 138.358 45.7514C138.81 46.5866 139.036 47.5881 139.036 48.7557V62H133.871V59.277H133.718C133.403 59.8906 132.981 60.4318 132.452 60.9006C131.924 61.3608 131.289 61.723 130.547 61.9872C129.806 62.2429 128.949 62.3707 127.978 62.3707ZM129.537 58.6122C130.339 58.6122 131.046 58.4545 131.66 58.1392C132.273 57.8153 132.755 57.3807 133.104 56.8352C133.454 56.2898 133.628 55.6719 133.628 54.9815V52.8977C133.458 53.0085 133.224 53.1108 132.925 53.2045C132.635 53.2898 132.307 53.3707 131.941 53.4474C131.574 53.5156 131.208 53.5795 130.841 53.6392C130.475 53.6903 130.143 53.7372 129.844 53.7798C129.205 53.8736 128.647 54.0227 128.17 54.2273C127.692 54.4318 127.322 54.7088 127.057 55.0582C126.793 55.3991 126.661 55.8253 126.661 56.3366C126.661 57.0781 126.93 57.6449 127.466 58.0369C128.012 58.4205 128.702 58.6122 129.537 58.6122ZM152.977 62.358C151.008 62.358 149.257 62.0384 147.723 61.3991C146.197 60.7514 145 59.8693 144.131 58.7528C143.261 57.6364 142.827 56.3707 142.827 54.956C142.827 53.8651 143.074 52.8636 143.568 51.9517C144.071 51.0312 144.753 50.2685 145.613 49.6634C146.474 49.0497 147.437 48.6577 148.503 48.4872V48.3082C147.105 48.027 145.971 47.3494 145.102 46.2756C144.233 45.1932 143.798 43.9361 143.798 42.5043C143.798 41.1491 144.194 39.9432 144.987 38.8864C145.78 37.821 146.866 36.9858 148.247 36.3807C149.636 35.767 151.213 35.4602 152.977 35.4602C154.741 35.4602 156.314 35.767 157.694 36.3807C159.084 36.9943 160.175 37.8338 160.967 38.8991C161.76 39.956 162.16 41.1577 162.169 42.5043C162.16 43.9446 161.717 45.2017 160.839 46.2756C159.961 47.3494 158.836 48.027 157.464 48.3082V48.4872C158.513 48.6577 159.463 49.0497 160.315 49.6634C161.176 50.2685 161.858 51.0312 162.361 51.9517C162.872 52.8636 163.132 53.8651 163.14 54.956C163.132 56.3707 162.693 57.6364 161.824 58.7528C160.954 59.8693 159.753 60.7514 158.219 61.3991C156.693 62.0384 154.946 62.358 152.977 62.358ZM152.977 58.2926C153.855 58.2926 154.622 58.1349 155.278 57.8196C155.934 57.4957 156.446 57.0526 156.812 56.4901C157.187 55.919 157.375 55.2628 157.375 54.5213C157.375 53.7628 157.183 53.0938 156.8 52.5142C156.416 51.9261 155.896 51.4659 155.24 51.1335C154.584 50.7926 153.829 50.6222 152.977 50.6222C152.133 50.6222 151.379 50.7926 150.714 51.1335C150.05 51.4659 149.525 51.9261 149.142 52.5142C148.767 53.0938 148.579 53.7628 148.579 54.5213C148.579 55.2628 148.763 55.919 149.129 56.4901C149.496 57.0526 150.011 57.4957 150.676 57.8196C151.341 58.1349 152.108 58.2926 152.977 58.2926ZM152.977 46.5952C153.71 46.5952 154.362 46.446 154.933 46.1477C155.504 45.8494 155.952 45.4361 156.275 44.9077C156.599 44.3793 156.761 43.7699 156.761 43.0795C156.761 42.3977 156.599 41.8011 156.275 41.2898C155.952 40.7699 155.508 40.3651 154.946 40.0753C154.383 39.777 153.727 39.6278 152.977 39.6278C152.236 39.6278 151.579 39.777 151.008 40.0753C150.437 40.3651 149.99 40.7699 149.666 41.2898C149.351 41.8011 149.193 42.3977 149.193 43.0795C149.193 43.7699 149.355 44.3793 149.679 44.9077C150.003 45.4361 150.45 45.8494 151.021 46.1477C151.592 46.446 152.244 46.5952 152.977 46.5952ZM166.615 57.3977V53.0384L177.545 35.8182H181.303V41.8523H179.079L172.188 52.7571V52.9616H187.721V57.3977H166.615ZM179.181 62V56.0682L179.284 54.1378V35.8182H184.474V62H179.181ZM200.972 62.358C199.165 62.358 197.554 62.0256 196.139 61.3608C194.733 60.696 193.617 59.7798 192.79 58.6122C191.963 57.4446 191.533 56.1065 191.499 54.598H196.868C196.928 55.6122 197.354 56.4347 198.146 57.0653C198.939 57.696 199.881 58.0114 200.972 58.0114C201.841 58.0114 202.608 57.8196 203.273 57.4361C203.946 57.044 204.47 56.5028 204.845 55.8125C205.229 55.1136 205.421 54.3125 205.421 53.4091C205.421 52.4886 205.225 51.679 204.833 50.9801C204.449 50.2812 203.916 49.7358 203.235 49.3438C202.553 48.9517 201.773 48.7514 200.895 48.7429C200.128 48.7429 199.382 48.9006 198.658 49.2159C197.942 49.5312 197.384 49.9616 196.983 50.5071L192.061 49.625L193.301 35.8182H209.307V40.3438H197.865L197.188 46.902H197.341C197.801 46.2543 198.496 45.7173 199.425 45.2912C200.354 44.8651 201.394 44.652 202.544 44.652C204.121 44.652 205.527 45.0227 206.763 45.7642C207.999 46.5057 208.975 47.5241 209.691 48.8196C210.406 50.1065 210.76 51.5895 210.752 53.2685C210.76 55.0327 210.351 56.6009 209.524 57.973C208.706 59.3366 207.56 60.4105 206.085 61.1946C204.619 61.9702 202.915 62.358 200.972 62.358ZM224.379 62.358C222.411 62.358 220.659 62.0384 219.125 61.3991C217.6 60.7514 216.402 59.8693 215.533 58.7528C214.664 57.6364 214.229 56.3707 214.229 54.956C214.229 53.8651 214.476 52.8636 214.97 51.9517C215.473 51.0312 216.155 50.2685 217.016 49.6634C217.877 49.0497 218.84 48.6577 219.905 48.4872V48.3082C218.507 48.027 217.374 47.3494 216.504 46.2756C215.635 45.1932 215.2 43.9361 215.2 42.5043C215.2 41.1491 215.597 39.9432 216.389 38.8864C217.182 37.821 218.269 36.9858 219.649 36.3807C221.039 35.767 222.615 35.4602 224.379 35.4602C226.144 35.4602 227.716 35.767 229.097 36.3807C230.486 36.9943 231.577 37.8338 232.369 38.8991C233.162 39.956 233.563 41.1577 233.571 42.5043C233.563 43.9446 233.119 45.2017 232.242 46.2756C231.364 47.3494 230.239 48.027 228.867 48.3082V48.4872C229.915 48.6577 230.865 49.0497 231.718 49.6634C232.578 50.2685 233.26 51.0312 233.763 51.9517C234.274 52.8636 234.534 53.8651 234.543 54.956C234.534 56.3707 234.095 57.6364 233.226 58.7528C232.357 59.8693 231.155 60.7514 229.621 61.3991C228.095 62.0384 226.348 62.358 224.379 62.358ZM224.379 58.2926C225.257 58.2926 226.024 58.1349 226.681 57.8196C227.337 57.4957 227.848 57.0526 228.215 56.4901C228.59 55.919 228.777 55.2628 228.777 54.5213C228.777 53.7628 228.585 53.0938 228.202 52.5142C227.818 51.9261 227.298 51.4659 226.642 51.1335C225.986 50.7926 225.232 50.6222 224.379 50.6222C223.536 50.6222 222.781 50.7926 222.117 51.1335C221.452 51.4659 220.928 51.9261 220.544 52.5142C220.169 53.0938 219.982 53.7628 219.982 54.5213C219.982 55.2628 220.165 55.919 220.531 56.4901C220.898 57.0526 221.414 57.4957 222.078 57.8196C222.743 58.1349 223.51 58.2926 224.379 58.2926ZM224.379 46.5952C225.112 46.5952 225.764 46.446 226.335 46.1477C226.906 45.8494 227.354 45.4361 227.678 44.9077C228.002 44.3793 228.164 43.7699 228.164 43.0795C228.164 42.3977 228.002 41.8011 227.678 41.2898C227.354 40.7699 226.911 40.3651 226.348 40.0753C225.786 39.777 225.129 39.6278 224.379 39.6278C223.638 39.6278 222.982 39.777 222.411 40.0753C221.84 40.3651 221.392 40.7699 221.068 41.2898C220.753 41.8011 220.595 42.3977 220.595 43.0795C220.595 43.7699 220.757 44.3793 221.081 44.9077C221.405 45.4361 221.852 45.8494 222.423 46.1477C222.994 46.446 223.646 46.5952 224.379 46.5952Z" fill="white"/>
<path d="M43.1378 110.818V137H37.6023V116.072H37.4489L31.4531 119.831V114.922L37.9347 110.818H43.1378ZM49.3604 137V133.011L58.68 124.382C59.4727 123.615 60.1374 122.925 60.6744 122.311C61.2198 121.697 61.6332 121.097 61.9144 120.509C62.1957 119.912 62.3363 119.268 62.3363 118.578C62.3363 117.811 62.1616 117.151 61.8121 116.597C61.4627 116.034 60.9854 115.604 60.3803 115.305C59.7752 114.999 59.0891 114.845 58.3221 114.845C57.521 114.845 56.8221 115.007 56.2255 115.331C55.6289 115.655 55.1687 116.119 54.8448 116.724C54.521 117.33 54.359 118.05 54.359 118.885H49.1048C49.1048 117.172 49.4925 115.685 50.2681 114.423C51.0437 113.162 52.1303 112.186 53.5281 111.496C54.9258 110.805 56.5366 110.46 58.3604 110.46C60.2354 110.46 61.8675 110.793 63.2567 111.457C64.6545 112.114 65.7411 113.026 66.5167 114.193C67.2923 115.361 67.68 116.699 67.68 118.207C67.68 119.196 67.484 120.172 67.092 121.135C66.7085 122.098 66.0224 123.168 65.0337 124.344C64.0451 125.511 62.6516 126.913 60.8533 128.55L57.0309 132.295V132.474H68.0252V137H49.3604ZM81.8033 137.358C79.8345 137.358 78.0831 137.038 76.549 136.399C75.0234 135.751 73.826 134.869 72.9567 133.753C72.0874 132.636 71.6527 131.371 71.6527 129.956C71.6527 128.865 71.8999 127.864 72.3942 126.952C72.897 126.031 73.5788 125.268 74.4396 124.663C75.3004 124.05 76.2635 123.658 77.3288 123.487V123.308C75.9311 123.027 74.7976 122.349 73.9283 121.276C73.0589 120.193 72.6243 118.936 72.6243 117.504C72.6243 116.149 73.0206 114.943 73.8132 113.886C74.6058 112.821 75.6925 111.986 77.0732 111.381C78.4624 110.767 80.0391 110.46 81.8033 110.46C83.5675 110.46 85.1399 110.767 86.5206 111.381C87.9098 111.994 89.0007 112.834 89.7933 113.899C90.5859 114.956 90.9865 116.158 90.995 117.504C90.9865 118.945 90.5433 120.202 89.6655 121.276C88.7876 122.349 87.6626 123.027 86.2905 123.308V123.487C87.3388 123.658 88.2891 124.05 89.1413 124.663C90.0021 125.268 90.6839 126.031 91.1868 126.952C91.6982 127.864 91.9581 128.865 91.9666 129.956C91.9581 131.371 91.5192 132.636 90.6499 133.753C89.7805 134.869 88.5788 135.751 87.0447 136.399C85.5192 137.038 83.772 137.358 81.8033 137.358ZM81.8033 133.293C82.6811 133.293 83.4482 133.135 84.1044 132.82C84.7607 132.496 85.272 132.053 85.6385 131.49C86.0135 130.919 86.201 130.263 86.201 129.521C86.201 128.763 86.0092 128.094 85.6257 127.514C85.2422 126.926 84.7223 126.466 84.0661 126.134C83.4098 125.793 82.6555 125.622 81.8033 125.622C80.9595 125.622 80.2053 125.793 79.5405 126.134C78.8757 126.466 78.3516 126.926 77.968 127.514C77.593 128.094 77.4055 128.763 77.4055 129.521C77.4055 130.263 77.5888 130.919 77.9553 131.49C78.3217 132.053 78.8374 132.496 79.5021 132.82C80.1669 133.135 80.9339 133.293 81.8033 133.293ZM81.8033 121.595C82.5362 121.595 83.1882 121.446 83.7592 121.148C84.3303 120.849 84.7777 120.436 85.1016 119.908C85.4254 119.379 85.5874 118.77 85.5874 118.08C85.5874 117.398 85.4254 116.801 85.1016 116.29C84.7777 115.77 84.3345 115.365 83.772 115.075C83.2095 114.777 82.5533 114.628 81.8033 114.628C81.0618 114.628 80.4055 114.777 79.8345 115.075C79.2635 115.365 78.8161 115.77 78.4922 116.29C78.1768 116.801 78.0192 117.398 78.0192 118.08C78.0192 118.77 78.1811 119.379 78.505 119.908C78.8288 120.436 79.2763 120.849 79.8473 121.148C80.4183 121.446 81.0703 121.595 81.8033 121.595ZM105.515 137.358C103.605 137.358 101.905 137.03 100.414 136.374C98.9308 135.709 97.7589 134.797 96.8981 133.638C96.0458 132.47 95.6069 131.124 95.5813 129.598H101.155C101.189 130.237 101.398 130.8 101.782 131.286C102.174 131.763 102.694 132.134 103.341 132.398C103.989 132.662 104.718 132.794 105.527 132.794C106.371 132.794 107.117 132.645 107.765 132.347C108.412 132.048 108.919 131.635 109.286 131.107C109.652 130.578 109.836 129.969 109.836 129.278C109.836 128.58 109.64 127.962 109.248 127.425C108.864 126.879 108.31 126.453 107.586 126.146C106.87 125.839 106.017 125.686 105.029 125.686H102.587V121.621H105.029C105.864 121.621 106.601 121.476 107.24 121.186C107.888 120.896 108.391 120.496 108.749 119.984C109.107 119.464 109.286 118.859 109.286 118.169C109.286 117.513 109.128 116.938 108.813 116.443C108.506 115.94 108.071 115.548 107.509 115.267C106.955 114.986 106.307 114.845 105.566 114.845C104.816 114.845 104.13 114.982 103.507 115.254C102.885 115.518 102.387 115.898 102.012 116.392C101.637 116.886 101.436 117.466 101.411 118.131H96.1055C96.131 116.622 96.5614 115.293 97.3967 114.142C98.2319 112.991 99.3569 112.092 100.772 111.445C102.195 110.788 103.801 110.46 105.591 110.46C107.398 110.46 108.979 110.788 110.334 111.445C111.689 112.101 112.742 112.987 113.492 114.104C114.25 115.212 114.625 116.456 114.617 117.837C114.625 119.303 114.169 120.526 113.249 121.506C112.337 122.486 111.148 123.108 109.682 123.372V123.577C111.608 123.824 113.074 124.493 114.08 125.584C115.094 126.666 115.597 128.021 115.588 129.649C115.597 131.141 115.167 132.466 114.297 133.625C113.436 134.784 112.248 135.696 110.73 136.361C109.213 137.026 107.475 137.358 105.515 137.358ZM119.721 137V110.818H125.167V120.662H125.333C125.572 120.134 125.917 119.597 126.369 119.051C126.829 118.497 127.425 118.037 128.158 117.67C128.9 117.295 129.82 117.108 130.92 117.108C132.352 117.108 133.673 117.483 134.883 118.233C136.093 118.974 137.06 120.095 137.785 121.595C138.509 123.087 138.871 124.957 138.871 127.207C138.871 129.398 138.518 131.247 137.81 132.756C137.112 134.256 136.157 135.393 134.947 136.169C133.745 136.936 132.398 137.32 130.907 137.32C129.85 137.32 128.951 137.145 128.21 136.795C127.477 136.446 126.876 136.007 126.407 135.479C125.938 134.942 125.58 134.401 125.333 133.855H125.09V137H119.721ZM125.052 127.182C125.052 128.349 125.214 129.368 125.538 130.237C125.862 131.107 126.33 131.784 126.944 132.27C127.558 132.747 128.303 132.986 129.181 132.986C130.067 132.986 130.817 132.743 131.431 132.257C132.045 131.763 132.509 131.081 132.825 130.212C133.148 129.334 133.31 128.324 133.31 127.182C133.31 126.048 133.153 125.051 132.837 124.19C132.522 123.33 132.058 122.656 131.444 122.17C130.83 121.685 130.076 121.442 129.181 121.442C128.295 121.442 127.545 121.676 126.931 122.145C126.326 122.614 125.862 123.278 125.538 124.139C125.214 125 125.052 126.014 125.052 127.182ZM142.454 137V133.011L151.774 124.382C152.566 123.615 153.231 122.925 153.768 122.311C154.314 121.697 154.727 121.097 155.008 120.509C155.289 119.912 155.43 119.268 155.43 118.578C155.43 117.811 155.255 117.151 154.906 116.597C154.556 116.034 154.079 115.604 153.474 115.305C152.869 114.999 152.183 114.845 151.416 114.845C150.615 114.845 149.916 115.007 149.319 115.331C148.723 115.655 148.262 116.119 147.939 116.724C147.615 117.33 147.453 118.05 147.453 118.885H142.199C142.199 117.172 142.586 115.685 143.362 114.423C144.137 113.162 145.224 112.186 146.622 111.496C148.02 110.805 149.63 110.46 151.454 110.46C153.329 110.46 154.961 110.793 156.35 111.457C157.748 112.114 158.835 113.026 159.61 114.193C160.386 115.361 160.774 116.699 160.774 118.207C160.774 119.196 160.578 120.172 160.186 121.135C159.802 122.098 159.116 123.168 158.127 124.344C157.139 125.511 155.745 126.913 153.947 128.55L150.125 132.295V132.474H161.119V137H142.454ZM174.692 137.358C172.886 137.358 171.275 137.026 169.86 136.361C168.454 135.696 167.337 134.78 166.511 133.612C165.684 132.445 165.254 131.107 165.219 129.598H170.589C170.648 130.612 171.075 131.435 171.867 132.065C172.66 132.696 173.602 133.011 174.692 133.011C175.562 133.011 176.329 132.82 176.994 132.436C177.667 132.044 178.191 131.503 178.566 130.812C178.95 130.114 179.141 129.312 179.141 128.409C179.141 127.489 178.945 126.679 178.553 125.98C178.17 125.281 177.637 124.736 176.955 124.344C176.273 123.952 175.494 123.751 174.616 123.743C173.849 123.743 173.103 123.901 172.379 124.216C171.663 124.531 171.104 124.962 170.704 125.507L165.782 124.625L167.022 110.818H183.028V115.344H171.586L170.908 121.902H171.062C171.522 121.254 172.217 120.717 173.146 120.291C174.075 119.865 175.114 119.652 176.265 119.652C177.842 119.652 179.248 120.023 180.484 120.764C181.719 121.506 182.695 122.524 183.411 123.82C184.127 125.107 184.481 126.589 184.472 128.268C184.481 130.033 184.072 131.601 183.245 132.973C182.427 134.337 181.281 135.411 179.806 136.195C178.34 136.97 176.636 137.358 174.692 137.358ZM187.937 132.398V128.038L198.867 110.818H202.626V116.852H200.401L193.511 127.757V127.962H209.043V132.398H187.937ZM200.504 137V131.068L200.606 129.138V110.818H205.796V137H200.504ZM222.78 137.358C221.433 137.349 220.134 137.124 218.881 136.68C217.636 136.237 216.52 135.517 215.531 134.52C214.543 133.523 213.759 132.202 213.179 130.557C212.608 128.912 212.322 126.892 212.322 124.497C212.331 122.298 212.582 120.334 213.077 118.604C213.58 116.865 214.295 115.391 215.224 114.18C216.162 112.97 217.283 112.05 218.587 111.419C219.891 110.78 221.352 110.46 222.972 110.46C224.719 110.46 226.261 110.801 227.599 111.483C228.938 112.156 230.011 113.072 230.821 114.232C231.639 115.391 232.134 116.69 232.304 118.131H226.845C226.632 117.219 226.185 116.503 225.503 115.983C224.821 115.463 223.977 115.203 222.972 115.203C221.267 115.203 219.972 115.945 219.085 117.428C218.207 118.911 217.76 120.926 217.743 123.474H217.922C218.314 122.699 218.842 122.038 219.507 121.493C220.18 120.939 220.943 120.517 221.795 120.227C222.656 119.929 223.564 119.78 224.518 119.78C226.07 119.78 227.45 120.146 228.661 120.879C229.871 121.604 230.825 122.601 231.524 123.871C232.223 125.141 232.572 126.594 232.572 128.23C232.572 130.003 232.159 131.58 231.332 132.96C230.514 134.341 229.368 135.423 227.893 136.207C226.428 136.983 224.723 137.366 222.78 137.358ZM222.754 133.011C223.607 133.011 224.369 132.807 225.043 132.398C225.716 131.989 226.244 131.435 226.628 130.736C227.011 130.037 227.203 129.253 227.203 128.384C227.203 127.514 227.011 126.734 226.628 126.044C226.253 125.354 225.733 124.804 225.068 124.395C224.403 123.986 223.645 123.781 222.793 123.781C222.153 123.781 221.561 123.901 221.016 124.139C220.479 124.378 220.006 124.71 219.597 125.136C219.196 125.562 218.881 126.057 218.651 126.619C218.42 127.173 218.305 127.766 218.305 128.396C218.305 129.24 218.497 130.011 218.881 130.71C219.273 131.409 219.801 131.967 220.466 132.385C221.139 132.803 221.902 133.011 222.754 133.011Z" fill="white"/>
<path d="M45.188 212.384C43.1767 212.384 41.4466 211.957 39.9977 211.105C38.5574 210.244 37.4494 209.051 36.6738 207.526C35.9068 206 35.5233 204.244 35.5233 202.259C35.5233 200.247 35.911 198.483 36.6866 196.966C37.4707 195.44 38.5829 194.251 40.0233 193.399C41.4636 192.538 43.1767 192.108 45.1625 192.108C46.8755 192.108 48.3755 192.419 49.6625 193.041C50.9494 193.663 51.9679 194.537 52.7179 195.662C53.4679 196.787 53.8812 198.108 53.9579 199.625H48.8187C48.6738 198.645 48.2903 197.857 47.6681 197.26C47.0545 196.655 46.2491 196.352 45.252 196.352C44.4082 196.352 43.671 196.582 43.0403 197.043C42.4181 197.494 41.9324 198.155 41.5829 199.024C41.2335 199.893 41.0588 200.946 41.0588 202.182C41.0588 203.435 41.2292 204.5 41.5701 205.378C41.9196 206.256 42.4096 206.925 43.0403 207.385C43.671 207.845 44.4082 208.075 45.252 208.075C45.8741 208.075 46.4324 207.947 46.9267 207.692C47.4295 207.436 47.8429 207.065 48.1667 206.58C48.4991 206.085 48.7164 205.493 48.8187 204.803H53.9579C53.8727 206.303 53.4636 207.624 52.7306 208.766C52.0062 209.899 51.0048 210.786 49.7264 211.425C48.448 212.064 46.9352 212.384 45.188 212.384ZM68.0044 192.364V196.455H55.8851V192.364H68.0044ZM58.6593 212V190.945C58.6593 189.521 58.9363 188.341 59.4902 187.403C60.0527 186.466 60.8198 185.763 61.7914 185.294C62.763 184.825 63.8667 184.591 65.1025 184.591C65.9377 184.591 66.7005 184.655 67.3908 184.783C68.0897 184.911 68.6096 185.026 68.9505 185.128L67.9789 189.219C67.7658 189.151 67.5016 189.087 67.1863 189.027C66.8794 188.967 66.5641 188.938 66.2402 188.938C65.4391 188.938 64.8809 189.125 64.5655 189.5C64.2502 189.866 64.0925 190.382 64.0925 191.047V212H58.6593ZM81.546 212.575C79.3471 212.567 77.4551 212.026 75.8699 210.952C74.2931 209.878 73.0787 208.322 72.2264 206.286C71.3826 204.249 70.965 201.798 70.9735 198.935C70.9735 196.08 71.3954 193.646 72.2392 191.635C73.0914 189.624 74.3059 188.094 75.8826 187.045C77.4679 185.989 79.3556 185.46 81.546 185.46C83.7363 185.46 85.6199 185.989 87.1966 187.045C88.7818 188.102 90.0005 189.636 90.8528 191.648C91.7051 193.651 92.127 196.08 92.1184 198.935C92.1184 201.807 91.6923 204.261 90.84 206.298C89.9963 208.335 88.786 209.891 87.2093 210.964C85.6326 212.038 83.7449 212.575 81.546 212.575ZM81.546 207.986C83.046 207.986 84.2434 207.232 85.1383 205.723C86.0332 204.214 86.4764 201.952 86.4679 198.935C86.4679 196.949 86.2633 195.295 85.8542 193.974C85.4537 192.653 84.8826 191.661 84.1412 190.996C83.4082 190.331 82.5431 189.999 81.546 189.999C80.0545 189.999 78.8613 190.744 77.9664 192.236C77.0716 193.727 76.6199 195.96 76.6113 198.935C76.6113 200.946 76.8116 202.625 77.2122 203.972C77.6213 205.31 78.1966 206.315 78.938 206.989C79.6795 207.653 80.5488 207.986 81.546 207.986ZM104.989 212.384C102.977 212.384 101.247 211.957 99.7985 211.105C98.3581 210.244 97.2502 209.051 96.4746 207.526C95.7076 206 95.324 204.244 95.324 202.259C95.324 200.247 95.7118 198.483 96.4874 196.966C97.2715 195.44 98.3837 194.251 99.824 193.399C101.264 192.538 102.977 192.108 104.963 192.108C106.676 192.108 108.176 192.419 109.463 193.041C110.75 193.663 111.769 194.537 112.519 195.662C113.269 196.787 113.682 198.108 113.759 199.625H108.619C108.475 198.645 108.091 197.857 107.469 197.26C106.855 196.655 106.05 196.352 105.053 196.352C104.209 196.352 103.472 196.582 102.841 197.043C102.219 197.494 101.733 198.155 101.384 199.024C101.034 199.893 100.86 200.946 100.86 202.182C100.86 203.435 101.03 204.5 101.371 205.378C101.72 206.256 102.21 206.925 102.841 207.385C103.472 207.845 104.209 208.075 105.053 208.075C105.675 208.075 106.233 207.947 106.727 207.692C107.23 207.436 107.644 207.065 107.968 206.58C108.3 206.085 108.517 205.493 108.619 204.803H113.759C113.673 206.303 113.264 207.624 112.531 208.766C111.807 209.899 110.806 210.786 109.527 211.425C108.249 212.064 106.736 212.384 104.989 212.384ZM122.845 212.371C121.592 212.371 120.476 212.153 119.496 211.719C118.515 211.276 117.74 210.624 117.169 209.763C116.606 208.893 116.325 207.811 116.325 206.516C116.325 205.425 116.525 204.509 116.926 203.767C117.327 203.026 117.872 202.429 118.562 201.977C119.253 201.526 120.037 201.185 120.915 200.955C121.801 200.724 122.73 200.562 123.702 200.469C124.844 200.349 125.764 200.239 126.463 200.136C127.162 200.026 127.669 199.864 127.984 199.651C128.3 199.437 128.457 199.122 128.457 198.705V198.628C128.457 197.818 128.202 197.192 127.69 196.749C127.187 196.305 126.471 196.084 125.542 196.084C124.562 196.084 123.782 196.301 123.203 196.736C122.623 197.162 122.24 197.699 122.052 198.347L117.015 197.938C117.271 196.744 117.774 195.713 118.524 194.844C119.274 193.966 120.241 193.293 121.426 192.824C122.619 192.347 124 192.108 125.568 192.108C126.659 192.108 127.703 192.236 128.7 192.491C129.706 192.747 130.596 193.143 131.372 193.68C132.156 194.217 132.774 194.908 133.226 195.751C133.677 196.587 133.903 197.588 133.903 198.756V212H128.738V209.277H128.585C128.27 209.891 127.848 210.432 127.319 210.901C126.791 211.361 126.156 211.723 125.415 211.987C124.673 212.243 123.817 212.371 122.845 212.371ZM124.405 208.612C125.206 208.612 125.913 208.455 126.527 208.139C127.14 207.815 127.622 207.381 127.971 206.835C128.321 206.29 128.496 205.672 128.496 204.982V202.898C128.325 203.009 128.091 203.111 127.792 203.205C127.503 203.29 127.175 203.371 126.808 203.447C126.442 203.516 126.075 203.58 125.709 203.639C125.342 203.69 125.01 203.737 124.711 203.78C124.072 203.874 123.514 204.023 123.037 204.227C122.559 204.432 122.189 204.709 121.925 205.058C121.66 205.399 121.528 205.825 121.528 206.337C121.528 207.078 121.797 207.645 122.334 208.037C122.879 208.42 123.569 208.612 124.405 208.612ZM145.364 212.32C143.873 212.32 142.522 211.936 141.312 211.169C140.11 210.393 139.155 209.256 138.448 207.756C137.749 206.247 137.4 204.398 137.4 202.207C137.4 199.957 137.762 198.087 138.486 196.595C139.211 195.095 140.174 193.974 141.376 193.233C142.586 192.483 143.911 192.108 145.351 192.108C146.451 192.108 147.367 192.295 148.1 192.67C148.841 193.037 149.438 193.497 149.89 194.051C150.35 194.597 150.699 195.134 150.938 195.662H151.104V185.818H156.537V212H151.168V208.855H150.938C150.682 209.401 150.32 209.942 149.851 210.479C149.391 211.007 148.79 211.446 148.049 211.795C147.316 212.145 146.421 212.32 145.364 212.32ZM147.09 207.986C147.968 207.986 148.709 207.747 149.314 207.27C149.928 206.784 150.397 206.107 150.721 205.237C151.053 204.368 151.219 203.349 151.219 202.182C151.219 201.014 151.057 200 150.733 199.139C150.41 198.278 149.941 197.614 149.327 197.145C148.714 196.676 147.968 196.442 147.09 196.442C146.195 196.442 145.441 196.685 144.827 197.17C144.214 197.656 143.749 198.33 143.434 199.19C143.118 200.051 142.961 201.048 142.961 202.182C142.961 203.324 143.118 204.334 143.434 205.212C143.758 206.081 144.222 206.763 144.827 207.257C145.441 207.743 146.195 207.986 147.09 207.986ZM170.642 212.358C168.732 212.358 167.032 212.03 165.541 211.374C164.058 210.709 162.886 209.797 162.025 208.638C161.173 207.47 160.734 206.124 160.708 204.598H166.282C166.316 205.237 166.525 205.8 166.909 206.286C167.301 206.763 167.82 207.134 168.468 207.398C169.116 207.662 169.845 207.794 170.654 207.794C171.498 207.794 172.244 207.645 172.892 207.347C173.539 207.048 174.046 206.635 174.413 206.107C174.779 205.578 174.963 204.969 174.963 204.278C174.963 203.58 174.767 202.962 174.374 202.425C173.991 201.879 173.437 201.453 172.713 201.146C171.997 200.839 171.144 200.686 170.156 200.686H167.714V196.621H170.156C170.991 196.621 171.728 196.476 172.367 196.186C173.015 195.896 173.518 195.496 173.876 194.984C174.234 194.464 174.413 193.859 174.413 193.169C174.413 192.513 174.255 191.938 173.94 191.443C173.633 190.94 173.198 190.548 172.636 190.267C172.082 189.986 171.434 189.845 170.693 189.845C169.943 189.845 169.257 189.982 168.634 190.254C168.012 190.518 167.514 190.898 167.139 191.392C166.764 191.886 166.563 192.466 166.538 193.131H161.232C161.258 191.622 161.688 190.293 162.524 189.142C163.359 187.991 164.484 187.092 165.899 186.445C167.322 185.788 168.928 185.46 170.718 185.46C172.525 185.46 174.106 185.788 175.461 186.445C176.816 187.101 177.869 187.987 178.619 189.104C179.377 190.212 179.752 191.456 179.744 192.837C179.752 194.303 179.296 195.526 178.376 196.506C177.464 197.486 176.275 198.108 174.809 198.372V198.577C176.735 198.824 178.201 199.493 179.207 200.584C180.221 201.666 180.724 203.021 180.715 204.649C180.724 206.141 180.294 207.466 179.424 208.625C178.563 209.784 177.374 210.696 175.857 211.361C174.34 212.026 172.602 212.358 170.642 212.358ZM184.298 207.398V203.038L195.229 185.818H198.987V191.852H196.763L189.872 202.757V202.962H205.405V207.398H184.298ZM196.865 212V206.068L196.967 204.138V185.818H202.157V212H196.865ZM209.246 212V185.818H214.692V195.662H214.858C215.097 195.134 215.442 194.597 215.894 194.051C216.354 193.497 216.951 193.037 217.684 192.67C218.425 192.295 219.346 192.108 220.445 192.108C221.877 192.108 223.198 192.483 224.408 193.233C225.618 193.974 226.586 195.095 227.31 196.595C228.035 198.087 228.397 199.957 228.397 202.207C228.397 204.398 228.043 206.247 227.336 207.756C226.637 209.256 225.682 210.393 224.472 211.169C223.27 211.936 221.924 212.32 220.432 212.32C219.376 212.32 218.476 212.145 217.735 211.795C217.002 211.446 216.401 211.007 215.932 210.479C215.464 209.942 215.106 209.401 214.858 208.855H214.616V212H209.246ZM214.577 202.182C214.577 203.349 214.739 204.368 215.063 205.237C215.387 206.107 215.856 206.784 216.469 207.27C217.083 207.747 217.829 207.986 218.706 207.986C219.593 207.986 220.343 207.743 220.956 207.257C221.57 206.763 222.035 206.081 222.35 205.212C222.674 204.334 222.836 203.324 222.836 202.182C222.836 201.048 222.678 200.051 222.363 199.19C222.047 198.33 221.583 197.656 220.969 197.17C220.356 196.685 219.601 196.442 218.706 196.442C217.82 196.442 217.07 196.676 216.456 197.145C215.851 197.614 215.387 198.278 215.063 199.139C214.739 200 214.577 201.014 214.577 202.182Z" fill="white"/>
<path d="M40.9581 287.384C38.9382 287.384 37.1996 286.974 35.7422 286.156C34.2933 285.33 33.1768 284.162 32.3928 282.653C31.6087 281.136 31.2166 279.342 31.2166 277.271C31.2166 275.251 31.6087 273.479 32.3928 271.953C33.1768 270.428 34.2805 269.239 35.7038 268.386C37.1357 267.534 38.8146 267.108 40.7408 267.108C42.0362 267.108 43.2422 267.317 44.3587 267.734C45.4837 268.143 46.4638 268.761 47.299 269.588C48.1428 270.415 48.799 271.455 49.2678 272.707C49.7365 273.952 49.9709 275.409 49.9709 277.08V278.575H33.3899V275.2H44.8445C44.8445 274.416 44.674 273.722 44.3331 273.116C43.9922 272.511 43.5192 272.038 42.9141 271.697C42.3175 271.348 41.6229 271.173 40.8303 271.173C40.0036 271.173 39.2706 271.365 38.6314 271.749C38.0007 272.124 37.5064 272.631 37.1484 273.27C36.7905 273.901 36.6072 274.604 36.5987 275.379V278.588C36.5987 279.56 36.7777 280.399 37.1357 281.107C37.5021 281.814 38.0178 282.359 38.6825 282.743C39.3473 283.126 40.1357 283.318 41.0476 283.318C41.6527 283.318 42.2067 283.233 42.7095 283.062C43.2124 282.892 43.6428 282.636 44.0007 282.295C44.3587 281.955 44.6314 281.537 44.8189 281.043L49.8558 281.375C49.6001 282.585 49.076 283.642 48.2834 284.545C47.4993 285.44 46.4851 286.139 45.2408 286.642C44.005 287.136 42.5774 287.384 40.9581 287.384ZM62.4737 287.384C60.4538 287.384 58.7152 286.974 57.2578 286.156C55.8089 285.33 54.6925 284.162 53.9084 282.653C53.1243 281.136 52.7322 279.342 52.7322 277.271C52.7322 275.251 53.1243 273.479 53.9084 271.953C54.6925 270.428 55.7962 269.239 57.2195 268.386C58.6513 267.534 60.3303 267.108 62.2564 267.108C63.5518 267.108 64.7578 267.317 65.8743 267.734C66.9993 268.143 67.9794 268.761 68.8146 269.588C69.6584 270.415 70.3146 271.455 70.7834 272.707C71.2521 273.952 71.4865 275.409 71.4865 277.08V278.575H54.9055V275.2H66.3601C66.3601 274.416 66.1896 273.722 65.8487 273.116C65.5078 272.511 65.0348 272.038 64.4297 271.697C63.8331 271.348 63.1385 271.173 62.3459 271.173C61.5192 271.173 60.7862 271.365 60.147 271.749C59.5163 272.124 59.022 272.631 58.6641 273.27C58.3061 273.901 58.1229 274.604 58.1143 275.379V278.588C58.1143 279.56 58.2933 280.399 58.6513 281.107C59.0178 281.814 59.5334 282.359 60.1982 282.743C60.8629 283.126 61.6513 283.318 62.5632 283.318C63.1683 283.318 63.7223 283.233 64.2251 283.062C64.728 282.892 65.1584 282.636 65.5163 282.295C65.8743 281.955 66.147 281.537 66.3345 281.043L71.3715 281.375C71.1158 282.585 70.5916 283.642 69.799 284.545C69.0149 285.44 68.0007 286.139 66.7564 286.642C65.5206 287.136 64.093 287.384 62.4737 287.384ZM85.6001 267.364V271.455H73.4808V267.364H85.6001ZM76.255 287V265.945C76.255 264.521 76.532 263.341 77.0859 262.403C77.6484 261.466 78.4155 260.763 79.3871 260.294C80.3587 259.825 81.4624 259.591 82.6982 259.591C83.5334 259.591 84.2962 259.655 84.9865 259.783C85.6854 259.911 86.2053 260.026 86.5462 260.128L85.5746 264.219C85.3615 264.151 85.0973 264.087 84.782 264.027C84.4751 263.967 84.1598 263.938 83.8359 263.938C83.0348 263.938 82.4766 264.125 82.1612 264.5C81.8459 264.866 81.6882 265.382 81.6882 266.047V287H76.255ZM97.1729 287.384C95.1531 287.384 93.4144 286.974 91.957 286.156C90.5082 285.33 89.3917 284.162 88.6076 282.653C87.8235 281.136 87.4315 279.342 87.4315 277.271C87.4315 275.251 87.8235 273.479 88.6076 271.953C89.3917 270.428 90.4954 269.239 91.9187 268.386C93.3505 267.534 95.0295 267.108 96.9556 267.108C98.2511 267.108 99.457 267.317 100.574 267.734C101.699 268.143 102.679 268.761 103.514 269.588C104.358 270.415 105.014 271.455 105.483 272.707C105.951 273.952 106.186 275.409 106.186 277.08V278.575H89.6048V275.2H101.059C101.059 274.416 100.889 273.722 100.548 273.116C100.207 272.511 99.734 272.038 99.1289 271.697C98.5323 271.348 97.8377 271.173 97.0451 271.173C96.2184 271.173 95.4854 271.365 94.8462 271.749C94.2156 272.124 93.7212 272.631 93.3633 273.27C93.0053 273.901 92.8221 274.604 92.8136 275.379V278.588C92.8136 279.56 92.9925 280.399 93.3505 281.107C93.717 281.814 94.2326 282.359 94.8974 282.743C95.5621 283.126 96.3505 283.318 97.2624 283.318C97.8675 283.318 98.4215 283.233 98.9244 283.062C99.4272 282.892 99.8576 282.636 100.216 282.295C100.574 281.955 100.846 281.537 101.034 281.043L106.071 281.375C105.815 282.585 105.291 283.642 104.498 284.545C103.714 285.44 102.7 286.139 101.456 286.642C100.22 287.136 98.7923 287.384 97.1729 287.384ZM109.842 287V260.818H115.288V270.662H115.454C115.693 270.134 116.038 269.597 116.49 269.051C116.95 268.497 117.547 268.037 118.279 267.67C119.021 267.295 119.941 267.108 121.041 267.108C122.473 267.108 123.794 267.483 125.004 268.233C126.214 268.974 127.181 270.095 127.906 271.595C128.63 273.087 128.993 274.957 128.993 277.207C128.993 279.398 128.639 281.247 127.931 282.756C127.233 284.256 126.278 285.393 125.068 286.169C123.866 286.936 122.52 287.32 121.028 287.32C119.971 287.32 119.072 287.145 118.331 286.795C117.598 286.446 116.997 286.007 116.528 285.479C116.059 284.942 115.701 284.401 115.454 283.855H115.211V287H109.842ZM115.173 277.182C115.173 278.349 115.335 279.368 115.659 280.237C115.983 281.107 116.451 281.784 117.065 282.27C117.679 282.747 118.424 282.986 119.302 282.986C120.189 282.986 120.939 282.743 121.552 282.257C122.166 281.763 122.63 281.081 122.946 280.212C123.27 279.334 123.431 278.324 123.431 277.182C123.431 276.048 123.274 275.051 122.958 274.19C122.643 273.33 122.179 272.656 121.565 272.17C120.951 271.685 120.197 271.442 119.302 271.442C118.416 271.442 117.666 271.676 117.052 272.145C116.447 272.614 115.983 273.278 115.659 274.139C115.335 275 115.173 276.014 115.173 277.182ZM143.966 260.818V287H138.43V266.072H138.277L132.281 269.831V264.922L138.763 260.818H143.966ZM160.237 287.358C158.89 287.349 157.591 287.124 156.338 286.68C155.093 286.237 153.977 285.517 152.988 284.52C152 283.523 151.216 282.202 150.636 280.557C150.065 278.912 149.779 276.892 149.779 274.497C149.788 272.298 150.039 270.334 150.534 268.604C151.037 266.865 151.752 265.391 152.681 264.18C153.619 262.97 154.74 262.05 156.044 261.419C157.348 260.78 158.809 260.46 160.429 260.46C162.176 260.46 163.718 260.801 165.056 261.483C166.395 262.156 167.468 263.072 168.278 264.232C169.096 265.391 169.591 266.69 169.761 268.131H164.302C164.089 267.219 163.642 266.503 162.96 265.983C162.278 265.463 161.434 265.203 160.429 265.203C158.724 265.203 157.429 265.945 156.542 267.428C155.664 268.911 155.217 270.926 155.2 273.474H155.379C155.771 272.699 156.299 272.038 156.964 271.493C157.637 270.939 158.4 270.517 159.252 270.227C160.113 269.929 161.021 269.78 161.975 269.78C163.527 269.78 164.907 270.146 166.118 270.879C167.328 271.604 168.282 272.601 168.981 273.871C169.68 275.141 170.029 276.594 170.029 278.23C170.029 280.003 169.616 281.58 168.789 282.96C167.971 284.341 166.825 285.423 165.35 286.207C163.885 286.983 162.18 287.366 160.237 287.358ZM160.211 283.011C161.064 283.011 161.826 282.807 162.5 282.398C163.173 281.989 163.701 281.435 164.085 280.736C164.468 280.037 164.66 279.253 164.66 278.384C164.66 277.514 164.468 276.734 164.085 276.044C163.71 275.354 163.19 274.804 162.525 274.395C161.86 273.986 161.102 273.781 160.25 273.781C159.61 273.781 159.018 273.901 158.473 274.139C157.936 274.378 157.463 274.71 157.054 275.136C156.653 275.562 156.338 276.057 156.108 276.619C155.877 277.173 155.762 277.766 155.762 278.396C155.762 279.24 155.954 280.011 156.338 280.71C156.73 281.409 157.258 281.967 157.923 282.385C158.596 282.803 159.359 283.011 160.211 283.011ZM183.517 287.358C181.71 287.358 180.099 287.026 178.684 286.361C177.278 285.696 176.162 284.78 175.335 283.612C174.508 282.445 174.078 281.107 174.044 279.598H179.413C179.473 280.612 179.899 281.435 180.691 282.065C181.484 282.696 182.426 283.011 183.517 283.011C184.386 283.011 185.153 282.82 185.818 282.436C186.491 282.044 187.015 281.503 187.39 280.812C187.774 280.114 187.966 279.312 187.966 278.409C187.966 277.489 187.77 276.679 187.377 275.98C186.994 275.281 186.461 274.736 185.779 274.344C185.098 273.952 184.318 273.751 183.44 273.743C182.673 273.743 181.927 273.901 181.203 274.216C180.487 274.531 179.929 274.962 179.528 275.507L174.606 274.625L175.846 260.818H191.852V265.344H180.41L179.733 271.902H179.886C180.346 271.254 181.041 270.717 181.97 270.291C182.899 269.865 183.939 269.652 185.089 269.652C186.666 269.652 188.072 270.023 189.308 270.764C190.544 271.506 191.52 272.524 192.235 273.82C192.951 275.107 193.305 276.589 193.297 278.268C193.305 280.033 192.896 281.601 192.069 282.973C191.251 284.337 190.105 285.411 188.63 286.195C187.164 286.97 185.46 287.358 183.517 287.358ZM206.157 287.384C204.137 287.384 202.399 286.974 200.941 286.156C199.493 285.33 198.376 284.162 197.592 282.653C196.808 281.136 196.416 279.342 196.416 277.271C196.416 275.251 196.808 273.479 197.592 271.953C198.376 270.428 199.48 269.239 200.903 268.386C202.335 267.534 204.014 267.108 205.94 267.108C207.235 267.108 208.441 267.317 209.558 267.734C210.683 268.143 211.663 268.761 212.498 269.588C213.342 270.415 213.998 271.455 214.467 272.707C214.936 273.952 215.17 275.409 215.17 277.08V278.575H198.589V275.2H210.044C210.044 274.416 209.873 273.722 209.532 273.116C209.191 272.511 208.718 272.038 208.113 271.697C207.517 271.348 206.822 271.173 206.029 271.173C205.203 271.173 204.47 271.365 203.831 271.749C203.2 272.124 202.706 272.631 202.348 273.27C201.99 273.901 201.806 274.604 201.798 275.379V278.588C201.798 279.56 201.977 280.399 202.335 281.107C202.701 281.814 203.217 282.359 203.882 282.743C204.547 283.126 205.335 283.318 206.247 283.318C206.852 283.318 207.406 283.233 207.909 283.062C208.412 282.892 208.842 282.636 209.2 282.295C209.558 281.955 209.831 281.537 210.018 281.043L215.055 281.375C214.799 282.585 214.275 283.642 213.483 284.545C212.699 285.44 211.684 286.139 210.44 286.642C209.204 287.136 207.777 287.384 206.157 287.384ZM230.064 260.818V287H224.528V266.072H224.375L218.379 269.831V264.922L224.86 260.818H230.064Z" fill="white"/>
<path d="M51.9189 362.358C50.0098 362.358 48.3095 362.03 46.818 361.374C45.335 360.709 44.1632 359.797 43.3024 358.638C42.4501 357.47 42.0112 356.124 41.9856 354.598H47.5595C47.5936 355.237 47.8024 355.8 48.1859 356.286C48.5779 356.763 49.0978 357.134 49.7456 357.398C50.3933 357.662 51.122 357.794 51.9316 357.794C52.7754 357.794 53.5211 357.645 54.1689 357.347C54.8166 357.048 55.3237 356.635 55.6902 356.107C56.0566 355.578 56.2399 354.969 56.2399 354.278C56.2399 353.58 56.0439 352.962 55.6518 352.425C55.2683 351.879 54.7143 351.453 53.9899 351.146C53.274 350.839 52.4217 350.686 51.4331 350.686H48.9913V346.621H51.4331C52.2683 346.621 53.0055 346.476 53.6447 346.186C54.2924 345.896 54.7953 345.496 55.1532 344.984C55.5112 344.464 55.6902 343.859 55.6902 343.169C55.6902 342.513 55.5325 341.938 55.2172 341.443C54.9103 340.94 54.4757 340.548 53.9132 340.267C53.3592 339.986 52.7115 339.845 51.97 339.845C51.22 339.845 50.5339 339.982 49.9118 340.254C49.2896 340.518 48.791 340.898 48.416 341.392C48.041 341.886 47.8407 342.466 47.8152 343.131H42.5098C42.5353 341.622 42.9657 340.293 43.801 339.142C44.6362 337.991 45.7612 337.092 47.176 336.445C48.5993 335.788 50.2058 335.46 51.9956 335.46C53.8024 335.46 55.3833 335.788 56.7385 336.445C58.0936 337.101 59.1461 337.987 59.8961 339.104C60.6547 340.212 61.0297 341.456 61.0211 342.837C61.0297 344.303 60.5737 345.526 59.6532 346.506C58.7413 347.486 57.5524 348.108 56.0865 348.372V348.577C58.0126 348.824 59.4785 349.493 60.4842 350.584C61.4984 351.666 62.0012 353.021 61.9927 354.649C62.0012 356.141 61.5708 357.466 60.7015 358.625C59.8407 359.784 58.6518 360.696 57.1348 361.361C55.6177 362.026 53.8791 362.358 51.9189 362.358ZM65.5755 357.398V353.038L76.5059 335.818H80.2644V341.852H78.04L71.1493 352.757V352.962H86.682V357.398H65.5755ZM78.1422 362V356.068L78.2445 354.138V335.818H83.4348V362H78.1422ZM100.981 342.364V346.455H88.8617V342.364H100.981ZM91.6358 362V340.945C91.6358 339.521 91.9128 338.341 92.4668 337.403C93.0293 336.466 93.7963 335.763 94.7679 335.294C95.7395 334.825 96.8432 334.591 98.079 334.591C98.9142 334.591 99.677 334.655 100.367 334.783C101.066 334.911 101.586 335.026 101.927 335.128L100.955 339.219C100.742 339.151 100.478 339.087 100.163 339.027C99.856 338.967 99.5407 338.938 99.2168 338.938C98.4157 338.938 97.8574 339.125 97.5421 339.5C97.2267 339.866 97.0691 340.382 97.0691 341.047V362H91.6358ZM115.648 335.818V362H110.112V341.072H109.959L103.963 344.831V339.922L110.444 335.818H115.648ZM131.433 362.358C129.626 362.358 128.015 362.026 126.6 361.361C125.194 360.696 124.078 359.78 123.251 358.612C122.424 357.445 121.994 356.107 121.96 354.598H127.329C127.389 355.612 127.815 356.435 128.607 357.065C129.4 357.696 130.342 358.011 131.433 358.011C132.302 358.011 133.069 357.82 133.734 357.436C134.407 357.044 134.931 356.503 135.306 355.812C135.69 355.114 135.882 354.312 135.882 353.409C135.882 352.489 135.686 351.679 135.294 350.98C134.91 350.281 134.377 349.736 133.695 349.344C133.014 348.952 132.234 348.751 131.356 348.743C130.589 348.743 129.843 348.901 129.119 349.216C128.403 349.531 127.845 349.962 127.444 350.507L122.522 349.625L123.762 335.818H139.768V340.344H128.326L127.649 346.902H127.802C128.262 346.254 128.957 345.717 129.886 345.291C130.815 344.865 131.855 344.652 133.005 344.652C134.582 344.652 135.988 345.023 137.224 345.764C138.46 346.506 139.436 347.524 140.151 348.82C140.867 350.107 141.221 351.589 141.213 353.268C141.221 355.033 140.812 356.601 139.985 357.973C139.167 359.337 138.021 360.411 136.546 361.195C135.08 361.97 133.376 362.358 131.433 362.358ZM155.684 342.364V346.455H143.565V342.364H155.684ZM146.339 362V340.945C146.339 339.521 146.616 338.341 147.17 337.403C147.732 336.466 148.499 335.763 149.471 335.294C150.443 334.825 151.546 334.591 152.782 334.591C153.617 334.591 154.38 334.655 155.07 334.783C155.769 334.911 156.289 335.026 156.63 335.128L155.659 339.219C155.445 339.151 155.181 339.087 154.866 339.027C154.559 338.967 154.244 338.938 153.92 338.938C153.119 338.938 152.561 339.125 152.245 339.5C151.93 339.866 151.772 340.382 151.772 341.047V362H146.339ZM167.18 362.384C165.169 362.384 163.439 361.957 161.99 361.105C160.55 360.244 159.442 359.051 158.666 357.526C157.899 356 157.515 354.244 157.515 352.259C157.515 350.247 157.903 348.483 158.679 346.966C159.463 345.44 160.575 344.251 162.015 343.399C163.456 342.538 165.169 342.108 167.155 342.108C168.868 342.108 170.368 342.419 171.655 343.041C172.942 343.663 173.96 344.537 174.71 345.662C175.46 346.787 175.873 348.108 175.95 349.625H170.811C170.666 348.645 170.282 347.857 169.66 347.26C169.047 346.655 168.241 346.352 167.244 346.352C166.4 346.352 165.663 346.582 165.032 347.043C164.41 347.494 163.925 348.155 163.575 349.024C163.226 349.893 163.051 350.946 163.051 352.182C163.051 353.435 163.221 354.5 163.562 355.378C163.912 356.256 164.402 356.925 165.032 357.385C165.663 357.845 166.4 358.075 167.244 358.075C167.866 358.075 168.425 357.947 168.919 357.692C169.422 357.436 169.835 357.065 170.159 356.58C170.491 356.085 170.709 355.493 170.811 354.803H175.95C175.865 356.303 175.456 357.624 174.723 358.766C173.998 359.899 172.997 360.786 171.719 361.425C170.44 362.064 168.927 362.384 167.18 362.384ZM186.673 362.32C185.181 362.32 183.83 361.936 182.62 361.169C181.419 360.393 180.464 359.256 179.757 357.756C179.058 356.247 178.708 354.398 178.708 352.207C178.708 349.957 179.07 348.087 179.795 346.595C180.519 345.095 181.482 343.974 182.684 343.233C183.894 342.483 185.22 342.108 186.66 342.108C187.759 342.108 188.676 342.295 189.409 342.67C190.15 343.037 190.747 343.497 191.198 344.051C191.659 344.597 192.008 345.134 192.247 345.662H192.413V335.818H197.846V362H192.477V358.855H192.247C191.991 359.401 191.629 359.942 191.16 360.479C190.7 361.007 190.099 361.446 189.357 361.795C188.624 362.145 187.73 362.32 186.673 362.32ZM188.399 357.986C189.276 357.986 190.018 357.747 190.623 357.27C191.237 356.784 191.705 356.107 192.029 355.237C192.362 354.368 192.528 353.349 192.528 352.182C192.528 351.014 192.366 350 192.042 349.139C191.718 348.278 191.249 347.614 190.636 347.145C190.022 346.676 189.276 346.442 188.399 346.442C187.504 346.442 186.749 346.685 186.136 347.17C185.522 347.656 185.058 348.33 184.742 349.19C184.427 350.051 184.269 351.048 184.269 352.182C184.269 353.324 184.427 354.334 184.742 355.212C185.066 356.081 185.531 356.763 186.136 357.257C186.749 357.743 187.504 357.986 188.399 357.986ZM211.95 362.358C210.041 362.358 208.341 362.03 206.849 361.374C205.366 360.709 204.194 359.797 203.334 358.638C202.481 357.47 202.042 356.124 202.017 354.598H207.591C207.625 355.237 207.834 355.8 208.217 356.286C208.609 356.763 209.129 357.134 209.777 357.398C210.425 357.662 211.153 357.794 211.963 357.794C212.807 357.794 213.552 357.645 214.2 357.347C214.848 357.048 215.355 356.635 215.721 356.107C216.088 355.578 216.271 354.969 216.271 354.278C216.271 353.58 216.075 352.962 215.683 352.425C215.3 351.879 214.746 351.453 214.021 351.146C213.305 350.839 212.453 350.686 211.464 350.686H209.023V346.621H211.464C212.3 346.621 213.037 346.476 213.676 346.186C214.324 345.896 214.827 345.496 215.184 344.984C215.542 344.464 215.721 343.859 215.721 343.169C215.721 342.513 215.564 341.938 215.248 341.443C214.942 340.94 214.507 340.548 213.944 340.267C213.39 339.986 212.743 339.845 212.001 339.845C211.251 339.845 210.565 339.982 209.943 340.254C209.321 340.518 208.822 340.898 208.447 341.392C208.072 341.886 207.872 342.466 207.846 343.131H202.541C202.567 341.622 202.997 340.293 203.832 339.142C204.667 337.991 205.792 337.092 207.207 336.445C208.631 335.788 210.237 335.46 212.027 335.46C213.834 335.46 215.415 335.788 216.77 336.445C218.125 337.101 219.177 337.987 219.927 339.104C220.686 340.212 221.061 341.456 221.052 342.837C221.061 344.303 220.605 345.526 219.684 346.506C218.773 347.486 217.584 348.108 216.118 348.372V348.577C218.044 348.824 219.51 349.493 220.515 350.584C221.53 351.666 222.032 353.021 222.024 354.649C222.032 356.141 221.602 357.466 220.733 358.625C219.872 359.784 218.683 360.696 217.166 361.361C215.649 362.026 213.91 362.358 211.95 362.358Z" fill="white"/>
<path d="M43.5165 436.358C41.6074 436.358 39.9071 436.03 38.4157 435.374C36.9327 434.709 35.7608 433.797 34.9 432.638C34.0478 431.47 33.6088 430.124 33.5833 428.598H39.1571C39.1912 429.237 39.4 429.8 39.7836 430.286C40.1756 430.763 40.6955 431.134 41.3432 431.398C41.9909 431.662 42.7196 431.794 43.5293 431.794C44.373 431.794 45.1188 431.645 45.7665 431.347C46.4142 431.048 46.9213 430.635 47.2878 430.107C47.6543 429.578 47.8375 428.969 47.8375 428.278C47.8375 427.58 47.6415 426.962 47.2495 426.425C46.8659 425.879 46.312 425.453 45.5875 425.146C44.8716 424.839 44.0194 424.686 43.0307 424.686H40.589V420.621H43.0307C43.8659 420.621 44.6032 420.476 45.2424 420.186C45.8901 419.896 46.3929 419.496 46.7509 418.984C47.1088 418.464 47.2878 417.859 47.2878 417.169C47.2878 416.513 47.1301 415.938 46.8148 415.443C46.508 414.94 46.0733 414.548 45.5108 414.267C44.9569 413.986 44.3091 413.845 43.5676 413.845C42.8176 413.845 42.1316 413.982 41.5094 414.254C40.8873 414.518 40.3887 414.898 40.0137 415.392C39.6387 415.886 39.4384 416.466 39.4128 417.131H34.1074C34.133 415.622 34.5634 414.293 35.3986 413.142C36.2338 411.991 37.3588 411.092 38.7736 410.445C40.1969 409.788 41.8034 409.46 43.5932 409.46C45.4 409.46 46.981 409.788 48.3361 410.445C49.6912 411.101 50.7438 411.987 51.4938 413.104C52.2523 414.212 52.6273 415.456 52.6188 416.837C52.6273 418.303 52.1713 419.526 51.2509 420.506C50.339 421.486 49.15 422.108 47.6841 422.372V422.577C49.6103 422.824 51.0762 423.493 52.0819 424.584C53.0961 425.666 53.5989 427.021 53.5904 428.649C53.5989 430.141 53.1685 431.466 52.2992 432.625C51.4384 433.784 50.2495 434.696 48.7324 435.361C47.2154 436.026 45.4767 436.358 43.5165 436.358ZM67.8351 436.575C65.6362 436.567 63.7441 436.026 62.1589 434.952C60.5822 433.878 59.3677 432.322 58.5154 430.286C57.6717 428.249 57.2541 425.798 57.2626 422.935C57.2626 420.08 57.6845 417.646 58.5282 415.635C59.3805 413.624 60.595 412.094 62.1717 411.045C63.7569 409.989 65.6447 409.46 67.8351 409.46C70.0254 409.46 71.9089 409.989 73.4856 411.045C75.0708 412.102 76.2896 413.636 77.1419 415.648C77.9941 417.651 78.416 420.08 78.4075 422.935C78.4075 425.807 77.9814 428.261 77.1291 430.298C76.2853 432.335 75.0751 433.891 73.4984 434.964C71.9217 436.038 70.0339 436.575 67.8351 436.575ZM67.8351 431.986C69.3351 431.986 70.5325 431.232 71.4274 429.723C72.3223 428.214 72.7654 425.952 72.7569 422.935C72.7569 420.949 72.5524 419.295 72.1433 417.974C71.7427 416.653 71.1717 415.661 70.4302 414.996C69.6973 414.331 68.8322 413.999 67.8351 413.999C66.3436 413.999 65.1504 414.744 64.2555 416.236C63.3606 417.727 62.9089 419.96 62.9004 422.935C62.9004 424.946 63.1007 426.625 63.5012 427.972C63.9103 429.31 64.4856 430.315 65.2271 430.989C65.9686 431.653 66.8379 431.986 67.8351 431.986ZM91.3546 436.384C89.3347 436.384 87.5961 435.974 86.1387 435.156C84.6898 434.33 83.5733 433.162 82.7892 431.653C82.0051 430.136 81.6131 428.342 81.6131 426.271C81.6131 424.251 82.0051 422.479 82.7892 420.953C83.5733 419.428 84.677 418.239 86.1003 417.386C87.5321 416.534 89.2111 416.108 91.1373 416.108C92.4327 416.108 93.6387 416.317 94.7551 416.734C95.8801 417.143 96.8603 417.761 97.6955 418.588C98.5392 419.415 99.1955 420.455 99.6642 421.707C100.133 422.952 100.367 424.409 100.367 426.08V427.575H83.7864V424.2H95.2409C95.2409 423.416 95.0705 422.722 94.7296 422.116C94.3887 421.511 93.9157 421.038 93.3105 420.697C92.714 420.348 92.0194 420.173 91.2267 420.173C90.4 420.173 89.6671 420.365 89.0279 420.749C88.3972 421.124 87.9029 421.631 87.5449 422.27C87.187 422.901 87.0037 423.604 86.9952 424.379V427.588C86.9952 428.56 87.1742 429.399 87.5321 430.107C87.8986 430.814 88.4142 431.359 89.079 431.743C89.7438 432.126 90.5321 432.318 91.4441 432.318C92.0492 432.318 92.6032 432.233 93.106 432.062C93.6088 431.892 94.0392 431.636 94.3972 431.295C94.7551 430.955 95.0279 430.537 95.2154 430.043L100.252 430.375C99.9966 431.585 99.4725 432.642 98.6799 433.545C97.8958 434.44 96.8816 435.139 95.6373 435.642C94.4015 436.136 92.9739 436.384 91.3546 436.384ZM104.024 436V409.818H109.47V419.662H109.636C109.874 419.134 110.22 418.597 110.671 418.051C111.132 417.497 111.728 417.037 112.461 416.67C113.203 416.295 114.123 416.108 115.222 416.108C116.654 416.108 117.975 416.483 119.186 417.233C120.396 417.974 121.363 419.095 122.088 420.595C122.812 422.087 123.174 423.957 123.174 426.207C123.174 428.398 122.82 430.247 122.113 431.756C121.414 433.256 120.46 434.393 119.249 435.169C118.048 435.936 116.701 436.32 115.21 436.32C114.153 436.32 113.254 436.145 112.512 435.795C111.779 435.446 111.178 435.007 110.71 434.479C110.241 433.942 109.883 433.401 109.636 432.855H109.393V436H104.024ZM109.355 426.182C109.355 427.349 109.517 428.368 109.84 429.237C110.164 430.107 110.633 430.784 111.247 431.27C111.86 431.747 112.606 431.986 113.484 431.986C114.37 431.986 115.12 431.743 115.734 431.257C116.347 430.763 116.812 430.081 117.127 429.212C117.451 428.334 117.613 427.324 117.613 426.182C117.613 425.048 117.455 424.051 117.14 423.19C116.825 422.33 116.36 421.656 115.747 421.17C115.133 420.685 114.379 420.442 113.484 420.442C112.597 420.442 111.847 420.676 111.234 421.145C110.629 421.614 110.164 422.278 109.84 423.139C109.517 424 109.355 425.014 109.355 426.182ZM136.434 436.358C134.525 436.358 132.825 436.03 131.334 435.374C129.851 434.709 128.679 433.797 127.818 432.638C126.966 431.47 126.527 430.124 126.501 428.598H132.075C132.109 429.237 132.318 429.8 132.702 430.286C133.094 430.763 133.613 431.134 134.261 431.398C134.909 431.662 135.638 431.794 136.447 431.794C137.291 431.794 138.037 431.645 138.684 431.347C139.332 431.048 139.839 430.635 140.206 430.107C140.572 429.578 140.756 428.969 140.756 428.278C140.756 427.58 140.559 426.962 140.167 426.425C139.784 425.879 139.23 425.453 138.506 425.146C137.79 424.839 136.937 424.686 135.949 424.686H133.507V420.621H135.949C136.784 420.621 137.521 420.476 138.16 420.186C138.808 419.896 139.311 419.496 139.669 418.984C140.027 418.464 140.206 417.859 140.206 417.169C140.206 416.513 140.048 415.938 139.733 415.443C139.426 414.94 138.991 414.548 138.429 414.267C137.875 413.986 137.227 413.845 136.486 413.845C135.736 413.845 135.05 413.982 134.427 414.254C133.805 414.518 133.307 414.898 132.932 415.392C132.557 415.886 132.356 416.466 132.331 417.131H127.025C127.051 415.622 127.481 414.293 128.317 413.142C129.152 411.991 130.277 411.092 131.692 410.445C133.115 409.788 134.721 409.46 136.511 409.46C138.318 409.46 139.899 409.788 141.254 410.445C142.609 411.101 143.662 411.987 144.412 413.104C145.17 414.212 145.545 415.456 145.537 416.837C145.545 418.303 145.089 419.526 144.169 420.506C143.257 421.486 142.068 422.108 140.602 422.372V422.577C142.528 422.824 143.994 423.493 145 424.584C146.014 425.666 146.517 427.021 146.508 428.649C146.517 430.141 146.086 431.466 145.217 432.625C144.356 433.784 143.167 434.696 141.65 435.361C140.133 436.026 138.395 436.358 136.434 436.358ZM160.536 436.358C159.189 436.349 157.889 436.124 156.637 435.68C155.392 435.237 154.276 434.517 153.287 433.52C152.298 432.523 151.514 431.202 150.935 429.557C150.364 427.912 150.078 425.892 150.078 423.497C150.087 421.298 150.338 419.334 150.833 417.604C151.335 415.865 152.051 414.391 152.98 413.18C153.918 411.97 155.039 411.05 156.343 410.419C157.646 409.78 159.108 409.46 160.727 409.46C162.475 409.46 164.017 409.801 165.355 410.483C166.693 411.156 167.767 412.072 168.577 413.232C169.395 414.391 169.889 415.69 170.06 417.131H164.601C164.388 416.219 163.941 415.503 163.259 414.983C162.577 414.463 161.733 414.203 160.727 414.203C159.023 414.203 157.727 414.945 156.841 416.428C155.963 417.911 155.516 419.926 155.499 422.474H155.678C156.07 421.699 156.598 421.038 157.263 420.493C157.936 419.939 158.699 419.517 159.551 419.227C160.412 418.929 161.32 418.78 162.274 418.78C163.825 418.78 165.206 419.146 166.416 419.879C167.627 420.604 168.581 421.601 169.28 422.871C169.979 424.141 170.328 425.594 170.328 427.23C170.328 429.003 169.915 430.58 169.088 431.96C168.27 433.341 167.124 434.423 165.649 435.207C164.183 435.983 162.479 436.366 160.536 436.358ZM160.51 432.011C161.362 432.011 162.125 431.807 162.798 431.398C163.472 430.989 164 430.435 164.384 429.736C164.767 429.037 164.959 428.253 164.959 427.384C164.959 426.514 164.767 425.734 164.384 425.044C164.009 424.354 163.489 423.804 162.824 423.395C162.159 422.986 161.401 422.781 160.548 422.781C159.909 422.781 159.317 422.901 158.771 423.139C158.235 423.378 157.762 423.71 157.352 424.136C156.952 424.562 156.637 425.057 156.406 425.619C156.176 426.173 156.061 426.766 156.061 427.396C156.061 428.24 156.253 429.011 156.637 429.71C157.029 430.409 157.557 430.967 158.222 431.385C158.895 431.803 159.658 432.011 160.51 432.011ZM185.644 409.818V436H180.108V415.072H179.955L173.959 418.831V413.922L180.441 409.818H185.644ZM200.79 436.384C198.778 436.384 197.048 435.957 195.599 435.105C194.159 434.244 193.051 433.051 192.275 431.526C191.508 430 191.125 428.244 191.125 426.259C191.125 424.247 191.513 422.483 192.288 420.966C193.072 419.44 194.184 418.251 195.625 417.399C197.065 416.538 198.778 416.108 200.764 416.108C202.477 416.108 203.977 416.419 205.264 417.041C206.551 417.663 207.569 418.537 208.319 419.662C209.069 420.787 209.483 422.108 209.559 423.625H204.42C204.275 422.645 203.892 421.857 203.27 421.26C202.656 420.655 201.851 420.352 200.854 420.352C200.01 420.352 199.273 420.582 198.642 421.043C198.02 421.494 197.534 422.155 197.184 423.024C196.835 423.893 196.66 424.946 196.66 426.182C196.66 427.435 196.831 428.5 197.172 429.378C197.521 430.256 198.011 430.925 198.642 431.385C199.273 431.845 200.01 432.075 200.854 432.075C201.476 432.075 202.034 431.947 202.528 431.692C203.031 431.436 203.444 431.065 203.768 430.58C204.101 430.085 204.318 429.493 204.42 428.803H209.559C209.474 430.303 209.065 431.624 208.332 432.766C207.608 433.899 206.606 434.786 205.328 435.425C204.05 436.064 202.537 436.384 200.79 436.384ZM214.031 436L224.884 414.523V414.344H212.241V409.818H230.612V414.408L219.745 436H214.031Z" fill="white"/>
<path d="M371.229 62.358C369.32 62.358 367.62 62.0298 366.129 61.3736C364.646 60.7088 363.474 59.7969 362.613 58.6378C361.761 57.4702 361.322 56.1236 361.296 54.598H366.87C366.904 55.2372 367.113 55.7997 367.496 56.2855C367.888 56.7628 368.408 57.1335 369.056 57.3977C369.704 57.6619 370.433 57.794 371.242 57.794C372.086 57.794 372.832 57.6449 373.479 57.3466C374.127 57.0483 374.634 56.6349 375.001 56.1065C375.367 55.5781 375.55 54.9687 375.55 54.2784C375.55 53.5795 375.354 52.9616 374.962 52.4247C374.579 51.8793 374.025 51.4531 373.3 51.1463C372.585 50.8395 371.732 50.6861 370.744 50.6861H368.302V46.6207H370.744C371.579 46.6207 372.316 46.4759 372.955 46.1861C373.603 45.8963 374.106 45.4957 374.464 44.9844C374.822 44.4645 375.001 43.8594 375.001 43.169C375.001 42.5128 374.843 41.9375 374.528 41.4432C374.221 40.9403 373.786 40.5483 373.224 40.267C372.67 39.9858 372.022 39.8452 371.281 39.8452C370.531 39.8452 369.844 39.9815 369.222 40.2543C368.6 40.5185 368.102 40.8977 367.727 41.392C367.352 41.8864 367.151 42.4659 367.126 43.1307H361.82C361.846 41.6222 362.276 40.2926 363.112 39.142C363.947 37.9915 365.072 37.0923 366.487 36.4446C367.91 35.7884 369.516 35.4602 371.306 35.4602C373.113 35.4602 374.694 35.7884 376.049 36.4446C377.404 37.1009 378.457 37.9872 379.207 39.1037C379.965 40.2116 380.34 41.456 380.332 42.8366C380.34 44.3026 379.884 45.5256 378.964 46.5057C378.052 47.4858 376.863 48.108 375.397 48.3722V48.5767C377.323 48.8239 378.789 49.4929 379.795 50.5838C380.809 51.6662 381.312 53.0213 381.303 54.6491C381.312 56.1406 380.881 57.4659 380.012 58.625C379.151 59.7841 377.962 60.696 376.445 61.3608C374.928 62.0256 373.19 62.358 371.229 62.358ZM386.318 62L397.172 40.5227V40.3438H384.528V35.8182H402.899V40.4077L392.032 62H386.318Z" fill="white"/>
<path d="M370.088 137.358C368.12 137.358 366.368 137.038 364.834 136.399C363.309 135.751 362.111 134.869 361.242 133.753C360.373 132.636 359.938 131.371 359.938 129.956C359.938 128.865 360.185 127.864 360.679 126.952C361.182 126.031 361.864 125.268 362.725 124.663C363.586 124.05 364.549 123.658 365.614 123.487V123.308C364.216 123.027 363.083 122.349 362.213 121.276C361.344 120.193 360.909 118.936 360.909 117.504C360.909 116.149 361.306 114.943 362.098 113.886C362.891 112.821 363.978 111.986 365.358 111.381C366.748 110.767 368.324 110.46 370.088 110.46C371.853 110.46 373.425 110.767 374.806 111.381C376.195 111.994 377.286 112.834 378.078 113.899C378.871 114.956 379.272 116.158 379.28 117.504C379.272 118.945 378.828 120.202 377.951 121.276C377.073 122.349 375.948 123.027 374.576 123.308V123.487C375.624 123.658 376.574 124.05 377.426 124.663C378.287 125.268 378.969 126.031 379.472 126.952C379.983 127.864 380.243 128.865 380.252 129.956C380.243 131.371 379.804 132.636 378.935 133.753C378.066 134.869 376.864 135.751 375.33 136.399C373.804 137.038 372.057 137.358 370.088 137.358ZM370.088 133.293C370.966 133.293 371.733 133.135 372.39 132.82C373.046 132.496 373.557 132.053 373.924 131.49C374.299 130.919 374.486 130.263 374.486 129.521C374.486 128.763 374.294 128.094 373.911 127.514C373.527 126.926 373.007 126.466 372.351 126.134C371.695 125.793 370.941 125.622 370.088 125.622C369.245 125.622 368.49 125.793 367.826 126.134C367.161 126.466 366.637 126.926 366.253 127.514C365.878 128.094 365.691 128.763 365.691 129.521C365.691 130.263 365.874 130.919 366.24 131.49C366.607 132.053 367.123 132.496 367.787 132.82C368.452 133.135 369.219 133.293 370.088 133.293ZM370.088 121.595C370.821 121.595 371.473 121.446 372.044 121.148C372.615 120.849 373.063 120.436 373.387 119.908C373.711 119.379 373.873 118.77 373.873 118.08C373.873 117.398 373.711 116.801 373.387 116.29C373.063 115.77 372.62 115.365 372.057 115.075C371.495 114.777 370.838 114.628 370.088 114.628C369.347 114.628 368.691 114.777 368.12 115.075C367.549 115.365 367.101 115.77 366.777 116.29C366.462 116.801 366.304 117.398 366.304 118.08C366.304 118.77 366.466 119.379 366.79 119.908C367.114 120.436 367.561 120.849 368.132 121.148C368.703 121.446 369.355 121.595 370.088 121.595ZM393.889 137.358C391.92 137.358 390.169 137.038 388.635 136.399C387.109 135.751 385.912 134.869 385.043 133.753C384.173 132.636 383.739 131.371 383.739 129.956C383.739 128.865 383.986 127.864 384.48 126.952C384.983 126.031 385.665 125.268 386.526 124.663C387.386 124.05 388.349 123.658 389.415 123.487V123.308C388.017 123.027 386.884 122.349 386.014 121.276C385.145 120.193 384.71 118.936 384.71 117.504C384.71 116.149 385.107 114.943 385.899 113.886C386.692 112.821 387.778 111.986 389.159 111.381C390.548 110.767 392.125 110.46 393.889 110.46C395.653 110.46 397.226 110.767 398.607 111.381C399.996 111.994 401.087 112.834 401.879 113.899C402.672 114.956 403.072 116.158 403.081 117.504C403.072 118.945 402.629 120.202 401.751 121.276C400.874 122.349 399.749 123.027 398.376 123.308V123.487C399.425 123.658 400.375 124.05 401.227 124.663C402.088 125.268 402.77 126.031 403.273 126.952C403.784 127.864 404.044 128.865 404.053 129.956C404.044 131.371 403.605 132.636 402.736 133.753C401.866 134.869 400.665 135.751 399.131 136.399C397.605 137.038 395.858 137.358 393.889 137.358ZM393.889 133.293C394.767 133.293 395.534 133.135 396.19 132.82C396.847 132.496 397.358 132.053 397.724 131.49C398.099 130.919 398.287 130.263 398.287 129.521C398.287 128.763 398.095 128.094 397.712 127.514C397.328 126.926 396.808 126.466 396.152 126.134C395.496 125.793 394.741 125.622 393.889 125.622C393.045 125.622 392.291 125.793 391.626 126.134C390.962 126.466 390.438 126.926 390.054 127.514C389.679 128.094 389.491 128.763 389.491 129.521C389.491 130.263 389.675 130.919 390.041 131.49C390.408 132.053 390.923 132.496 391.588 132.82C392.253 133.135 393.02 133.293 393.889 133.293ZM393.889 121.595C394.622 121.595 395.274 121.446 395.845 121.148C396.416 120.849 396.864 120.436 397.188 119.908C397.511 119.379 397.673 118.77 397.673 118.08C397.673 117.398 397.511 116.801 397.188 116.29C396.864 115.77 396.42 115.365 395.858 115.075C395.295 114.777 394.639 114.628 393.889 114.628C393.148 114.628 392.491 114.777 391.92 115.075C391.349 115.365 390.902 115.77 390.578 116.29C390.263 116.801 390.105 117.398 390.105 118.08C390.105 118.77 390.267 119.379 390.591 119.908C390.915 120.436 391.362 120.849 391.933 121.148C392.504 121.446 393.156 121.595 393.889 121.595Z" fill="white"/>
<path d="M381.934 212.358C380.025 212.358 378.325 212.03 376.834 211.374C375.351 210.709 374.179 209.797 373.318 208.638C372.466 207.47 372.027 206.124 372.001 204.598H377.575C377.609 205.237 377.818 205.8 378.202 206.286C378.594 206.763 379.113 207.134 379.761 207.398C380.409 207.662 381.138 207.794 381.947 207.794C382.791 207.794 383.537 207.645 384.184 207.347C384.832 207.048 385.339 206.635 385.706 206.107C386.072 205.578 386.256 204.969 386.256 204.278C386.256 203.58 386.059 202.962 385.667 202.425C385.284 201.879 384.73 201.453 384.006 201.146C383.29 200.839 382.437 200.686 381.449 200.686H379.007V196.621H381.449C382.284 196.621 383.021 196.476 383.66 196.186C384.308 195.896 384.811 195.496 385.169 194.984C385.527 194.464 385.706 193.859 385.706 193.169C385.706 192.513 385.548 191.938 385.233 191.443C384.926 190.94 384.491 190.548 383.929 190.267C383.375 189.986 382.727 189.845 381.986 189.845C381.236 189.845 380.55 189.982 379.927 190.254C379.305 190.518 378.807 190.898 378.432 191.392C378.057 191.886 377.856 192.466 377.831 193.131H372.525C372.551 191.622 372.981 190.293 373.817 189.142C374.652 187.991 375.777 187.092 377.192 186.445C378.615 185.788 380.221 185.46 382.011 185.46C383.818 185.46 385.399 185.788 386.754 186.445C388.109 187.101 389.162 187.987 389.912 189.104C390.67 190.212 391.045 191.456 391.037 192.837C391.045 194.303 390.589 195.526 389.669 196.506C388.757 197.486 387.568 198.108 386.102 198.372V198.577C388.028 198.824 389.494 199.493 390.5 200.584C391.514 201.666 392.017 203.021 392.008 204.649C392.017 206.141 391.586 207.466 390.717 208.625C389.856 209.784 388.667 210.696 387.15 211.361C385.633 212.026 383.895 212.358 381.934 212.358Z" fill="white"/>
<path d="M369.812 260.46C371.159 260.46 372.454 260.686 373.698 261.138C374.951 261.589 376.068 262.31 377.048 263.298C378.036 264.287 378.816 265.599 379.387 267.236C379.967 268.864 380.261 270.862 380.269 273.232C380.269 275.456 380.018 277.442 379.515 279.189C379.021 280.928 378.309 282.406 377.38 283.625C376.451 284.844 375.33 285.773 374.018 286.412C372.705 287.043 371.24 287.358 369.62 287.358C367.873 287.358 366.33 287.021 364.992 286.348C363.654 285.666 362.576 284.741 361.758 283.574C360.948 282.398 360.458 281.077 360.288 279.611H365.747C365.96 280.565 366.407 281.307 367.089 281.835C367.771 282.355 368.615 282.615 369.62 282.615C371.325 282.615 372.62 281.874 373.507 280.391C374.393 278.899 374.84 276.858 374.849 274.267H374.67C374.278 275.034 373.749 275.695 373.085 276.249C372.42 276.794 371.657 277.216 370.796 277.514C369.944 277.812 369.036 277.962 368.073 277.962C366.531 277.962 365.154 277.599 363.944 276.875C362.734 276.151 361.779 275.153 361.08 273.884C360.382 272.614 360.032 271.165 360.032 269.537C360.024 267.781 360.428 266.217 361.247 264.845C362.065 263.473 363.207 262.399 364.673 261.624C366.147 260.839 367.86 260.452 369.812 260.46ZM369.85 264.807C368.99 264.807 368.222 265.011 367.549 265.42C366.884 265.83 366.356 266.379 365.964 267.07C365.58 267.76 365.393 268.531 365.401 269.384C365.401 270.244 365.589 271.02 365.964 271.71C366.347 272.392 366.867 272.937 367.524 273.347C368.188 273.747 368.947 273.947 369.799 273.947C370.438 273.947 371.031 273.828 371.576 273.589C372.122 273.351 372.595 273.023 372.995 272.605C373.404 272.179 373.724 271.689 373.954 271.135C374.184 270.581 374.299 269.993 374.299 269.371C374.291 268.544 374.095 267.786 373.711 267.095C373.328 266.405 372.799 265.851 372.126 265.433C371.453 265.016 370.694 264.807 369.85 264.807ZM393.872 287.358C391.903 287.358 390.151 287.038 388.617 286.399C387.092 285.751 385.894 284.869 385.025 283.753C384.156 282.636 383.721 281.371 383.721 279.956C383.721 278.865 383.968 277.864 384.463 276.952C384.965 276.031 385.647 275.268 386.508 274.663C387.369 274.05 388.332 273.658 389.397 273.487V273.308C387.999 273.027 386.866 272.349 385.997 271.276C385.127 270.193 384.693 268.936 384.693 267.504C384.693 266.149 385.089 264.943 385.882 263.886C386.674 262.821 387.761 261.986 389.142 261.381C390.531 260.767 392.107 260.46 393.872 260.46C395.636 260.46 397.208 260.767 398.589 261.381C399.978 261.994 401.069 262.834 401.862 263.899C402.654 264.956 403.055 266.158 403.063 267.504C403.055 268.945 402.612 270.202 401.734 271.276C400.856 272.349 399.731 273.027 398.359 273.308V273.487C399.407 273.658 400.357 274.05 401.21 274.663C402.07 275.268 402.752 276.031 403.255 276.952C403.767 277.864 404.026 278.865 404.035 279.956C404.026 281.371 403.588 282.636 402.718 283.753C401.849 284.869 400.647 285.751 399.113 286.399C397.588 287.038 395.84 287.358 393.872 287.358ZM393.872 283.293C394.749 283.293 395.517 283.135 396.173 282.82C396.829 282.496 397.34 282.053 397.707 281.49C398.082 280.919 398.269 280.263 398.269 279.521C398.269 278.763 398.078 278.094 397.694 277.514C397.311 276.926 396.791 276.466 396.134 276.134C395.478 275.793 394.724 275.622 393.872 275.622C393.028 275.622 392.274 275.793 391.609 276.134C390.944 276.466 390.42 276.926 390.036 277.514C389.661 278.094 389.474 278.763 389.474 279.521C389.474 280.263 389.657 280.919 390.024 281.49C390.39 282.053 390.906 282.496 391.57 282.82C392.235 283.135 393.002 283.293 393.872 283.293ZM393.872 271.595C394.605 271.595 395.257 271.446 395.828 271.148C396.399 270.849 396.846 270.436 397.17 269.908C397.494 269.379 397.656 268.77 397.656 268.08C397.656 267.398 397.494 266.801 397.17 266.29C396.846 265.77 396.403 265.365 395.84 265.075C395.278 264.777 394.622 264.628 393.872 264.628C393.13 264.628 392.474 264.777 391.903 265.075C391.332 265.365 390.884 265.77 390.561 266.29C390.245 266.801 390.088 267.398 390.088 268.08C390.088 268.77 390.249 269.379 390.573 269.908C390.897 270.436 391.345 270.849 391.916 271.148C392.487 271.446 393.139 271.595 393.872 271.595Z" fill="white"/>
<path d="M359.327 357.398V353.038L370.258 335.818H374.016V341.852H371.792L364.901 352.757V352.962H380.434V357.398H359.327ZM371.894 362V356.068L371.996 354.138V335.818H377.187V362H371.894ZM383.726 357.398V353.038L394.656 335.818H398.415V341.852H396.19L389.3 352.757V352.962H404.832V357.398H383.726ZM396.293 362V356.068L396.395 354.138V335.818H401.585V362H396.293Z" fill="white"/>
<path d="M363.115 436L373.968 414.523V414.344H361.325V409.818H379.696V414.408L368.829 436H363.115ZM383.489 436V432.011L392.809 423.382C393.602 422.615 394.266 421.925 394.803 421.311C395.349 420.697 395.762 420.097 396.043 419.509C396.325 418.912 396.465 418.268 396.465 417.578C396.465 416.811 396.29 416.151 395.941 415.597C395.592 415.034 395.114 414.604 394.509 414.305C393.904 413.999 393.218 413.845 392.451 413.845C391.65 413.845 390.951 414.007 390.354 414.331C389.758 414.655 389.298 415.119 388.974 415.724C388.65 416.33 388.488 417.05 388.488 417.885H383.234C383.234 416.172 383.621 414.685 384.397 413.423C385.173 412.162 386.259 411.186 387.657 410.496C389.055 409.805 390.665 409.46 392.489 409.46C394.364 409.46 395.996 409.793 397.386 410.457C398.783 411.114 399.87 412.026 400.646 413.193C401.421 414.361 401.809 415.699 401.809 417.207C401.809 418.196 401.613 419.172 401.221 420.135C400.837 421.098 400.151 422.168 399.163 423.344C398.174 424.511 396.781 425.913 394.982 427.55L391.16 431.295V431.474H402.154V436H383.489Z" fill="white"/>
</svg>
