<svg width="320" height="320" viewBox="0 0 320 320" fill="none" xmlns="http://www.w3.org/2000/svg">
<g clip-path="url(#clip0_2_8)">
<mask id="path-1-inside-1_2_8" fill="white">
<rect x="10" y="10" width="300" height="300" rx="4"/>
</mask>
<rect x="10" y="10" width="300" height="300" rx="4" fill="#1E1E1E" stroke="#353535" stroke-width="16" mask="url(#path-1-inside-1_2_8)"/>
<mask id="path-2-inside-2_2_8" fill="white">
<rect x="230" y="260" width="80" height="50" rx="4"/>
</mask>
<rect x="230" y="260" width="80" height="50" rx="4" fill="#353535" stroke="#353535" stroke-width="16" mask="url(#path-2-inside-2_2_8)"/>
<mask id="path-3-inside-3_2_8" fill="white">
<rect x="10" y="10" width="80" height="50" rx="4"/>
</mask>
<rect x="10" y="10" width="80" height="50" rx="4" fill="#353535" stroke="#353535" stroke-width="16" mask="url(#path-3-inside-3_2_8)"/>
<path d="M130.582 173H121.301V146.818H130.659C133.292 146.818 135.559 147.342 137.46 148.391C139.361 149.43 140.822 150.926 141.845 152.878C142.876 154.83 143.392 157.165 143.392 159.884C143.392 162.611 142.876 164.955 141.845 166.915C140.822 168.875 139.352 170.379 137.434 171.428C135.525 172.476 133.241 173 130.582 173ZM126.836 168.257H130.352C131.988 168.257 133.365 167.967 134.481 167.388C135.606 166.8 136.45 165.892 137.013 164.665C137.584 163.429 137.869 161.835 137.869 159.884C137.869 157.949 137.584 156.368 137.013 155.141C136.45 153.913 135.611 153.01 134.494 152.43C133.378 151.851 132.001 151.561 130.365 151.561H126.836V168.257ZM152.99 173.371C151.737 173.371 150.62 173.153 149.64 172.719C148.66 172.276 147.884 171.624 147.313 170.763C146.751 169.893 146.47 168.811 146.47 167.516C146.47 166.425 146.67 165.509 147.07 164.767C147.471 164.026 148.017 163.429 148.707 162.977C149.397 162.526 150.181 162.185 151.059 161.955C151.945 161.724 152.874 161.562 153.846 161.469C154.988 161.349 155.909 161.239 156.607 161.136C157.306 161.026 157.813 160.864 158.129 160.651C158.444 160.437 158.602 160.122 158.602 159.705V159.628C158.602 158.818 158.346 158.192 157.835 157.749C157.332 157.305 156.616 157.084 155.687 157.084C154.707 157.084 153.927 157.301 153.347 157.736C152.768 158.162 152.384 158.699 152.197 159.347L147.16 158.938C147.416 157.744 147.919 156.713 148.669 155.844C149.419 154.966 150.386 154.293 151.57 153.824C152.764 153.347 154.144 153.108 155.713 153.108C156.803 153.108 157.847 153.236 158.845 153.491C159.85 153.747 160.741 154.143 161.517 154.68C162.301 155.217 162.919 155.908 163.37 156.751C163.822 157.587 164.048 158.588 164.048 159.756V173H158.883V170.277H158.73C158.414 170.891 157.992 171.432 157.464 171.901C156.936 172.361 156.301 172.723 155.559 172.987C154.818 173.243 153.961 173.371 152.99 173.371ZM154.549 169.612C155.35 169.612 156.058 169.455 156.671 169.139C157.285 168.815 157.767 168.381 158.116 167.835C158.465 167.29 158.64 166.672 158.64 165.982V163.898C158.47 164.009 158.235 164.111 157.937 164.205C157.647 164.29 157.319 164.371 156.953 164.447C156.586 164.516 156.22 164.58 155.853 164.639C155.487 164.69 155.154 164.737 154.856 164.78C154.217 164.874 153.659 165.023 153.181 165.227C152.704 165.432 152.333 165.709 152.069 166.058C151.805 166.399 151.673 166.825 151.673 167.337C151.673 168.078 151.941 168.645 152.478 169.037C153.024 169.42 153.714 169.612 154.549 169.612ZM178.718 153.364V157.455H166.892V153.364H178.718ZM169.577 148.659H175.023V166.966C175.023 167.469 175.1 167.861 175.253 168.142C175.406 168.415 175.619 168.607 175.892 168.717C176.173 168.828 176.497 168.884 176.864 168.884C177.119 168.884 177.375 168.862 177.631 168.82C177.887 168.768 178.083 168.73 178.219 168.705L179.075 172.757C178.803 172.842 178.419 172.94 177.925 173.051C177.431 173.17 176.83 173.243 176.122 173.268C174.81 173.32 173.659 173.145 172.671 172.744C171.691 172.344 170.928 171.722 170.382 170.878C169.837 170.034 169.568 168.969 169.577 167.682V148.659ZM187.865 173.371C186.612 173.371 185.495 173.153 184.515 172.719C183.535 172.276 182.759 171.624 182.188 170.763C181.626 169.893 181.345 168.811 181.345 167.516C181.345 166.425 181.545 165.509 181.945 164.767C182.346 164.026 182.892 163.429 183.582 162.977C184.272 162.526 185.056 162.185 185.934 161.955C186.82 161.724 187.749 161.562 188.721 161.469C189.863 161.349 190.784 161.239 191.482 161.136C192.181 161.026 192.688 160.864 193.004 160.651C193.319 160.437 193.477 160.122 193.477 159.705V159.628C193.477 158.818 193.221 158.192 192.71 157.749C192.207 157.305 191.491 157.084 190.562 157.084C189.582 157.084 188.802 157.301 188.222 157.736C187.643 158.162 187.259 158.699 187.072 159.347L182.035 158.938C182.291 157.744 182.794 156.713 183.544 155.844C184.294 154.966 185.261 154.293 186.445 153.824C187.639 153.347 189.019 153.108 190.588 153.108C191.678 153.108 192.722 153.236 193.72 153.491C194.725 153.747 195.616 154.143 196.392 154.68C197.176 155.217 197.794 155.908 198.245 156.751C198.697 157.587 198.923 158.588 198.923 159.756V173H193.758V170.277H193.605C193.289 170.891 192.867 171.432 192.339 171.901C191.811 172.361 191.176 172.723 190.434 172.987C189.693 173.243 188.836 173.371 187.865 173.371ZM189.424 169.612C190.225 169.612 190.933 169.455 191.546 169.139C192.16 168.815 192.642 168.381 192.991 167.835C193.34 167.29 193.515 166.672 193.515 165.982V163.898C193.345 164.009 193.11 164.111 192.812 164.205C192.522 164.29 192.194 164.371 191.828 164.447C191.461 164.516 191.095 164.58 190.728 164.639C190.362 164.69 190.029 164.737 189.731 164.78C189.092 164.874 188.534 165.023 188.056 165.227C187.579 165.432 187.208 165.709 186.944 166.058C186.68 166.399 186.548 166.825 186.548 167.337C186.548 168.078 186.816 168.645 187.353 169.037C187.899 169.42 188.589 169.612 189.424 169.612Z" fill="white"/>
<path d="M23.4567 41V29.3636H25.9169V38.9716H30.9055V41H23.4567ZM36.4666 41.1705C35.5689 41.1705 34.7962 40.9886 34.1484 40.625C33.5045 40.2576 33.0083 39.7386 32.6598 39.0682C32.3113 38.3939 32.1371 37.5966 32.1371 36.6761C32.1371 35.7784 32.3113 34.9905 32.6598 34.3125C33.0083 33.6345 33.4988 33.1061 34.1314 32.7273C34.7678 32.3485 35.514 32.1591 36.37 32.1591C36.9458 32.1591 37.4818 32.2519 37.978 32.4375C38.478 32.6193 38.9136 32.8939 39.2848 33.2614C39.6598 33.6288 39.9515 34.0909 40.1598 34.6477C40.3681 35.2008 40.4723 35.8485 40.4723 36.5909V37.2557H33.103V35.7557H38.1939C38.1939 35.4072 38.1181 35.0985 37.9666 34.8295C37.8151 34.5606 37.6049 34.3504 37.3359 34.1989C37.0708 34.0436 36.7621 33.9659 36.4098 33.9659C36.0424 33.9659 35.7166 34.0511 35.4325 34.2216C35.1522 34.3883 34.9325 34.6136 34.7734 34.8977C34.6143 35.178 34.5329 35.4905 34.5291 35.8352V37.2614C34.5291 37.6932 34.6087 38.0663 34.7678 38.3807C34.9306 38.6951 35.1598 38.9375 35.4553 39.108C35.7507 39.2784 36.1011 39.3636 36.5064 39.3636C36.7753 39.3636 37.0215 39.3258 37.245 39.25C37.4685 39.1742 37.6598 39.0606 37.8189 38.9091C37.978 38.7576 38.0992 38.572 38.1825 38.3523L40.4212 38.5C40.3075 39.0379 40.0746 39.5076 39.7223 39.9091C39.3738 40.3068 38.9231 40.6174 38.37 40.8409C37.8208 41.0606 37.1863 41.1705 36.4666 41.1705ZM44.4723 35.9545V41H42.0518V32.2727H44.3587V33.8125H44.4609C44.6541 33.3049 44.978 32.9034 45.4325 32.608C45.8871 32.3087 46.4382 32.1591 47.0859 32.1591C47.692 32.1591 48.2204 32.2917 48.6712 32.5568C49.1219 32.822 49.4723 33.2008 49.7223 33.6932C49.9723 34.1818 50.0973 34.7652 50.0973 35.4432V41H47.6768V35.875C47.6806 35.3409 47.5443 34.9242 47.2678 34.625C46.9912 34.322 46.6106 34.1705 46.1257 34.1705C45.8 34.1705 45.5121 34.2405 45.2621 34.3807C45.0159 34.5208 44.8227 34.7254 44.6825 34.9943C44.5462 35.2595 44.4761 35.5795 44.4723 35.9545ZM55.9368 44.4545C55.1527 44.4545 54.4804 44.3466 53.9197 44.1307C53.3629 43.9186 52.9197 43.6288 52.5902 43.2614C52.2607 42.8939 52.0466 42.4811 51.9482 42.0227L54.1868 41.7216C54.255 41.8958 54.3629 42.0587 54.5107 42.2102C54.6584 42.3617 54.8535 42.483 55.0959 42.5739C55.3421 42.6686 55.6413 42.7159 55.9936 42.7159C56.5201 42.7159 56.9538 42.5871 57.2947 42.3295C57.6394 42.0758 57.8118 41.6496 57.8118 41.0511V39.4545H57.7095C57.6035 39.697 57.4444 39.9261 57.2322 40.142C57.0201 40.358 56.7474 40.5341 56.4141 40.6705C56.0807 40.8068 55.683 40.875 55.2209 40.875C54.5656 40.875 53.969 40.7235 53.4311 40.4205C52.897 40.1136 52.4709 39.6458 52.1527 39.017C51.8383 38.3845 51.6811 37.5852 51.6811 36.6193C51.6811 35.6307 51.8421 34.8049 52.1641 34.142C52.486 33.4792 52.9141 32.983 53.4482 32.6534C53.986 32.3239 54.575 32.1591 55.2152 32.1591C55.7038 32.1591 56.1129 32.2424 56.4425 32.4091C56.772 32.572 57.0372 32.7765 57.2379 33.0227C57.4425 33.2652 57.5997 33.5038 57.7095 33.7386H57.8004V32.2727H60.2038V41.0852C60.2038 41.8277 60.022 42.4489 59.6584 42.9489C59.2947 43.4489 58.791 43.8239 58.147 44.0739C57.5069 44.3277 56.7701 44.4545 55.9368 44.4545ZM55.9879 39.0568C56.3781 39.0568 56.7076 38.9602 56.9766 38.767C57.2493 38.5701 57.4576 38.2898 57.6016 37.9261C57.7493 37.5587 57.8232 37.1193 57.8232 36.608C57.8232 36.0966 57.7512 35.6534 57.6072 35.2784C57.4633 34.8996 57.255 34.6061 56.9822 34.3977C56.7095 34.1894 56.3781 34.0852 55.9879 34.0852C55.5902 34.0852 55.255 34.1932 54.9822 34.4091C54.7095 34.6212 54.5031 34.9167 54.3629 35.2955C54.2228 35.6742 54.1527 36.1117 54.1527 36.608C54.1527 37.1117 54.2228 37.5473 54.3629 37.9148C54.5069 38.2784 54.7133 38.5606 54.9822 38.7614C55.255 38.9583 55.5902 39.0568 55.9879 39.0568ZM66.772 32.2727V34.0909H61.5163V32.2727H66.772ZM62.7095 30.1818H65.13V38.3182C65.13 38.5417 65.1641 38.7159 65.2322 38.8409C65.3004 38.9621 65.3951 39.0473 65.5163 39.0966C65.6413 39.1458 65.7853 39.1705 65.9482 39.1705C66.0618 39.1705 66.1754 39.161 66.2891 39.142C66.4027 39.1193 66.4898 39.1023 66.5504 39.0909L66.9311 40.892C66.8099 40.9299 66.6394 40.9735 66.4197 41.0227C66.2 41.0758 65.933 41.108 65.6186 41.1193C65.0353 41.142 64.5239 41.0644 64.0845 40.8864C63.6489 40.7083 63.3099 40.4318 63.0675 40.0568C62.825 39.6818 62.7057 39.2083 62.7095 38.6364V30.1818ZM70.9567 35.9545V41H68.5362V29.3636H70.8885V33.8125H70.9908C71.1877 33.2973 71.5059 32.8939 71.9453 32.6023C72.3847 32.3068 72.9358 32.1591 73.5987 32.1591C74.2048 32.1591 74.7332 32.2917 75.1839 32.5568C75.6385 32.8182 75.9908 33.1951 76.2408 33.6875C76.4946 34.1761 76.6196 34.7614 76.6158 35.4432V41H74.1953V35.875C74.1991 35.3371 74.0627 34.9186 73.7862 34.6193C73.5135 34.3201 73.1309 34.1705 72.6385 34.1705C72.3089 34.1705 72.0173 34.2405 71.7635 34.3807C71.5135 34.5208 71.3165 34.7254 71.1726 34.9943C71.0324 35.2595 70.9605 35.5795 70.9567 35.9545Z" fill="white"/>
<path d="M242.722 291V279.364H247.313C248.196 279.364 248.948 279.532 249.569 279.869C250.19 280.203 250.664 280.667 250.989 281.261C251.319 281.852 251.484 282.534 251.484 283.307C251.484 284.08 251.317 284.761 250.984 285.352C250.65 285.943 250.167 286.403 249.535 286.733C248.906 287.062 248.145 287.227 247.251 287.227H244.325V285.256H246.853C247.326 285.256 247.717 285.174 248.023 285.011C248.334 284.845 248.565 284.616 248.717 284.324C248.872 284.028 248.95 283.689 248.95 283.307C248.95 282.92 248.872 282.583 248.717 282.295C248.565 282.004 248.334 281.778 248.023 281.619C247.713 281.456 247.319 281.375 246.842 281.375H245.183V291H242.722ZM256.839 291.17C255.956 291.17 255.193 290.983 254.549 290.608C253.909 290.229 253.415 289.703 253.066 289.028C252.718 288.35 252.543 287.564 252.543 286.67C252.543 285.769 252.718 284.981 253.066 284.307C253.415 283.629 253.909 283.102 254.549 282.727C255.193 282.348 255.956 282.159 256.839 282.159C257.721 282.159 258.483 282.348 259.123 282.727C259.767 283.102 260.263 283.629 260.612 284.307C260.96 284.981 261.134 285.769 261.134 286.67C261.134 287.564 260.96 288.35 260.612 289.028C260.263 289.703 259.767 290.229 259.123 290.608C258.483 290.983 257.721 291.17 256.839 291.17ZM256.85 289.295C257.252 289.295 257.587 289.182 257.856 288.955C258.125 288.723 258.327 288.409 258.464 288.011C258.604 287.614 258.674 287.161 258.674 286.653C258.674 286.146 258.604 285.693 258.464 285.295C258.327 284.898 258.125 284.583 257.856 284.352C257.587 284.121 257.252 284.006 256.85 284.006C256.445 284.006 256.104 284.121 255.827 284.352C255.555 284.583 255.348 284.898 255.208 285.295C255.072 285.693 255.004 286.146 255.004 286.653C255.004 287.161 255.072 287.614 255.208 288.011C255.348 288.409 255.555 288.723 255.827 288.955C256.104 289.182 256.445 289.295 256.85 289.295ZM262.708 291V282.273H265.129V291H262.708ZM263.924 281.148C263.564 281.148 263.255 281.028 262.998 280.79C262.744 280.547 262.617 280.258 262.617 279.92C262.617 279.587 262.744 279.301 262.998 279.062C263.255 278.82 263.564 278.699 263.924 278.699C264.284 278.699 264.591 278.82 264.844 279.062C265.102 279.301 265.231 279.587 265.231 279.92C265.231 280.258 265.102 280.547 264.844 280.79C264.591 281.028 264.284 281.148 263.924 281.148ZM269.488 285.955V291H267.067V282.273H269.374V283.812H269.477C269.67 283.305 269.994 282.903 270.448 282.608C270.903 282.309 271.454 282.159 272.102 282.159C272.708 282.159 273.236 282.292 273.687 282.557C274.138 282.822 274.488 283.201 274.738 283.693C274.988 284.182 275.113 284.765 275.113 285.443V291H272.692V285.875C272.696 285.341 272.56 284.924 272.283 284.625C272.007 284.322 271.626 284.17 271.141 284.17C270.816 284.17 270.528 284.241 270.278 284.381C270.031 284.521 269.838 284.725 269.698 284.994C269.562 285.259 269.492 285.58 269.488 285.955ZM281.663 282.273V284.091H276.407V282.273H281.663ZM277.6 280.182H280.021V288.318C280.021 288.542 280.055 288.716 280.123 288.841C280.191 288.962 280.286 289.047 280.407 289.097C280.532 289.146 280.676 289.17 280.839 289.17C280.952 289.17 281.066 289.161 281.18 289.142C281.293 289.119 281.38 289.102 281.441 289.091L281.822 290.892C281.701 290.93 281.53 290.973 281.31 291.023C281.091 291.076 280.824 291.108 280.509 291.119C279.926 291.142 279.415 291.064 278.975 290.886C278.54 290.708 278.201 290.432 277.958 290.057C277.716 289.682 277.596 289.208 277.6 288.636V280.182ZM287.123 291.17C286.225 291.17 285.452 290.989 284.805 290.625C284.161 290.258 283.665 289.739 283.316 289.068C282.968 288.394 282.793 287.597 282.793 286.676C282.793 285.778 282.968 284.991 283.316 284.312C283.665 283.634 284.155 283.106 284.788 282.727C285.424 282.348 286.17 282.159 287.026 282.159C287.602 282.159 288.138 282.252 288.634 282.438C289.134 282.619 289.57 282.894 289.941 283.261C290.316 283.629 290.608 284.091 290.816 284.648C291.024 285.201 291.129 285.848 291.129 286.591V287.256H283.759V285.756H288.85C288.85 285.407 288.774 285.098 288.623 284.83C288.471 284.561 288.261 284.35 287.992 284.199C287.727 284.044 287.418 283.966 287.066 283.966C286.699 283.966 286.373 284.051 286.089 284.222C285.808 284.388 285.589 284.614 285.43 284.898C285.271 285.178 285.189 285.491 285.185 285.835V287.261C285.185 287.693 285.265 288.066 285.424 288.381C285.587 288.695 285.816 288.938 286.112 289.108C286.407 289.278 286.757 289.364 287.163 289.364C287.432 289.364 287.678 289.326 287.901 289.25C288.125 289.174 288.316 289.061 288.475 288.909C288.634 288.758 288.755 288.572 288.839 288.352L291.077 288.5C290.964 289.038 290.731 289.508 290.379 289.909C290.03 290.307 289.579 290.617 289.026 290.841C288.477 291.061 287.843 291.17 287.123 291.17ZM292.708 291V282.273H295.055V283.795H295.146C295.305 283.254 295.572 282.845 295.947 282.568C296.322 282.288 296.754 282.148 297.242 282.148C297.363 282.148 297.494 282.155 297.634 282.17C297.774 282.186 297.897 282.206 298.004 282.233V284.381C297.89 284.347 297.733 284.316 297.532 284.29C297.331 284.263 297.147 284.25 296.981 284.25C296.625 284.25 296.307 284.328 296.026 284.483C295.75 284.634 295.53 284.847 295.367 285.119C295.208 285.392 295.129 285.706 295.129 286.062V291H292.708Z" fill="white"/>
</g>
<defs>
<clipPath id="clip0_2_8">
<rect width="320" height="320" fill="white"/>
</clipPath>
</defs>
</svg>
