<svg width="622" height="822" viewBox="0 0 622 822" fill="none" xmlns="http://www.w3.org/2000/svg">
<mask id="path-1-inside-1_6_3" fill="white">
<rect x="10" y="10" width="200" height="200" rx="4"/>
</mask>
<rect x="10" y="10" width="200" height="200" rx="4" fill="#1E1E1E" stroke="#353535" stroke-width="16" mask="url(#path-1-inside-1_6_3)"/>
<mask id="path-2-inside-2_6_3" fill="white">
<rect x="210" y="10" width="200" height="200" rx="4"/>
</mask>
<rect x="210" y="10" width="200" height="200" rx="4" fill="#1E1E1E" stroke="#353535" stroke-width="16" mask="url(#path-2-inside-2_6_3)"/>
<mask id="path-3-inside-3_6_3" fill="white">
<rect x="210" y="210" width="200" height="200" rx="4"/>
</mask>
<rect x="210" y="210" width="200" height="200" rx="4" fill="#1E1E1E" stroke="#353535" stroke-width="16" mask="url(#path-3-inside-3_6_3)"/>
<mask id="path-4-inside-4_6_3" fill="white">
<rect x="10" y="610" width="200" height="200" rx="4"/>
</mask>
<rect x="10" y="610" width="200" height="200" rx="4" fill="#1E1E1E" stroke="#353535" stroke-width="16" mask="url(#path-4-inside-4_6_3)"/>
<mask id="path-5-inside-5_6_3" fill="white">
<rect x="210" y="610" width="200" height="200" rx="4"/>
</mask>
<rect x="210" y="610" width="200" height="200" rx="4" fill="#1E1E1E" stroke="#353535" stroke-width="16" mask="url(#path-5-inside-5_6_3)"/>
<mask id="path-6-inside-6_6_3" fill="white">
<rect x="410" y="610" width="200" height="200" rx="4"/>
</mask>
<rect x="410" y="610" width="200" height="200" rx="4" fill="#1E1E1E" stroke="#353535" stroke-width="16" mask="url(#path-6-inside-6_6_3)"/>
<mask id="path-7-inside-7_6_3" fill="white">
<rect x="410" y="410" width="200" height="200" rx="4"/>
</mask>
<rect x="410" y="410" width="200" height="200" rx="4" fill="#1E1E1E" stroke="#353535" stroke-width="16" mask="url(#path-7-inside-7_6_3)"/>
<mask id="path-8-inside-8_6_3" fill="white">
<rect x="410" y="210" width="200" height="200" rx="4"/>
</mask>
<rect x="410" y="210" width="200" height="200" rx="4" fill="#1E1E1E" stroke="#353535" stroke-width="16" mask="url(#path-8-inside-8_6_3)"/>
<mask id="path-9-inside-9_6_3" fill="white">
<rect x="10" y="410" width="200" height="200" rx="4"/>
</mask>
<rect x="10" y="410" width="200" height="200" rx="4" fill="#1E1E1E" stroke="#353535" stroke-width="16" mask="url(#path-9-inside-9_6_3)"/>
<mask id="path-10-inside-10_6_3" fill="white">
<rect x="210" y="410" width="200" height="200" rx="4"/>
</mask>
<rect x="210" y="410" width="200" height="200" rx="4" fill="#1E1E1E" stroke="#353535" stroke-width="16" mask="url(#path-10-inside-10_6_3)"/>
<mask id="path-11-inside-11_6_3" fill="white">
<rect x="410" y="10" width="200" height="200" rx="4"/>
</mask>
<rect x="410" y="10" width="200" height="200" rx="4" fill="#1E1E1E" stroke="#353535" stroke-width="16" mask="url(#path-11-inside-11_6_3)"/>
<mask id="path-12-inside-12_6_3" fill="white">
<rect x="10" y="210" width="200" height="200" rx="4"/>
</mask>
<rect x="10" y="210" width="200" height="200" rx="4" fill="#1E1E1E" stroke="#353535" stroke-width="16" mask="url(#path-12-inside-12_6_3)"/>
<path d="M48.0803 123V96.8182H53.6158V107.621H64.853V96.8182H70.3757V123H64.853V112.185H53.6158V123H48.0803ZM83.7862 123.384C81.7663 123.384 80.0277 122.974 78.5703 122.156C77.1214 121.33 76.005 120.162 75.2209 118.653C74.4368 117.136 74.0447 115.342 74.0447 113.271C74.0447 111.251 74.4368 109.479 75.2209 107.953C76.005 106.428 77.1087 105.239 78.532 104.386C79.9638 103.534 81.6428 103.108 83.5689 103.108C84.8643 103.108 86.0703 103.317 87.1868 103.734C88.3118 104.143 89.2919 104.761 90.1271 105.588C90.9709 106.415 91.6271 107.455 92.0959 108.707C92.5646 109.952 92.799 111.409 92.799 113.08V114.575H76.218V111.2H87.6726C87.6726 110.416 87.5021 109.722 87.1612 109.116C86.8203 108.511 86.3473 108.038 85.7422 107.697C85.1456 107.348 84.451 107.173 83.6584 107.173C82.8317 107.173 82.0987 107.365 81.4595 107.749C80.8288 108.124 80.3345 108.631 79.9766 109.27C79.6186 109.901 79.4354 110.604 79.4268 111.379V114.588C79.4268 115.56 79.6058 116.399 79.9638 117.107C80.3303 117.814 80.8459 118.359 81.5107 118.743C82.1754 119.126 82.9638 119.318 83.8757 119.318C84.4808 119.318 85.0348 119.233 85.5376 119.062C86.0405 118.892 86.4709 118.636 86.8288 118.295C87.1868 117.955 87.4595 117.537 87.647 117.043L92.684 117.375C92.4283 118.585 91.9041 119.642 91.1115 120.545C90.3274 121.44 89.3132 122.139 88.0689 122.642C86.8331 123.136 85.4055 123.384 83.7862 123.384ZM101.952 123.371C100.7 123.371 99.5831 123.153 98.603 122.719C97.6229 122.276 96.8473 121.624 96.2763 120.763C95.7138 119.893 95.4325 118.811 95.4325 117.516C95.4325 116.425 95.6328 115.509 96.0334 114.767C96.4339 114.026 96.9794 113.429 97.6697 112.977C98.3601 112.526 99.1442 112.185 100.022 111.955C100.908 111.724 101.837 111.562 102.809 111.469C103.951 111.349 104.871 111.239 105.57 111.136C106.269 111.026 106.776 110.864 107.092 110.651C107.407 110.437 107.565 110.122 107.565 109.705V109.628C107.565 108.818 107.309 108.192 106.798 107.749C106.295 107.305 105.579 107.084 104.65 107.084C103.67 107.084 102.89 107.301 102.31 107.736C101.731 108.162 101.347 108.699 101.16 109.347L96.1229 108.938C96.3786 107.744 96.8814 106.713 97.6314 105.844C98.3814 104.966 99.3487 104.293 100.533 103.824C101.727 103.347 103.107 103.108 104.675 103.108C105.766 103.108 106.81 103.236 107.808 103.491C108.813 103.747 109.704 104.143 110.479 104.68C111.263 105.217 111.881 105.908 112.333 106.751C112.785 107.587 113.011 108.588 113.011 109.756V123H107.846V120.277H107.692C107.377 120.891 106.955 121.432 106.427 121.901C105.898 122.361 105.263 122.723 104.522 122.987C103.781 123.243 102.924 123.371 101.952 123.371ZM103.512 119.612C104.313 119.612 105.021 119.455 105.634 119.139C106.248 118.815 106.729 118.381 107.079 117.835C107.428 117.29 107.603 116.672 107.603 115.982V113.898C107.433 114.009 107.198 114.111 106.9 114.205C106.61 114.29 106.282 114.371 105.915 114.447C105.549 114.516 105.183 114.58 104.816 114.639C104.45 114.69 104.117 114.737 103.819 114.78C103.18 114.874 102.621 115.023 102.144 115.227C101.667 115.432 101.296 115.709 101.032 116.058C100.768 116.399 100.636 116.825 100.636 117.337C100.636 118.078 100.904 118.645 101.441 119.037C101.987 119.42 102.677 119.612 103.512 119.612ZM124.472 123.32C122.98 123.32 121.629 122.936 120.419 122.169C119.217 121.393 118.263 120.256 117.555 118.756C116.857 117.247 116.507 115.398 116.507 113.207C116.507 110.957 116.869 109.087 117.594 107.595C118.318 106.095 119.281 104.974 120.483 104.233C121.693 103.483 123.018 103.108 124.459 103.108C125.558 103.108 126.474 103.295 127.207 103.67C127.949 104.037 128.545 104.497 128.997 105.051C129.457 105.597 129.807 106.134 130.045 106.662H130.212V96.8182H135.645V123H130.276V119.855H130.045C129.79 120.401 129.428 120.942 128.959 121.479C128.499 122.007 127.898 122.446 127.156 122.795C126.423 123.145 125.528 123.32 124.472 123.32ZM126.197 118.986C127.075 118.986 127.817 118.747 128.422 118.27C129.036 117.784 129.504 117.107 129.828 116.237C130.161 115.368 130.327 114.349 130.327 113.182C130.327 112.014 130.165 111 129.841 110.139C129.517 109.278 129.048 108.614 128.435 108.145C127.821 107.676 127.075 107.442 126.197 107.442C125.303 107.442 124.548 107.685 123.935 108.17C123.321 108.656 122.857 109.33 122.541 110.19C122.226 111.051 122.068 112.048 122.068 113.182C122.068 114.324 122.226 115.334 122.541 116.212C122.865 117.081 123.33 117.763 123.935 118.257C124.548 118.743 125.303 118.986 126.197 118.986ZM149.071 123.384C147.051 123.384 145.313 122.974 143.855 122.156C142.407 121.33 141.29 120.162 140.506 118.653C139.722 117.136 139.33 115.342 139.33 113.271C139.33 111.251 139.722 109.479 140.506 107.953C141.29 106.428 142.394 105.239 143.817 104.386C145.249 103.534 146.928 103.108 148.854 103.108C150.15 103.108 151.355 103.317 152.472 103.734C153.597 104.143 154.577 104.761 155.412 105.588C156.256 106.415 156.912 107.455 157.381 108.707C157.85 109.952 158.084 111.409 158.084 113.08V114.575H141.503V111.2H152.958C152.958 110.416 152.787 109.722 152.446 109.116C152.105 108.511 151.632 108.038 151.027 107.697C150.431 107.348 149.736 107.173 148.944 107.173C148.117 107.173 147.384 107.365 146.745 107.749C146.114 108.124 145.62 108.631 145.262 109.27C144.904 109.901 144.721 110.604 144.712 111.379V114.588C144.712 115.56 144.891 116.399 145.249 117.107C145.615 117.814 146.131 118.359 146.796 118.743C147.461 119.126 148.249 119.318 149.161 119.318C149.766 119.318 150.32 119.233 150.823 119.062C151.326 118.892 151.756 118.636 152.114 118.295C152.472 117.955 152.745 117.537 152.932 117.043L157.969 117.375C157.713 118.585 157.189 119.642 156.397 120.545C155.613 121.44 154.598 122.139 153.354 122.642C152.118 123.136 150.691 123.384 149.071 123.384ZM161.638 123V103.364H166.918V106.79H167.123C167.48 105.571 168.081 104.651 168.925 104.028C169.769 103.398 170.74 103.082 171.84 103.082C172.113 103.082 172.407 103.099 172.722 103.134C173.037 103.168 173.314 103.214 173.553 103.274V108.107C173.297 108.03 172.944 107.962 172.492 107.902C172.04 107.842 171.627 107.812 171.252 107.812C170.451 107.812 169.735 107.987 169.104 108.337C168.482 108.678 167.988 109.155 167.621 109.768C167.263 110.382 167.084 111.089 167.084 111.891V123H161.638Z" fill="white"/>
<path d="M264.391 101V74.8182H274.874C276.8 74.8182 278.406 75.1037 279.693 75.6747C280.98 76.2457 281.948 77.0384 282.595 78.0526C283.243 79.0582 283.567 80.2173 283.567 81.5298C283.567 82.5526 283.362 83.4517 282.953 84.2273C282.544 84.9943 281.982 85.625 281.266 86.1193C280.558 86.6051 279.749 86.9503 278.837 87.1548V87.4105C279.834 87.4531 280.767 87.7344 281.637 88.2543C282.514 88.7741 283.226 89.5028 283.771 90.4403C284.317 91.3693 284.59 92.4773 284.59 93.7642C284.59 95.1534 284.244 96.3935 283.554 97.4844C282.872 98.5668 281.862 99.4233 280.524 100.054C279.186 100.685 277.537 101 275.577 101H264.391ZM269.926 96.4744H274.439C275.982 96.4744 277.107 96.1804 277.814 95.5923C278.521 94.9957 278.875 94.2031 278.875 93.2145C278.875 92.4901 278.7 91.8509 278.351 91.2969C278.002 90.7429 277.503 90.3082 276.855 89.9929C276.216 89.6776 275.453 89.5199 274.567 89.5199H269.926V96.4744ZM269.926 85.7741H274.03C274.789 85.7741 275.462 85.642 276.05 85.3778C276.646 85.1051 277.115 84.7216 277.456 84.2273C277.806 83.733 277.98 83.1406 277.98 82.4503C277.98 81.5043 277.644 80.7415 276.97 80.1619C276.306 79.5824 275.36 79.2926 274.132 79.2926H269.926V85.7741ZM293.535 74.8182V101H288.089V74.8182H293.535ZM306.77 101.384C304.784 101.384 303.067 100.962 301.618 100.118C300.178 99.2656 299.066 98.081 298.281 96.5639C297.497 95.0384 297.105 93.2699 297.105 91.2585C297.105 89.2301 297.497 87.4574 298.281 85.9403C299.066 84.4148 300.178 83.2301 301.618 82.3864C303.067 81.5341 304.784 81.108 306.77 81.108C308.756 81.108 310.469 81.5341 311.909 82.3864C313.358 83.2301 314.475 84.4148 315.259 85.9403C316.043 87.4574 316.435 89.2301 316.435 91.2585C316.435 93.2699 316.043 95.0384 315.259 96.5639C314.475 98.081 313.358 99.2656 311.909 100.118C310.469 100.962 308.756 101.384 306.77 101.384ZM306.796 97.1648C307.699 97.1648 308.453 96.9091 309.058 96.3977C309.664 95.8778 310.119 95.1705 310.426 94.2756C310.742 93.3807 310.899 92.3622 310.899 91.2202C310.899 90.0781 310.742 89.0597 310.426 88.1648C310.119 87.2699 309.664 86.5625 309.058 86.0426C308.453 85.5227 307.699 85.2628 306.796 85.2628C305.884 85.2628 305.117 85.5227 304.494 86.0426C303.881 86.5625 303.416 87.2699 303.101 88.1648C302.794 89.0597 302.641 90.0781 302.641 91.2202C302.641 92.3622 302.794 93.3807 303.101 94.2756C303.416 95.1705 303.881 95.8778 304.494 96.3977C305.117 96.9091 305.884 97.1648 306.796 97.1648ZM328.848 101.384C326.837 101.384 325.107 100.957 323.658 100.105C322.218 99.2443 321.11 98.0511 320.334 96.5256C319.567 95 319.183 93.2443 319.183 91.2585C319.183 89.2472 319.571 87.483 320.347 85.9659C321.131 84.4403 322.243 83.2514 323.683 82.3991C325.124 81.5384 326.837 81.108 328.823 81.108C330.536 81.108 332.036 81.419 333.323 82.0412C334.61 82.6634 335.628 83.5369 336.378 84.6619C337.128 85.7869 337.541 87.108 337.618 88.625H332.479C332.334 87.6449 331.95 86.8565 331.328 86.2599C330.715 85.6548 329.909 85.3523 328.912 85.3523C328.068 85.3523 327.331 85.5824 326.7 86.0426C326.078 86.4943 325.593 87.1548 325.243 88.0241C324.894 88.8935 324.719 89.946 324.719 91.1818C324.719 92.4347 324.889 93.5 325.23 94.3778C325.58 95.2557 326.07 95.9247 326.7 96.3849C327.331 96.8452 328.068 97.0753 328.912 97.0753C329.534 97.0753 330.093 96.9474 330.587 96.6918C331.09 96.4361 331.503 96.0653 331.827 95.5795C332.159 95.0852 332.377 94.4929 332.479 93.8026H337.618C337.533 95.3026 337.124 96.6236 336.391 97.7656C335.666 98.8991 334.665 99.7855 333.387 100.425C332.108 101.064 330.595 101.384 328.848 101.384ZM346.04 95.3494L346.052 88.8168H346.845L353.135 81.3636H359.386L350.936 91.233H349.645L346.04 95.3494ZM341.105 101V74.8182H346.551V101H341.105ZM353.378 101L347.599 92.4474L351.23 88.5994L359.757 101H353.378ZM310.995 145.575C308.796 145.567 306.904 145.026 305.319 143.952C303.742 142.878 302.528 141.322 301.676 139.286C300.832 137.249 300.414 134.798 300.423 131.935C300.423 129.08 300.845 126.646 301.688 124.635C302.541 122.624 303.755 121.094 305.332 120.045C306.917 118.989 308.805 118.46 310.995 118.46C313.186 118.46 315.069 118.989 316.646 120.045C318.231 121.102 319.45 122.636 320.302 124.648C321.154 126.651 321.576 129.08 321.568 131.935C321.568 134.807 321.142 137.261 320.289 139.298C319.445 141.335 318.235 142.891 316.659 143.964C315.082 145.038 313.194 145.575 310.995 145.575ZM310.995 140.986C312.495 140.986 313.693 140.232 314.588 138.723C315.482 137.214 315.926 134.952 315.917 131.935C315.917 129.949 315.713 128.295 315.303 126.974C314.903 125.653 314.332 124.661 313.59 123.996C312.857 123.331 311.992 122.999 310.995 122.999C309.504 122.999 308.311 123.744 307.416 125.236C306.521 126.727 306.069 128.96 306.061 131.935C306.061 133.946 306.261 135.625 306.661 136.972C307.07 138.31 307.646 139.315 308.387 139.989C309.129 140.653 309.998 140.986 310.995 140.986Z" fill="white"/>
<path d="M463.391 101V74.8182H473.874C475.8 74.8182 477.406 75.1037 478.693 75.6747C479.98 76.2457 480.948 77.0384 481.595 78.0526C482.243 79.0582 482.567 80.2173 482.567 81.5298C482.567 82.5526 482.362 83.4517 481.953 84.2273C481.544 84.9943 480.982 85.625 480.266 86.1193C479.558 86.6051 478.749 86.9503 477.837 87.1548V87.4105C478.834 87.4531 479.767 87.7344 480.637 88.2543C481.514 88.7741 482.226 89.5028 482.771 90.4403C483.317 91.3693 483.59 92.4773 483.59 93.7642C483.59 95.1534 483.244 96.3935 482.554 97.4844C481.872 98.5668 480.862 99.4233 479.524 100.054C478.186 100.685 476.537 101 474.577 101H463.391ZM468.926 96.4744H473.439C474.982 96.4744 476.107 96.1804 476.814 95.5923C477.521 94.9957 477.875 94.2031 477.875 93.2145C477.875 92.4901 477.7 91.8509 477.351 91.2969C477.002 90.7429 476.503 90.3082 475.855 89.9929C475.216 89.6776 474.453 89.5199 473.567 89.5199H468.926V96.4744ZM468.926 85.7741H473.03C473.789 85.7741 474.462 85.642 475.05 85.3778C475.646 85.1051 476.115 84.7216 476.456 84.2273C476.806 83.733 476.98 83.1406 476.98 82.4503C476.98 81.5043 476.644 80.7415 475.97 80.1619C475.306 79.5824 474.36 79.2926 473.132 79.2926H468.926V85.7741ZM492.535 74.8182V101H487.089V74.8182H492.535ZM505.77 101.384C503.784 101.384 502.067 100.962 500.618 100.118C499.178 99.2656 498.066 98.081 497.281 96.5639C496.497 95.0384 496.105 93.2699 496.105 91.2585C496.105 89.2301 496.497 87.4574 497.281 85.9403C498.066 84.4148 499.178 83.2301 500.618 82.3864C502.067 81.5341 503.784 81.108 505.77 81.108C507.756 81.108 509.469 81.5341 510.909 82.3864C512.358 83.2301 513.475 84.4148 514.259 85.9403C515.043 87.4574 515.435 89.2301 515.435 91.2585C515.435 93.2699 515.043 95.0384 514.259 96.5639C513.475 98.081 512.358 99.2656 510.909 100.118C509.469 100.962 507.756 101.384 505.77 101.384ZM505.796 97.1648C506.699 97.1648 507.453 96.9091 508.058 96.3977C508.664 95.8778 509.119 95.1705 509.426 94.2756C509.742 93.3807 509.899 92.3622 509.899 91.2202C509.899 90.0781 509.742 89.0597 509.426 88.1648C509.119 87.2699 508.664 86.5625 508.058 86.0426C507.453 85.5227 506.699 85.2628 505.796 85.2628C504.884 85.2628 504.117 85.5227 503.494 86.0426C502.881 86.5625 502.416 87.2699 502.101 88.1648C501.794 89.0597 501.641 90.0781 501.641 91.2202C501.641 92.3622 501.794 93.3807 502.101 94.2756C502.416 95.1705 502.881 95.8778 503.494 96.3977C504.117 96.9091 504.884 97.1648 505.796 97.1648ZM527.848 101.384C525.837 101.384 524.107 100.957 522.658 100.105C521.218 99.2443 520.11 98.0511 519.334 96.5256C518.567 95 518.183 93.2443 518.183 91.2585C518.183 89.2472 518.571 87.483 519.347 85.9659C520.131 84.4403 521.243 83.2514 522.683 82.3991C524.124 81.5384 525.837 81.108 527.823 81.108C529.536 81.108 531.036 81.419 532.323 82.0412C533.61 82.6634 534.628 83.5369 535.378 84.6619C536.128 85.7869 536.541 87.108 536.618 88.625H531.479C531.334 87.6449 530.95 86.8565 530.328 86.2599C529.715 85.6548 528.909 85.3523 527.912 85.3523C527.068 85.3523 526.331 85.5824 525.7 86.0426C525.078 86.4943 524.593 87.1548 524.243 88.0241C523.894 88.8935 523.719 89.946 523.719 91.1818C523.719 92.4347 523.889 93.5 524.23 94.3778C524.58 95.2557 525.07 95.9247 525.7 96.3849C526.331 96.8452 527.068 97.0753 527.912 97.0753C528.534 97.0753 529.093 96.9474 529.587 96.6918C530.09 96.4361 530.503 96.0653 530.827 95.5795C531.159 95.0852 531.377 94.4929 531.479 93.8026H536.618C536.533 95.3026 536.124 96.6236 535.391 97.7656C534.666 98.8991 533.665 99.7855 532.387 100.425C531.108 101.064 529.595 101.384 527.848 101.384ZM545.04 95.3494L545.052 88.8168H545.845L552.135 81.3636H558.386L549.936 91.233H548.645L545.04 95.3494ZM540.105 101V74.8182H545.551V101H540.105ZM552.378 101L546.599 92.4474L550.23 88.5994L558.757 101H552.378ZM514.706 118.818V145H509.171V124.072H509.017L503.021 127.831V122.922L509.503 118.818H514.706Z" fill="white"/>
<path d="M63.3908 301V274.818H73.8738C75.7999 274.818 77.4064 275.104 78.6934 275.675C79.9803 276.246 80.9476 277.038 81.5953 278.053C82.2431 279.058 82.5669 280.217 82.5669 281.53C82.5669 282.553 82.3624 283.452 81.9533 284.227C81.5442 284.994 80.9817 285.625 80.2658 286.119C79.5584 286.605 78.7488 286.95 77.8368 287.155V287.411C78.834 287.453 79.7672 287.734 80.6365 288.254C81.5144 288.774 82.226 289.503 82.7715 290.44C83.3169 291.369 83.5897 292.477 83.5897 293.764C83.5897 295.153 83.2445 296.393 82.5542 297.484C81.8723 298.567 80.8624 299.423 79.5243 300.054C78.1863 300.685 76.5371 301 74.5769 301H63.3908ZM68.9263 296.474H73.4391C74.9817 296.474 76.1067 296.18 76.8141 295.592C77.5215 294.996 77.8752 294.203 77.8752 293.214C77.8752 292.49 77.7005 291.851 77.351 291.297C77.0016 290.743 76.503 290.308 75.8553 289.993C75.2161 289.678 74.4533 289.52 73.5669 289.52H68.9263V296.474ZM68.9263 285.774H73.03C73.7885 285.774 74.4618 285.642 75.0499 285.378C75.6465 285.105 76.1152 284.722 76.4561 284.227C76.8056 283.733 76.9803 283.141 76.9803 282.45C76.9803 281.504 76.6436 280.741 75.9703 280.162C75.3056 279.582 74.3596 279.293 73.1323 279.293H68.9263V285.774ZM92.5353 274.818V301H87.0893V274.818H92.5353ZM105.77 301.384C103.784 301.384 102.067 300.962 100.618 300.118C99.1777 299.266 98.0655 298.081 97.2814 296.564C96.4973 295.038 96.1053 293.27 96.1053 291.259C96.1053 289.23 96.4973 287.457 97.2814 285.94C98.0655 284.415 99.1777 283.23 100.618 282.386C102.067 281.534 103.784 281.108 105.77 281.108C107.756 281.108 109.469 281.534 110.909 282.386C112.358 283.23 113.475 284.415 114.259 285.94C115.043 287.457 115.435 289.23 115.435 291.259C115.435 293.27 115.043 295.038 114.259 296.564C113.475 298.081 112.358 299.266 110.909 300.118C109.469 300.962 107.756 301.384 105.77 301.384ZM105.796 297.165C106.699 297.165 107.453 296.909 108.058 296.398C108.664 295.878 109.119 295.17 109.426 294.276C109.742 293.381 109.899 292.362 109.899 291.22C109.899 290.078 109.742 289.06 109.426 288.165C109.119 287.27 108.664 286.562 108.058 286.043C107.453 285.523 106.699 285.263 105.796 285.263C104.884 285.263 104.117 285.523 103.494 286.043C102.881 286.562 102.416 287.27 102.101 288.165C101.794 289.06 101.641 290.078 101.641 291.22C101.641 292.362 101.794 293.381 102.101 294.276C102.416 295.17 102.881 295.878 103.494 296.398C104.117 296.909 104.884 297.165 105.796 297.165ZM127.848 301.384C125.837 301.384 124.107 300.957 122.658 300.105C121.218 299.244 120.11 298.051 119.334 296.526C118.567 295 118.183 293.244 118.183 291.259C118.183 289.247 118.571 287.483 119.347 285.966C120.131 284.44 121.243 283.251 122.683 282.399C124.124 281.538 125.837 281.108 127.823 281.108C129.536 281.108 131.036 281.419 132.323 282.041C133.61 282.663 134.628 283.537 135.378 284.662C136.128 285.787 136.541 287.108 136.618 288.625H131.479C131.334 287.645 130.95 286.857 130.328 286.26C129.715 285.655 128.909 285.352 127.912 285.352C127.068 285.352 126.331 285.582 125.7 286.043C125.078 286.494 124.593 287.155 124.243 288.024C123.894 288.893 123.719 289.946 123.719 291.182C123.719 292.435 123.889 293.5 124.23 294.378C124.58 295.256 125.07 295.925 125.7 296.385C126.331 296.845 127.068 297.075 127.912 297.075C128.534 297.075 129.093 296.947 129.587 296.692C130.09 296.436 130.503 296.065 130.827 295.58C131.159 295.085 131.377 294.493 131.479 293.803H136.618C136.533 295.303 136.124 296.624 135.391 297.766C134.666 298.899 133.665 299.786 132.387 300.425C131.108 301.064 129.595 301.384 127.848 301.384ZM145.04 295.349L145.052 288.817H145.845L152.135 281.364H158.386L149.936 291.233H148.645L145.04 295.349ZM140.105 301V274.818H145.551V301H140.105ZM152.378 301L146.599 292.447L150.23 288.599L158.757 301H152.378ZM100.784 345V341.011L110.104 332.382C110.896 331.615 111.561 330.925 112.098 330.311C112.644 329.697 113.057 329.097 113.338 328.509C113.619 327.912 113.76 327.268 113.76 326.578C113.76 325.811 113.585 325.151 113.236 324.597C112.887 324.034 112.409 323.604 111.804 323.305C111.199 322.999 110.513 322.845 109.746 322.845C108.945 322.845 108.246 323.007 107.649 323.331C107.053 323.655 106.593 324.119 106.269 324.724C105.945 325.33 105.783 326.05 105.783 326.885H100.529C100.529 325.172 100.916 323.685 101.692 322.423C102.468 321.162 103.554 320.186 104.952 319.496C106.35 318.805 107.96 318.46 109.784 318.46C111.659 318.46 113.291 318.793 114.681 319.457C116.078 320.114 117.165 321.026 117.941 322.193C118.716 323.361 119.104 324.699 119.104 326.207C119.104 327.196 118.908 328.172 118.516 329.135C118.132 330.098 117.446 331.168 116.458 332.344C115.469 333.511 114.075 334.913 112.277 336.55L108.455 340.295V340.474H119.449V345H100.784Z" fill="white"/>
<path d="M264.391 301V274.818H274.874C276.8 274.818 278.406 275.104 279.693 275.675C280.98 276.246 281.948 277.038 282.595 278.053C283.243 279.058 283.567 280.217 283.567 281.53C283.567 282.553 283.362 283.452 282.953 284.227C282.544 284.994 281.982 285.625 281.266 286.119C280.558 286.605 279.749 286.95 278.837 287.155V287.411C279.834 287.453 280.767 287.734 281.637 288.254C282.514 288.774 283.226 289.503 283.771 290.44C284.317 291.369 284.59 292.477 284.59 293.764C284.59 295.153 284.244 296.393 283.554 297.484C282.872 298.567 281.862 299.423 280.524 300.054C279.186 300.685 277.537 301 275.577 301H264.391ZM269.926 296.474H274.439C275.982 296.474 277.107 296.18 277.814 295.592C278.521 294.996 278.875 294.203 278.875 293.214C278.875 292.49 278.7 291.851 278.351 291.297C278.002 290.743 277.503 290.308 276.855 289.993C276.216 289.678 275.453 289.52 274.567 289.52H269.926V296.474ZM269.926 285.774H274.03C274.789 285.774 275.462 285.642 276.05 285.378C276.646 285.105 277.115 284.722 277.456 284.227C277.806 283.733 277.98 283.141 277.98 282.45C277.98 281.504 277.644 280.741 276.97 280.162C276.306 279.582 275.36 279.293 274.132 279.293H269.926V285.774ZM293.535 274.818V301H288.089V274.818H293.535ZM306.77 301.384C304.784 301.384 303.067 300.962 301.618 300.118C300.178 299.266 299.066 298.081 298.281 296.564C297.497 295.038 297.105 293.27 297.105 291.259C297.105 289.23 297.497 287.457 298.281 285.94C299.066 284.415 300.178 283.23 301.618 282.386C303.067 281.534 304.784 281.108 306.77 281.108C308.756 281.108 310.469 281.534 311.909 282.386C313.358 283.23 314.475 284.415 315.259 285.94C316.043 287.457 316.435 289.23 316.435 291.259C316.435 293.27 316.043 295.038 315.259 296.564C314.475 298.081 313.358 299.266 311.909 300.118C310.469 300.962 308.756 301.384 306.77 301.384ZM306.796 297.165C307.699 297.165 308.453 296.909 309.058 296.398C309.664 295.878 310.119 295.17 310.426 294.276C310.742 293.381 310.899 292.362 310.899 291.22C310.899 290.078 310.742 289.06 310.426 288.165C310.119 287.27 309.664 286.562 309.058 286.043C308.453 285.523 307.699 285.263 306.796 285.263C305.884 285.263 305.117 285.523 304.494 286.043C303.881 286.562 303.416 287.27 303.101 288.165C302.794 289.06 302.641 290.078 302.641 291.22C302.641 292.362 302.794 293.381 303.101 294.276C303.416 295.17 303.881 295.878 304.494 296.398C305.117 296.909 305.884 297.165 306.796 297.165ZM328.848 301.384C326.837 301.384 325.107 300.957 323.658 300.105C322.218 299.244 321.11 298.051 320.334 296.526C319.567 295 319.183 293.244 319.183 291.259C319.183 289.247 319.571 287.483 320.347 285.966C321.131 284.44 322.243 283.251 323.683 282.399C325.124 281.538 326.837 281.108 328.823 281.108C330.536 281.108 332.036 281.419 333.323 282.041C334.61 282.663 335.628 283.537 336.378 284.662C337.128 285.787 337.541 287.108 337.618 288.625H332.479C332.334 287.645 331.95 286.857 331.328 286.26C330.715 285.655 329.909 285.352 328.912 285.352C328.068 285.352 327.331 285.582 326.7 286.043C326.078 286.494 325.593 287.155 325.243 288.024C324.894 288.893 324.719 289.946 324.719 291.182C324.719 292.435 324.889 293.5 325.23 294.378C325.58 295.256 326.07 295.925 326.7 296.385C327.331 296.845 328.068 297.075 328.912 297.075C329.534 297.075 330.093 296.947 330.587 296.692C331.09 296.436 331.503 296.065 331.827 295.58C332.159 295.085 332.377 294.493 332.479 293.803H337.618C337.533 295.303 337.124 296.624 336.391 297.766C335.666 298.899 334.665 299.786 333.387 300.425C332.108 301.064 330.595 301.384 328.848 301.384ZM346.04 295.349L346.052 288.817H346.845L353.135 281.364H359.386L350.936 291.233H349.645L346.04 295.349ZM341.105 301V274.818H346.551V301H341.105ZM353.378 301L347.599 292.447L351.23 288.599L359.757 301H353.378ZM310.934 345.358C309.025 345.358 307.325 345.03 305.834 344.374C304.351 343.709 303.179 342.797 302.318 341.638C301.466 340.47 301.027 339.124 301.001 337.598H306.575C306.609 338.237 306.818 338.8 307.202 339.286C307.594 339.763 308.113 340.134 308.761 340.398C309.409 340.662 310.138 340.794 310.947 340.794C311.791 340.794 312.537 340.645 313.184 340.347C313.832 340.048 314.339 339.635 314.706 339.107C315.072 338.578 315.256 337.969 315.256 337.278C315.256 336.58 315.059 335.962 314.667 335.425C314.284 334.879 313.73 334.453 313.006 334.146C312.29 333.839 311.437 333.686 310.449 333.686H308.007V329.621H310.449C311.284 329.621 312.021 329.476 312.66 329.186C313.308 328.896 313.811 328.496 314.169 327.984C314.527 327.464 314.706 326.859 314.706 326.169C314.706 325.513 314.548 324.938 314.233 324.443C313.926 323.94 313.491 323.548 312.929 323.267C312.375 322.986 311.727 322.845 310.986 322.845C310.236 322.845 309.55 322.982 308.927 323.254C308.305 323.518 307.807 323.898 307.432 324.392C307.057 324.886 306.856 325.466 306.831 326.131H301.525C301.551 324.622 301.981 323.293 302.817 322.142C303.652 320.991 304.777 320.092 306.192 319.445C307.615 318.788 309.221 318.46 311.011 318.46C312.818 318.46 314.399 318.788 315.754 319.445C317.109 320.101 318.162 320.987 318.912 322.104C319.67 323.212 320.045 324.456 320.037 325.837C320.045 327.303 319.589 328.526 318.669 329.506C317.757 330.486 316.568 331.108 315.102 331.372V331.577C317.028 331.824 318.494 332.493 319.5 333.584C320.514 334.666 321.017 336.021 321.008 337.649C321.017 339.141 320.586 340.466 319.717 341.625C318.856 342.784 317.667 343.696 316.15 344.361C314.633 345.026 312.895 345.358 310.934 345.358Z" fill="white"/>
<path d="M463.391 301V274.818H473.874C475.8 274.818 477.406 275.104 478.693 275.675C479.98 276.246 480.948 277.038 481.595 278.053C482.243 279.058 482.567 280.217 482.567 281.53C482.567 282.553 482.362 283.452 481.953 284.227C481.544 284.994 480.982 285.625 480.266 286.119C479.558 286.605 478.749 286.95 477.837 287.155V287.411C478.834 287.453 479.767 287.734 480.637 288.254C481.514 288.774 482.226 289.503 482.771 290.44C483.317 291.369 483.59 292.477 483.59 293.764C483.59 295.153 483.244 296.393 482.554 297.484C481.872 298.567 480.862 299.423 479.524 300.054C478.186 300.685 476.537 301 474.577 301H463.391ZM468.926 296.474H473.439C474.982 296.474 476.107 296.18 476.814 295.592C477.521 294.996 477.875 294.203 477.875 293.214C477.875 292.49 477.7 291.851 477.351 291.297C477.002 290.743 476.503 290.308 475.855 289.993C475.216 289.678 474.453 289.52 473.567 289.52H468.926V296.474ZM468.926 285.774H473.03C473.789 285.774 474.462 285.642 475.05 285.378C475.646 285.105 476.115 284.722 476.456 284.227C476.806 283.733 476.98 283.141 476.98 282.45C476.98 281.504 476.644 280.741 475.97 280.162C475.306 279.582 474.36 279.293 473.132 279.293H468.926V285.774ZM492.535 274.818V301H487.089V274.818H492.535ZM505.77 301.384C503.784 301.384 502.067 300.962 500.618 300.118C499.178 299.266 498.066 298.081 497.281 296.564C496.497 295.038 496.105 293.27 496.105 291.259C496.105 289.23 496.497 287.457 497.281 285.94C498.066 284.415 499.178 283.23 500.618 282.386C502.067 281.534 503.784 281.108 505.77 281.108C507.756 281.108 509.469 281.534 510.909 282.386C512.358 283.23 513.475 284.415 514.259 285.94C515.043 287.457 515.435 289.23 515.435 291.259C515.435 293.27 515.043 295.038 514.259 296.564C513.475 298.081 512.358 299.266 510.909 300.118C509.469 300.962 507.756 301.384 505.77 301.384ZM505.796 297.165C506.699 297.165 507.453 296.909 508.058 296.398C508.664 295.878 509.119 295.17 509.426 294.276C509.742 293.381 509.899 292.362 509.899 291.22C509.899 290.078 509.742 289.06 509.426 288.165C509.119 287.27 508.664 286.562 508.058 286.043C507.453 285.523 506.699 285.263 505.796 285.263C504.884 285.263 504.117 285.523 503.494 286.043C502.881 286.562 502.416 287.27 502.101 288.165C501.794 289.06 501.641 290.078 501.641 291.22C501.641 292.362 501.794 293.381 502.101 294.276C502.416 295.17 502.881 295.878 503.494 296.398C504.117 296.909 504.884 297.165 505.796 297.165ZM527.848 301.384C525.837 301.384 524.107 300.957 522.658 300.105C521.218 299.244 520.11 298.051 519.334 296.526C518.567 295 518.183 293.244 518.183 291.259C518.183 289.247 518.571 287.483 519.347 285.966C520.131 284.44 521.243 283.251 522.683 282.399C524.124 281.538 525.837 281.108 527.823 281.108C529.536 281.108 531.036 281.419 532.323 282.041C533.61 282.663 534.628 283.537 535.378 284.662C536.128 285.787 536.541 287.108 536.618 288.625H531.479C531.334 287.645 530.95 286.857 530.328 286.26C529.715 285.655 528.909 285.352 527.912 285.352C527.068 285.352 526.331 285.582 525.7 286.043C525.078 286.494 524.593 287.155 524.243 288.024C523.894 288.893 523.719 289.946 523.719 291.182C523.719 292.435 523.889 293.5 524.23 294.378C524.58 295.256 525.07 295.925 525.7 296.385C526.331 296.845 527.068 297.075 527.912 297.075C528.534 297.075 529.093 296.947 529.587 296.692C530.09 296.436 530.503 296.065 530.827 295.58C531.159 295.085 531.377 294.493 531.479 293.803H536.618C536.533 295.303 536.124 296.624 535.391 297.766C534.666 298.899 533.665 299.786 532.387 300.425C531.108 301.064 529.595 301.384 527.848 301.384ZM545.04 295.349L545.052 288.817H545.845L552.135 281.364H558.386L549.936 291.233H548.645L545.04 295.349ZM540.105 301V274.818H545.551V301H540.105ZM552.378 301L546.599 292.447L550.23 288.599L558.757 301H552.378ZM499.527 340.398V336.038L510.457 318.818H514.216V324.852H511.991L505.1 335.757V335.962H520.633V340.398H499.527ZM512.093 345V339.068L512.196 337.138V318.818H517.386V345H512.093Z" fill="white"/>
<path d="M63.3908 501V474.818H73.8738C75.7999 474.818 77.4064 475.104 78.6934 475.675C79.9803 476.246 80.9476 477.038 81.5953 478.053C82.2431 479.058 82.5669 480.217 82.5669 481.53C82.5669 482.553 82.3624 483.452 81.9533 484.227C81.5442 484.994 80.9817 485.625 80.2658 486.119C79.5584 486.605 78.7488 486.95 77.8368 487.155V487.411C78.834 487.453 79.7672 487.734 80.6365 488.254C81.5144 488.774 82.226 489.503 82.7715 490.44C83.3169 491.369 83.5897 492.477 83.5897 493.764C83.5897 495.153 83.2445 496.393 82.5542 497.484C81.8723 498.567 80.8624 499.423 79.5243 500.054C78.1863 500.685 76.5371 501 74.5769 501H63.3908ZM68.9263 496.474H73.4391C74.9817 496.474 76.1067 496.18 76.8141 495.592C77.5215 494.996 77.8752 494.203 77.8752 493.214C77.8752 492.49 77.7005 491.851 77.351 491.297C77.0016 490.743 76.503 490.308 75.8553 489.993C75.2161 489.678 74.4533 489.52 73.5669 489.52H68.9263V496.474ZM68.9263 485.774H73.03C73.7885 485.774 74.4618 485.642 75.0499 485.378C75.6465 485.105 76.1152 484.722 76.4561 484.227C76.8056 483.733 76.9803 483.141 76.9803 482.45C76.9803 481.504 76.6436 480.741 75.9703 480.162C75.3056 479.582 74.3596 479.293 73.1323 479.293H68.9263V485.774ZM92.5353 474.818V501H87.0893V474.818H92.5353ZM105.77 501.384C103.784 501.384 102.067 500.962 100.618 500.118C99.1777 499.266 98.0655 498.081 97.2814 496.564C96.4973 495.038 96.1053 493.27 96.1053 491.259C96.1053 489.23 96.4973 487.457 97.2814 485.94C98.0655 484.415 99.1777 483.23 100.618 482.386C102.067 481.534 103.784 481.108 105.77 481.108C107.756 481.108 109.469 481.534 110.909 482.386C112.358 483.23 113.475 484.415 114.259 485.94C115.043 487.457 115.435 489.23 115.435 491.259C115.435 493.27 115.043 495.038 114.259 496.564C113.475 498.081 112.358 499.266 110.909 500.118C109.469 500.962 107.756 501.384 105.77 501.384ZM105.796 497.165C106.699 497.165 107.453 496.909 108.058 496.398C108.664 495.878 109.119 495.17 109.426 494.276C109.742 493.381 109.899 492.362 109.899 491.22C109.899 490.078 109.742 489.06 109.426 488.165C109.119 487.27 108.664 486.562 108.058 486.043C107.453 485.523 106.699 485.263 105.796 485.263C104.884 485.263 104.117 485.523 103.494 486.043C102.881 486.562 102.416 487.27 102.101 488.165C101.794 489.06 101.641 490.078 101.641 491.22C101.641 492.362 101.794 493.381 102.101 494.276C102.416 495.17 102.881 495.878 103.494 496.398C104.117 496.909 104.884 497.165 105.796 497.165ZM127.848 501.384C125.837 501.384 124.107 500.957 122.658 500.105C121.218 499.244 120.11 498.051 119.334 496.526C118.567 495 118.183 493.244 118.183 491.259C118.183 489.247 118.571 487.483 119.347 485.966C120.131 484.44 121.243 483.251 122.683 482.399C124.124 481.538 125.837 481.108 127.823 481.108C129.536 481.108 131.036 481.419 132.323 482.041C133.61 482.663 134.628 483.537 135.378 484.662C136.128 485.787 136.541 487.108 136.618 488.625H131.479C131.334 487.645 130.95 486.857 130.328 486.26C129.715 485.655 128.909 485.352 127.912 485.352C127.068 485.352 126.331 485.582 125.7 486.043C125.078 486.494 124.593 487.155 124.243 488.024C123.894 488.893 123.719 489.946 123.719 491.182C123.719 492.435 123.889 493.5 124.23 494.378C124.58 495.256 125.07 495.925 125.7 496.385C126.331 496.845 127.068 497.075 127.912 497.075C128.534 497.075 129.093 496.947 129.587 496.692C130.09 496.436 130.503 496.065 130.827 495.58C131.159 495.085 131.377 494.493 131.479 493.803H136.618C136.533 495.303 136.124 496.624 135.391 497.766C134.666 498.899 133.665 499.786 132.387 500.425C131.108 501.064 129.595 501.384 127.848 501.384ZM145.04 495.349L145.052 488.817H145.845L152.135 481.364H158.386L149.936 491.233H148.645L145.04 495.349ZM140.105 501V474.818H145.551V501H140.105ZM152.378 501L146.599 492.447L150.23 488.599L158.757 501H152.378ZM110.083 545.358C108.276 545.358 106.665 545.026 105.251 544.361C103.844 543.696 102.728 542.78 101.901 541.612C101.075 540.445 100.644 539.107 100.61 537.598H105.979C106.039 538.612 106.465 539.435 107.258 540.065C108.05 540.696 108.992 541.011 110.083 541.011C110.952 541.011 111.719 540.82 112.384 540.436C113.058 540.044 113.582 539.503 113.957 538.812C114.34 538.114 114.532 537.312 114.532 536.409C114.532 535.489 114.336 534.679 113.944 533.98C113.56 533.281 113.028 532.736 112.346 532.344C111.664 531.952 110.884 531.751 110.006 531.743C109.239 531.743 108.494 531.901 107.769 532.216C107.053 532.531 106.495 532.962 106.094 533.507L101.173 532.625L102.413 518.818H118.418V523.344H106.977L106.299 529.902H106.452C106.913 529.254 107.607 528.717 108.536 528.291C109.465 527.865 110.505 527.652 111.656 527.652C113.232 527.652 114.638 528.023 115.874 528.764C117.11 529.506 118.086 530.524 118.802 531.82C119.518 533.107 119.871 534.589 119.863 536.268C119.871 538.033 119.462 539.601 118.636 540.973C117.817 542.337 116.671 543.411 115.197 544.195C113.731 544.97 112.026 545.358 110.083 545.358Z" fill="white"/>
<path d="M263.391 501V474.818H273.874C275.8 474.818 277.406 475.104 278.693 475.675C279.98 476.246 280.948 477.038 281.595 478.053C282.243 479.058 282.567 480.217 282.567 481.53C282.567 482.553 282.362 483.452 281.953 484.227C281.544 484.994 280.982 485.625 280.266 486.119C279.558 486.605 278.749 486.95 277.837 487.155V487.411C278.834 487.453 279.767 487.734 280.637 488.254C281.514 488.774 282.226 489.503 282.771 490.44C283.317 491.369 283.59 492.477 283.59 493.764C283.59 495.153 283.244 496.393 282.554 497.484C281.872 498.567 280.862 499.423 279.524 500.054C278.186 500.685 276.537 501 274.577 501H263.391ZM268.926 496.474H273.439C274.982 496.474 276.107 496.18 276.814 495.592C277.521 494.996 277.875 494.203 277.875 493.214C277.875 492.49 277.7 491.851 277.351 491.297C277.002 490.743 276.503 490.308 275.855 489.993C275.216 489.678 274.453 489.52 273.567 489.52H268.926V496.474ZM268.926 485.774H273.03C273.789 485.774 274.462 485.642 275.05 485.378C275.646 485.105 276.115 484.722 276.456 484.227C276.806 483.733 276.98 483.141 276.98 482.45C276.98 481.504 276.644 480.741 275.97 480.162C275.306 479.582 274.36 479.293 273.132 479.293H268.926V485.774ZM292.535 474.818V501H287.089V474.818H292.535ZM305.77 501.384C303.784 501.384 302.067 500.962 300.618 500.118C299.178 499.266 298.066 498.081 297.281 496.564C296.497 495.038 296.105 493.27 296.105 491.259C296.105 489.23 296.497 487.457 297.281 485.94C298.066 484.415 299.178 483.23 300.618 482.386C302.067 481.534 303.784 481.108 305.77 481.108C307.756 481.108 309.469 481.534 310.909 482.386C312.358 483.23 313.475 484.415 314.259 485.94C315.043 487.457 315.435 489.23 315.435 491.259C315.435 493.27 315.043 495.038 314.259 496.564C313.475 498.081 312.358 499.266 310.909 500.118C309.469 500.962 307.756 501.384 305.77 501.384ZM305.796 497.165C306.699 497.165 307.453 496.909 308.058 496.398C308.664 495.878 309.119 495.17 309.426 494.276C309.742 493.381 309.899 492.362 309.899 491.22C309.899 490.078 309.742 489.06 309.426 488.165C309.119 487.27 308.664 486.562 308.058 486.043C307.453 485.523 306.699 485.263 305.796 485.263C304.884 485.263 304.117 485.523 303.494 486.043C302.881 486.562 302.416 487.27 302.101 488.165C301.794 489.06 301.641 490.078 301.641 491.22C301.641 492.362 301.794 493.381 302.101 494.276C302.416 495.17 302.881 495.878 303.494 496.398C304.117 496.909 304.884 497.165 305.796 497.165ZM327.848 501.384C325.837 501.384 324.107 500.957 322.658 500.105C321.218 499.244 320.11 498.051 319.334 496.526C318.567 495 318.183 493.244 318.183 491.259C318.183 489.247 318.571 487.483 319.347 485.966C320.131 484.44 321.243 483.251 322.683 482.399C324.124 481.538 325.837 481.108 327.823 481.108C329.536 481.108 331.036 481.419 332.323 482.041C333.61 482.663 334.628 483.537 335.378 484.662C336.128 485.787 336.541 487.108 336.618 488.625H331.479C331.334 487.645 330.95 486.857 330.328 486.26C329.715 485.655 328.909 485.352 327.912 485.352C327.068 485.352 326.331 485.582 325.7 486.043C325.078 486.494 324.593 487.155 324.243 488.024C323.894 488.893 323.719 489.946 323.719 491.182C323.719 492.435 323.889 493.5 324.23 494.378C324.58 495.256 325.07 495.925 325.7 496.385C326.331 496.845 327.068 497.075 327.912 497.075C328.534 497.075 329.093 496.947 329.587 496.692C330.09 496.436 330.503 496.065 330.827 495.58C331.159 495.085 331.377 494.493 331.479 493.803H336.618C336.533 495.303 336.124 496.624 335.391 497.766C334.666 498.899 333.665 499.786 332.387 500.425C331.108 501.064 329.595 501.384 327.848 501.384ZM345.04 495.349L345.052 488.817H345.845L352.135 481.364H358.386L349.936 491.233H348.645L345.04 495.349ZM340.105 501V474.818H345.551V501H340.105ZM352.378 501L346.599 492.447L350.23 488.599L358.757 501H352.378ZM310.288 545.358C308.941 545.349 307.641 545.124 306.388 544.68C305.144 544.237 304.028 543.517 303.039 542.52C302.05 541.523 301.266 540.202 300.687 538.557C300.116 536.912 299.83 534.892 299.83 532.497C299.839 530.298 300.09 528.334 300.585 526.604C301.087 524.865 301.803 523.391 302.732 522.18C303.67 520.97 304.79 520.05 306.094 519.419C307.398 518.78 308.86 518.46 310.479 518.46C312.227 518.46 313.769 518.801 315.107 519.483C316.445 520.156 317.519 521.072 318.329 522.232C319.147 523.391 319.641 524.69 319.812 526.131H314.353C314.14 525.219 313.692 524.503 313.011 523.983C312.329 523.463 311.485 523.203 310.479 523.203C308.775 523.203 307.479 523.945 306.593 525.428C305.715 526.911 305.268 528.926 305.251 531.474H305.43C305.822 530.699 306.35 530.038 307.015 529.493C307.688 528.939 308.451 528.517 309.303 528.227C310.164 527.929 311.072 527.78 312.026 527.78C313.577 527.78 314.958 528.146 316.168 528.879C317.379 529.604 318.333 530.601 319.032 531.871C319.731 533.141 320.08 534.594 320.08 536.23C320.08 538.003 319.667 539.58 318.84 540.96C318.022 542.341 316.876 543.423 315.401 544.207C313.935 544.983 312.231 545.366 310.288 545.358ZM310.262 541.011C311.114 541.011 311.877 540.807 312.55 540.398C313.224 539.989 313.752 539.435 314.136 538.736C314.519 538.037 314.711 537.253 314.711 536.384C314.711 535.514 314.519 534.734 314.136 534.044C313.761 533.354 313.241 532.804 312.576 532.395C311.911 531.986 311.153 531.781 310.3 531.781C309.661 531.781 309.069 531.901 308.523 532.139C307.987 532.378 307.513 532.71 307.104 533.136C306.704 533.562 306.388 534.057 306.158 534.619C305.928 535.173 305.813 535.766 305.813 536.396C305.813 537.24 306.005 538.011 306.388 538.71C306.781 539.409 307.309 539.967 307.974 540.385C308.647 540.803 309.41 541.011 310.262 541.011Z" fill="white"/>
<path d="M463.391 501V474.818H473.874C475.8 474.818 477.406 475.104 478.693 475.675C479.98 476.246 480.948 477.038 481.595 478.053C482.243 479.058 482.567 480.217 482.567 481.53C482.567 482.553 482.362 483.452 481.953 484.227C481.544 484.994 480.982 485.625 480.266 486.119C479.558 486.605 478.749 486.95 477.837 487.155V487.411C478.834 487.453 479.767 487.734 480.637 488.254C481.514 488.774 482.226 489.503 482.771 490.44C483.317 491.369 483.59 492.477 483.59 493.764C483.59 495.153 483.244 496.393 482.554 497.484C481.872 498.567 480.862 499.423 479.524 500.054C478.186 500.685 476.537 501 474.577 501H463.391ZM468.926 496.474H473.439C474.982 496.474 476.107 496.18 476.814 495.592C477.521 494.996 477.875 494.203 477.875 493.214C477.875 492.49 477.7 491.851 477.351 491.297C477.002 490.743 476.503 490.308 475.855 489.993C475.216 489.678 474.453 489.52 473.567 489.52H468.926V496.474ZM468.926 485.774H473.03C473.789 485.774 474.462 485.642 475.05 485.378C475.646 485.105 476.115 484.722 476.456 484.227C476.806 483.733 476.98 483.141 476.98 482.45C476.98 481.504 476.644 480.741 475.97 480.162C475.306 479.582 474.36 479.293 473.132 479.293H468.926V485.774ZM492.535 474.818V501H487.089V474.818H492.535ZM505.77 501.384C503.784 501.384 502.067 500.962 500.618 500.118C499.178 499.266 498.066 498.081 497.281 496.564C496.497 495.038 496.105 493.27 496.105 491.259C496.105 489.23 496.497 487.457 497.281 485.94C498.066 484.415 499.178 483.23 500.618 482.386C502.067 481.534 503.784 481.108 505.77 481.108C507.756 481.108 509.469 481.534 510.909 482.386C512.358 483.23 513.475 484.415 514.259 485.94C515.043 487.457 515.435 489.23 515.435 491.259C515.435 493.27 515.043 495.038 514.259 496.564C513.475 498.081 512.358 499.266 510.909 500.118C509.469 500.962 507.756 501.384 505.77 501.384ZM505.796 497.165C506.699 497.165 507.453 496.909 508.058 496.398C508.664 495.878 509.119 495.17 509.426 494.276C509.742 493.381 509.899 492.362 509.899 491.22C509.899 490.078 509.742 489.06 509.426 488.165C509.119 487.27 508.664 486.562 508.058 486.043C507.453 485.523 506.699 485.263 505.796 485.263C504.884 485.263 504.117 485.523 503.494 486.043C502.881 486.562 502.416 487.27 502.101 488.165C501.794 489.06 501.641 490.078 501.641 491.22C501.641 492.362 501.794 493.381 502.101 494.276C502.416 495.17 502.881 495.878 503.494 496.398C504.117 496.909 504.884 497.165 505.796 497.165ZM527.848 501.384C525.837 501.384 524.107 500.957 522.658 500.105C521.218 499.244 520.11 498.051 519.334 496.526C518.567 495 518.183 493.244 518.183 491.259C518.183 489.247 518.571 487.483 519.347 485.966C520.131 484.44 521.243 483.251 522.683 482.399C524.124 481.538 525.837 481.108 527.823 481.108C529.536 481.108 531.036 481.419 532.323 482.041C533.61 482.663 534.628 483.537 535.378 484.662C536.128 485.787 536.541 487.108 536.618 488.625H531.479C531.334 487.645 530.95 486.857 530.328 486.26C529.715 485.655 528.909 485.352 527.912 485.352C527.068 485.352 526.331 485.582 525.7 486.043C525.078 486.494 524.593 487.155 524.243 488.024C523.894 488.893 523.719 489.946 523.719 491.182C523.719 492.435 523.889 493.5 524.23 494.378C524.58 495.256 525.07 495.925 525.7 496.385C526.331 496.845 527.068 497.075 527.912 497.075C528.534 497.075 529.093 496.947 529.587 496.692C530.09 496.436 530.503 496.065 530.827 495.58C531.159 495.085 531.377 494.493 531.479 493.803H536.618C536.533 495.303 536.124 496.624 535.391 497.766C534.666 498.899 533.665 499.786 532.387 500.425C531.108 501.064 529.595 501.384 527.848 501.384ZM545.04 495.349L545.052 488.817H545.845L552.135 481.364H558.386L549.936 491.233H548.645L545.04 495.349ZM540.105 501V474.818H545.551V501H540.105ZM552.378 501L546.599 492.447L550.23 488.599L558.757 501H552.378ZM502.453 545L513.306 523.523V523.344H500.663V518.818H519.034V523.408L508.167 545H502.453Z" fill="white"/>
<path d="M63.3908 701V674.818H73.8738C75.7999 674.818 77.4064 675.104 78.6934 675.675C79.9803 676.246 80.9476 677.038 81.5953 678.053C82.2431 679.058 82.5669 680.217 82.5669 681.53C82.5669 682.553 82.3624 683.452 81.9533 684.227C81.5442 684.994 80.9817 685.625 80.2658 686.119C79.5584 686.605 78.7488 686.95 77.8368 687.155V687.411C78.834 687.453 79.7672 687.734 80.6365 688.254C81.5144 688.774 82.226 689.503 82.7715 690.44C83.3169 691.369 83.5897 692.477 83.5897 693.764C83.5897 695.153 83.2445 696.393 82.5542 697.484C81.8723 698.567 80.8624 699.423 79.5243 700.054C78.1863 700.685 76.5371 701 74.5769 701H63.3908ZM68.9263 696.474H73.4391C74.9817 696.474 76.1067 696.18 76.8141 695.592C77.5215 694.996 77.8752 694.203 77.8752 693.214C77.8752 692.49 77.7005 691.851 77.351 691.297C77.0016 690.743 76.503 690.308 75.8553 689.993C75.2161 689.678 74.4533 689.52 73.5669 689.52H68.9263V696.474ZM68.9263 685.774H73.03C73.7885 685.774 74.4618 685.642 75.0499 685.378C75.6465 685.105 76.1152 684.722 76.4561 684.227C76.8056 683.733 76.9803 683.141 76.9803 682.45C76.9803 681.504 76.6436 680.741 75.9703 680.162C75.3056 679.582 74.3596 679.293 73.1323 679.293H68.9263V685.774ZM92.5353 674.818V701H87.0893V674.818H92.5353ZM105.77 701.384C103.784 701.384 102.067 700.962 100.618 700.118C99.1777 699.266 98.0655 698.081 97.2814 696.564C96.4973 695.038 96.1053 693.27 96.1053 691.259C96.1053 689.23 96.4973 687.457 97.2814 685.94C98.0655 684.415 99.1777 683.23 100.618 682.386C102.067 681.534 103.784 681.108 105.77 681.108C107.756 681.108 109.469 681.534 110.909 682.386C112.358 683.23 113.475 684.415 114.259 685.94C115.043 687.457 115.435 689.23 115.435 691.259C115.435 693.27 115.043 695.038 114.259 696.564C113.475 698.081 112.358 699.266 110.909 700.118C109.469 700.962 107.756 701.384 105.77 701.384ZM105.796 697.165C106.699 697.165 107.453 696.909 108.058 696.398C108.664 695.878 109.119 695.17 109.426 694.276C109.742 693.381 109.899 692.362 109.899 691.22C109.899 690.078 109.742 689.06 109.426 688.165C109.119 687.27 108.664 686.562 108.058 686.043C107.453 685.523 106.699 685.263 105.796 685.263C104.884 685.263 104.117 685.523 103.494 686.043C102.881 686.562 102.416 687.27 102.101 688.165C101.794 689.06 101.641 690.078 101.641 691.22C101.641 692.362 101.794 693.381 102.101 694.276C102.416 695.17 102.881 695.878 103.494 696.398C104.117 696.909 104.884 697.165 105.796 697.165ZM127.848 701.384C125.837 701.384 124.107 700.957 122.658 700.105C121.218 699.244 120.11 698.051 119.334 696.526C118.567 695 118.183 693.244 118.183 691.259C118.183 689.247 118.571 687.483 119.347 685.966C120.131 684.44 121.243 683.251 122.683 682.399C124.124 681.538 125.837 681.108 127.823 681.108C129.536 681.108 131.036 681.419 132.323 682.041C133.61 682.663 134.628 683.537 135.378 684.662C136.128 685.787 136.541 687.108 136.618 688.625H131.479C131.334 687.645 130.95 686.857 130.328 686.26C129.715 685.655 128.909 685.352 127.912 685.352C127.068 685.352 126.331 685.582 125.7 686.043C125.078 686.494 124.593 687.155 124.243 688.024C123.894 688.893 123.719 689.946 123.719 691.182C123.719 692.435 123.889 693.5 124.23 694.378C124.58 695.256 125.07 695.925 125.7 696.385C126.331 696.845 127.068 697.075 127.912 697.075C128.534 697.075 129.093 696.947 129.587 696.692C130.09 696.436 130.503 696.065 130.827 695.58C131.159 695.085 131.377 694.493 131.479 693.803H136.618C136.533 695.303 136.124 696.624 135.391 697.766C134.666 698.899 133.665 699.786 132.387 700.425C131.108 701.064 129.595 701.384 127.848 701.384ZM145.04 695.349L145.052 688.817H145.845L152.135 681.364H158.386L149.936 691.233H148.645L145.04 695.349ZM140.105 701V674.818H145.551V701H140.105ZM152.378 701L146.599 692.447L150.23 688.599L158.757 701H152.378ZM109.989 745.358C108.02 745.358 106.269 745.038 104.735 744.399C103.209 743.751 102.012 742.869 101.142 741.753C100.273 740.636 99.8382 739.371 99.8382 737.956C99.8382 736.865 100.085 735.864 100.58 734.952C101.083 734.031 101.764 733.268 102.625 732.663C103.486 732.05 104.449 731.658 105.514 731.487V731.308C104.117 731.027 102.983 730.349 102.114 729.276C101.244 728.193 100.81 726.936 100.81 725.504C100.81 724.149 101.206 722.943 101.999 721.886C102.791 720.821 103.878 719.986 105.259 719.381C106.648 718.767 108.225 718.46 109.989 718.46C111.753 718.46 113.325 718.767 114.706 719.381C116.095 719.994 117.186 720.834 117.979 721.899C118.771 722.956 119.172 724.158 119.181 725.504C119.172 726.945 118.729 728.202 117.851 729.276C116.973 730.349 115.848 731.027 114.476 731.308V731.487C115.524 731.658 116.475 732.05 117.327 732.663C118.188 733.268 118.869 734.031 119.372 734.952C119.884 735.864 120.144 736.865 120.152 737.956C120.144 739.371 119.705 740.636 118.835 741.753C117.966 742.869 116.764 743.751 115.23 744.399C113.705 745.038 111.958 745.358 109.989 745.358ZM109.989 741.293C110.867 741.293 111.634 741.135 112.29 740.82C112.946 740.496 113.458 740.053 113.824 739.49C114.199 738.919 114.387 738.263 114.387 737.521C114.387 736.763 114.195 736.094 113.811 735.514C113.428 734.926 112.908 734.466 112.252 734.134C111.595 733.793 110.841 733.622 109.989 733.622C109.145 733.622 108.391 733.793 107.726 734.134C107.061 734.466 106.537 734.926 106.154 735.514C105.779 736.094 105.591 736.763 105.591 737.521C105.591 738.263 105.774 738.919 106.141 739.49C106.507 740.053 107.023 740.496 107.688 740.82C108.352 741.135 109.119 741.293 109.989 741.293ZM109.989 729.595C110.722 729.595 111.374 729.446 111.945 729.148C112.516 728.849 112.963 728.436 113.287 727.908C113.611 727.379 113.773 726.77 113.773 726.08C113.773 725.398 113.611 724.801 113.287 724.29C112.963 723.77 112.52 723.365 111.958 723.075C111.395 722.777 110.739 722.628 109.989 722.628C109.247 722.628 108.591 722.777 108.02 723.075C107.449 723.365 107.002 723.77 106.678 724.29C106.362 724.801 106.205 725.398 106.205 726.08C106.205 726.77 106.367 727.379 106.691 727.908C107.014 728.436 107.462 728.849 108.033 729.148C108.604 729.446 109.256 729.595 109.989 729.595Z" fill="white"/>
<path d="M264.391 701V674.818H274.874C276.8 674.818 278.406 675.104 279.693 675.675C280.98 676.246 281.948 677.038 282.595 678.053C283.243 679.058 283.567 680.217 283.567 681.53C283.567 682.553 283.362 683.452 282.953 684.227C282.544 684.994 281.982 685.625 281.266 686.119C280.558 686.605 279.749 686.95 278.837 687.155V687.411C279.834 687.453 280.767 687.734 281.637 688.254C282.514 688.774 283.226 689.503 283.771 690.44C284.317 691.369 284.59 692.477 284.59 693.764C284.59 695.153 284.244 696.393 283.554 697.484C282.872 698.567 281.862 699.423 280.524 700.054C279.186 700.685 277.537 701 275.577 701H264.391ZM269.926 696.474H274.439C275.982 696.474 277.107 696.18 277.814 695.592C278.521 694.996 278.875 694.203 278.875 693.214C278.875 692.49 278.7 691.851 278.351 691.297C278.002 690.743 277.503 690.308 276.855 689.993C276.216 689.678 275.453 689.52 274.567 689.52H269.926V696.474ZM269.926 685.774H274.03C274.789 685.774 275.462 685.642 276.05 685.378C276.646 685.105 277.115 684.722 277.456 684.227C277.806 683.733 277.98 683.141 277.98 682.45C277.98 681.504 277.644 680.741 276.97 680.162C276.306 679.582 275.36 679.293 274.132 679.293H269.926V685.774ZM293.535 674.818V701H288.089V674.818H293.535ZM306.77 701.384C304.784 701.384 303.067 700.962 301.618 700.118C300.178 699.266 299.066 698.081 298.281 696.564C297.497 695.038 297.105 693.27 297.105 691.259C297.105 689.23 297.497 687.457 298.281 685.94C299.066 684.415 300.178 683.23 301.618 682.386C303.067 681.534 304.784 681.108 306.77 681.108C308.756 681.108 310.469 681.534 311.909 682.386C313.358 683.23 314.475 684.415 315.259 685.94C316.043 687.457 316.435 689.23 316.435 691.259C316.435 693.27 316.043 695.038 315.259 696.564C314.475 698.081 313.358 699.266 311.909 700.118C310.469 700.962 308.756 701.384 306.77 701.384ZM306.796 697.165C307.699 697.165 308.453 696.909 309.058 696.398C309.664 695.878 310.119 695.17 310.426 694.276C310.742 693.381 310.899 692.362 310.899 691.22C310.899 690.078 310.742 689.06 310.426 688.165C310.119 687.27 309.664 686.562 309.058 686.043C308.453 685.523 307.699 685.263 306.796 685.263C305.884 685.263 305.117 685.523 304.494 686.043C303.881 686.562 303.416 687.27 303.101 688.165C302.794 689.06 302.641 690.078 302.641 691.22C302.641 692.362 302.794 693.381 303.101 694.276C303.416 695.17 303.881 695.878 304.494 696.398C305.117 696.909 305.884 697.165 306.796 697.165ZM328.848 701.384C326.837 701.384 325.107 700.957 323.658 700.105C322.218 699.244 321.11 698.051 320.334 696.526C319.567 695 319.183 693.244 319.183 691.259C319.183 689.247 319.571 687.483 320.347 685.966C321.131 684.44 322.243 683.251 323.683 682.399C325.124 681.538 326.837 681.108 328.823 681.108C330.536 681.108 332.036 681.419 333.323 682.041C334.61 682.663 335.628 683.537 336.378 684.662C337.128 685.787 337.541 687.108 337.618 688.625H332.479C332.334 687.645 331.95 686.857 331.328 686.26C330.715 685.655 329.909 685.352 328.912 685.352C328.068 685.352 327.331 685.582 326.7 686.043C326.078 686.494 325.593 687.155 325.243 688.024C324.894 688.893 324.719 689.946 324.719 691.182C324.719 692.435 324.889 693.5 325.23 694.378C325.58 695.256 326.07 695.925 326.7 696.385C327.331 696.845 328.068 697.075 328.912 697.075C329.534 697.075 330.093 696.947 330.587 696.692C331.09 696.436 331.503 696.065 331.827 695.58C332.159 695.085 332.377 694.493 332.479 693.803H337.618C337.533 695.303 337.124 696.624 336.391 697.766C335.666 698.899 334.665 699.786 333.387 700.425C332.108 701.064 330.595 701.384 328.848 701.384ZM346.04 695.349L346.052 688.817H346.845L353.135 681.364H359.386L350.936 691.233H349.645L346.04 695.349ZM341.105 701V674.818H346.551V701H341.105ZM353.378 701L347.599 692.447L351.23 688.599L359.757 701H353.378ZM310.712 718.46C312.059 718.46 313.354 718.686 314.599 719.138C315.852 719.589 316.968 720.31 317.948 721.298C318.937 722.287 319.717 723.599 320.288 725.236C320.867 726.864 321.161 728.862 321.17 731.232C321.17 733.456 320.918 735.442 320.415 737.189C319.921 738.928 319.21 740.406 318.281 741.625C317.352 742.844 316.231 743.773 314.918 744.412C313.606 745.043 312.14 745.358 310.521 745.358C308.773 745.358 307.231 745.021 305.893 744.348C304.555 743.666 303.477 742.741 302.658 741.574C301.849 740.398 301.359 739.077 301.188 737.611H306.647C306.86 738.565 307.308 739.307 307.989 739.835C308.671 740.355 309.515 740.615 310.521 740.615C312.225 740.615 313.521 739.874 314.407 738.391C315.293 736.899 315.741 734.858 315.749 732.267H315.57C315.178 733.034 314.65 733.695 313.985 734.249C313.32 734.794 312.558 735.216 311.697 735.514C310.844 735.812 309.937 735.962 308.974 735.962C307.431 735.962 306.055 735.599 304.844 734.875C303.634 734.151 302.68 733.153 301.981 731.884C301.282 730.614 300.933 729.165 300.933 727.537C300.924 725.781 301.329 724.217 302.147 722.845C302.965 721.473 304.107 720.399 305.573 719.624C307.048 718.839 308.761 718.452 310.712 718.46ZM310.751 722.807C309.89 722.807 309.123 723.011 308.45 723.42C307.785 723.83 307.256 724.379 306.864 725.07C306.481 725.76 306.293 726.531 306.302 727.384C306.302 728.244 306.489 729.02 306.864 729.71C307.248 730.392 307.768 730.937 308.424 731.347C309.089 731.747 309.847 731.947 310.7 731.947C311.339 731.947 311.931 731.828 312.477 731.589C313.022 731.351 313.495 731.023 313.896 730.605C314.305 730.179 314.624 729.689 314.854 729.135C315.085 728.581 315.2 727.993 315.2 727.371C315.191 726.544 314.995 725.786 314.612 725.095C314.228 724.405 313.7 723.851 313.026 723.433C312.353 723.016 311.594 722.807 310.751 722.807Z" fill="white"/>
<path d="M463.391 701V674.818H473.874C475.8 674.818 477.406 675.104 478.693 675.675C479.98 676.246 480.948 677.038 481.595 678.053C482.243 679.058 482.567 680.217 482.567 681.53C482.567 682.553 482.362 683.452 481.953 684.227C481.544 684.994 480.982 685.625 480.266 686.119C479.558 686.605 478.749 686.95 477.837 687.155V687.411C478.834 687.453 479.767 687.734 480.637 688.254C481.514 688.774 482.226 689.503 482.771 690.44C483.317 691.369 483.59 692.477 483.59 693.764C483.59 695.153 483.244 696.393 482.554 697.484C481.872 698.567 480.862 699.423 479.524 700.054C478.186 700.685 476.537 701 474.577 701H463.391ZM468.926 696.474H473.439C474.982 696.474 476.107 696.18 476.814 695.592C477.521 694.996 477.875 694.203 477.875 693.214C477.875 692.49 477.7 691.851 477.351 691.297C477.002 690.743 476.503 690.308 475.855 689.993C475.216 689.678 474.453 689.52 473.567 689.52H468.926V696.474ZM468.926 685.774H473.03C473.789 685.774 474.462 685.642 475.05 685.378C475.646 685.105 476.115 684.722 476.456 684.227C476.806 683.733 476.98 683.141 476.98 682.45C476.98 681.504 476.644 680.741 475.97 680.162C475.306 679.582 474.36 679.293 473.132 679.293H468.926V685.774ZM492.535 674.818V701H487.089V674.818H492.535ZM505.77 701.384C503.784 701.384 502.067 700.962 500.618 700.118C499.178 699.266 498.066 698.081 497.281 696.564C496.497 695.038 496.105 693.27 496.105 691.259C496.105 689.23 496.497 687.457 497.281 685.94C498.066 684.415 499.178 683.23 500.618 682.386C502.067 681.534 503.784 681.108 505.77 681.108C507.756 681.108 509.469 681.534 510.909 682.386C512.358 683.23 513.475 684.415 514.259 685.94C515.043 687.457 515.435 689.23 515.435 691.259C515.435 693.27 515.043 695.038 514.259 696.564C513.475 698.081 512.358 699.266 510.909 700.118C509.469 700.962 507.756 701.384 505.77 701.384ZM505.796 697.165C506.699 697.165 507.453 696.909 508.058 696.398C508.664 695.878 509.119 695.17 509.426 694.276C509.742 693.381 509.899 692.362 509.899 691.22C509.899 690.078 509.742 689.06 509.426 688.165C509.119 687.27 508.664 686.562 508.058 686.043C507.453 685.523 506.699 685.263 505.796 685.263C504.884 685.263 504.117 685.523 503.494 686.043C502.881 686.562 502.416 687.27 502.101 688.165C501.794 689.06 501.641 690.078 501.641 691.22C501.641 692.362 501.794 693.381 502.101 694.276C502.416 695.17 502.881 695.878 503.494 696.398C504.117 696.909 504.884 697.165 505.796 697.165ZM527.848 701.384C525.837 701.384 524.107 700.957 522.658 700.105C521.218 699.244 520.11 698.051 519.334 696.526C518.567 695 518.183 693.244 518.183 691.259C518.183 689.247 518.571 687.483 519.347 685.966C520.131 684.44 521.243 683.251 522.683 682.399C524.124 681.538 525.837 681.108 527.823 681.108C529.536 681.108 531.036 681.419 532.323 682.041C533.61 682.663 534.628 683.537 535.378 684.662C536.128 685.787 536.541 687.108 536.618 688.625H531.479C531.334 687.645 530.95 686.857 530.328 686.26C529.715 685.655 528.909 685.352 527.912 685.352C527.068 685.352 526.331 685.582 525.7 686.043C525.078 686.494 524.593 687.155 524.243 688.024C523.894 688.893 523.719 689.946 523.719 691.182C523.719 692.435 523.889 693.5 524.23 694.378C524.58 695.256 525.07 695.925 525.7 696.385C526.331 696.845 527.068 697.075 527.912 697.075C528.534 697.075 529.093 696.947 529.587 696.692C530.09 696.436 530.503 696.065 530.827 695.58C531.159 695.085 531.377 694.493 531.479 693.803H536.618C536.533 695.303 536.124 696.624 535.391 697.766C534.666 698.899 533.665 699.786 532.387 700.425C531.108 701.064 529.595 701.384 527.848 701.384ZM545.04 695.349L545.052 688.817H545.845L552.135 681.364H558.386L549.936 691.233H548.645L545.04 695.349ZM540.105 701V674.818H545.551V701H540.105ZM552.378 701L546.599 692.447L550.23 688.599L558.757 701H552.378ZM502.314 718.818V745H496.778V724.072H496.625L490.629 727.831V722.922L497.11 718.818H502.314ZM518.802 745.575C516.603 745.567 514.711 745.026 513.126 743.952C511.549 742.878 510.335 741.322 509.482 739.286C508.638 737.249 508.221 734.798 508.229 731.935C508.229 729.08 508.651 726.646 509.495 724.635C510.347 722.624 511.562 721.094 513.138 720.045C514.724 718.989 516.612 718.46 518.802 718.46C520.992 718.46 522.876 718.989 524.452 720.045C526.038 721.102 527.256 722.636 528.109 724.648C528.961 726.651 529.383 729.08 529.374 731.935C529.374 734.807 528.948 737.261 528.096 739.298C527.252 741.335 526.042 742.891 524.465 743.964C522.888 745.038 521.001 745.575 518.802 745.575ZM518.802 740.986C520.302 740.986 521.499 740.232 522.394 738.723C523.289 737.214 523.732 734.952 523.724 731.935C523.724 729.949 523.519 728.295 523.11 726.974C522.71 725.653 522.138 724.661 521.397 723.996C520.664 723.331 519.799 722.999 518.802 722.999C517.31 722.999 516.117 723.744 515.222 725.236C514.327 726.727 513.876 728.96 513.867 731.935C513.867 733.946 514.067 735.625 514.468 736.972C514.877 738.31 515.452 739.315 516.194 739.989C516.935 740.653 517.805 740.986 518.802 740.986Z" fill="white"/>
</svg>
