<svg id="Layer_1" data-name="Layer 1" xmlns="http://www.w3.org/2000/svg" viewBox="0 0 512 512"><defs><style>.cls-1{fill:#dde5e8;}.cls-2{fill:#71c6c4;}.cls-3{opacity:0.06;}.cls-4{fill:#17292d;}.cls-5{fill:#afc3c9;}</style></defs><title>text-flat</title><path class="cls-1" d="M460.8,153.6V448a64,64,0,0,1-64,64H115.2a64,64,0,0,1-64-64V64a64,64,0,0,1,64-64H307.33l33.41,33.41Z"/><path class="cls-2" d="M460.8,153.6H371.2a64,64,0,0,1-64-64V0h.13Z"/><g class="cls-3"><path class="cls-4" d="M371.2,153.6a64,64,0,0,1-64-64v25.6a64,64,0,0,0,64,64h89.6V153.6Z"/></g><path class="cls-5" d="M345.6,396.8H166.4a12.8,12.8,0,1,1,0-25.6H345.6a12.8,12.8,0,0,1,0,25.6Z"/><path class="cls-5" d="M345.6,345.6H166.4a12.8,12.8,0,0,1,0-25.6H345.6a12.8,12.8,0,0,1,0,25.6Z"/><path class="cls-5" d="M243.2,294.4H166.4a12.8,12.8,0,0,1,0-25.6h76.8a12.8,12.8,0,0,1,0,25.6Z"/></svg>