<?xml version="1.0" encoding="iso-8859-1"?>
<!-- Generator: Adobe Illustrator 19.0.0, SVG Export Plug-In . SVG Version: 6.00 Build 0)  -->
<svg version="1.1" id="Layer_1" xmlns="http://www.w3.org/2000/svg" xmlns:xlink="http://www.w3.org/1999/xlink" x="0px" y="0px"
	 viewBox="0 0 512 512" style="enable-background:new 0 0 512 512;" xml:space="preserve">
<g>
	<path style="fill:#2C3E50;" d="M414.897,512H97.103c-19.5,0-35.31-15.81-35.31-35.31V35.31c0-19.5,15.81-35.31,35.31-35.31h317.793
		c19.5,0,35.31,15.81,35.31,35.31V476.69C450.207,496.19,434.397,512,414.897,512"/>
	<path style="fill:#ECF0F1;" d="M256,70.621c-68.255,0-123.586,55.331-123.586,123.586c0,45.656,24.823,85.425,61.643,106.831
		l45.956-34.092c3.937-3.143,9.587-2.825,13.144,0.724c3.549,3.558,3.858,9.216,0.724,13.135l-28.637,32.971
		c9.852,2.534,20.118,4.017,30.755,4.017c68.255,0,123.586-55.331,123.586-123.586S324.255,70.621,256,70.621"/>
	<g>
		<path style="fill:#546B7F;" d="M105.931,35.31c0-4.873-3.946-8.828-8.828-8.828s-8.828,3.955-8.828,8.828s3.946,8.828,8.828,8.828
			S105.931,40.183,105.931,35.31"/>
		<path style="fill:#546B7F;" d="M423.724,35.31c0-4.873-3.946-8.828-8.828-8.828c-4.882,0-8.828,3.955-8.828,8.828
			s3.946,8.828,8.828,8.828C419.778,44.138,423.724,40.183,423.724,35.31"/>
	</g>
	<g>
		<path style="fill:#BDC3C7;" d="M256,229.517c-19.465,0-35.31-15.837-35.31-35.31s15.846-35.31,35.31-35.31
			s35.31,15.837,35.31,35.31S275.465,229.517,256,229.517"/>
		<path style="fill:#BDC3C7;" d="M253.155,267.673c3.549,3.557,3.858,9.207,0.724,13.135L148.707,401.896
			c-11.794,14.724-32.565,17.39-44.288,5.685c-11.714-11.723-9.039-32.503,5.685-44.288l129.916-96.344
			C243.948,263.806,249.606,264.124,253.155,267.673"/>
	</g>
	<path style="fill:#ECF0F1;" d="M135.319,385.509c0-4.873-3.946-8.828-8.828-8.828c-4.873,0-8.828,3.955-8.828,8.828
		c0,4.873,3.955,8.828,8.828,8.828C131.373,394.336,135.319,390.381,135.319,385.509"/>
	<path style="fill:#546B7F;" d="M203.034,388.414c-12.712,0-24.691-3.063-35.346-8.377l-18.979,21.857
		c-11.794,14.724-32.574,17.399-44.288,5.685s-9.039-32.494,5.685-44.288l22.846-16.931c-5.967-11.149-9.366-23.87-9.366-37.394
		H61.793v105.931v35.31v26.483c0,19.5,15.81,35.31,35.31,35.31h317.793c19.5,0,35.31-15.81,35.31-35.31v-88.276H203.034z"/>
	<path style="fill:#BDC3C7;" d="M167.724,203.034c-4.882,0-8.828-3.955-8.828-8.828c0-53.539,43.564-97.103,97.103-97.103
		c4.882,0,8.828,3.955,8.828,8.828c0,4.873-3.946,8.828-8.828,8.828c-43.811,0-79.448,35.646-79.448,79.448
		C176.552,199.08,172.606,203.034,167.724,203.034"/>
	<g>
		<polygon style="fill:#2C3E50;" points="264.828,476.69 317.793,476.69 317.793,423.724 264.828,423.724 		"/>
		<polygon style="fill:#2C3E50;" points="353.103,476.69 406.069,476.69 406.069,423.724 353.103,423.724 		"/>
		<path style="fill:#2C3E50;" d="M220.69,441.379h-44.138c-4.882,0-8.828-3.955-8.828-8.828s3.946-8.828,8.828-8.828h44.138
			c4.882,0,8.828,3.955,8.828,8.828S225.571,441.379,220.69,441.379"/>
		<path style="fill:#2C3E50;" d="M220.69,476.69h-44.138c-4.882,0-8.828-3.955-8.828-8.828s3.946-8.828,8.828-8.828h44.138
			c4.882,0,8.828,3.955,8.828,8.828S225.571,476.69,220.69,476.69"/>
	</g>
</g>
<g>
</g>
<g>
</g>
<g>
</g>
<g>
</g>
<g>
</g>
<g>
</g>
<g>
</g>
<g>
</g>
<g>
</g>
<g>
</g>
<g>
</g>
<g>
</g>
<g>
</g>
<g>
</g>
<g>
</g>
</svg>
